<?xml version="1.0" encoding="UTF-8" standalone="no"?>
<svg
   xmlns:dc="http://purl.org/dc/elements/1.1/"
   xmlns:cc="http://creativecommons.org/ns#"
   xmlns:rdf="http://www.w3.org/1999/02/22-rdf-syntax-ns#"
   xmlns:svg="http://www.w3.org/2000/svg"
   xmlns="http://www.w3.org/2000/svg"
   xmlns:sodipodi="http://sodipodi.sourceforge.net/DTD/sodipodi-0.dtd"
   xmlns:inkscape="http://www.inkscape.org/namespaces/inkscape"
   width="1.9999999858411206"
   height="1.7320508956907068"
   viewBox="0 0 1.9999999858411206 1.7320508956907068"
   version="1.1"
   id="svg132"
   sodipodi:docname="cable_5.svg"
   inkscape:version="1.0 (4035a4fb49, 2020-05-01)">
  <metadata
     id="metadata138">
    <rdf:RDF>
      <cc:Work
         rdf:about="">
        <dc:format>image/svg+xml</dc:format>
        <dc:type
           rdf:resource="http://purl.org/dc/dcmitype/StillImage" />
      </cc:Work>
    </rdf:RDF>
  </metadata>
  <defs
     id="defs136" />
  <sodipodi:namedview
     inkscape:document-rotation="0"
     pagecolor="#ffffff"
     bordercolor="#666666"
     borderopacity="1"
     objecttolerance="10"
     gridtolerance="10"
     guidetolerance="10"
     inkscape:pageopacity="0"
     inkscape:pageshadow="2"
     inkscape:window-width="958"
     inkscape:window-height="1008"
     id="namedview134"
     showgrid="false"
     inkscape:zoom="256"
     inkscape:cx="1.1621094"
     inkscape:cy="1.1629004"
     inkscape:window-x="0"
     inkscape:window-y="0"
     inkscape:window-maximized="0"
     inkscape:current-layer="svg132" />
  <desc
     id="desc2">Outline to SVG export</desc>
  <g
     id="g112"
     style="fill:#FF9000">
    <path
       fill-rule="evenodd"
       fill="#000000"
       stroke="#555555"
       stroke-width="0"
       opacity="1"
       d="m 0.1800002,1.1777947 1.1e-7,2e-7 0.009378,0.016243 0.0256217,0.044378 v 0 0 l 0.035,0.060622 v 0 l 0.035,0.060622 v 0 0 l 0.0256218,0.044378 v 0 l 0.009378,0.016244 1.3e-7,2e-7 2e-7,-1e-7 0.0208412,-0.011828 1.4e-7,-1e-7 0.004581,-0.00251 0.0158454,-0.00868 1.4e-7,-1e-7 0.019989,-0.010535 h 1.5e-7 l 0.007518,-0.0038 0.0120281,-0.00608 1.6e-7,-1e-7 0.0190933,-0.00924 h 1.7e-7 l 0.0186319,-0.0086 1.8e-7,-1e-7 0.0181607,-0.00797 1.8e-7,-1e-7 0.0176793,-0.00734 2e-7,-10e-8 0.0140821,-0.0055 0.003105,-0.00121 2.1e-7,-1e-7 0.0166841,-0.00609 2.2e-7,-1e-7 0.0100312,-0.0034 0.006139,-0.00208 h 2.3e-7 l 0.0156437,-0.00488 h 2.4e-7 l 0.015106,-0.00429 2.6e-7,-1e-7 0.0145569,-0.00371 2.7e-7,-1e-7 0.0139967,-0.00315 2.9e-7,-1e-7 0.0134265,-0.0026 3.1e-7,-1e-7 0.012847,-0.00207 h 3.2e-7 l 0.0122603,-0.00157 3.5e-7,-1e-7 0.0116689,-0.00108 3.6e-7,-1e-7 0.0110754,-6.233e-4 h 3.8e-7 l 0.0104837,-1.918e-4 h 4e-7 l 0.007678,1.638e-4 0.00222,4.73e-5 v 0 h 4.2e-7 l 0.003147,1.975e-4 0.006177,3.876e-4 h 4.3e-7 l 0.008767,9.3e-4 4.5e-7,1e-7 0.008234,0.00125 4.5e-7,1e-7 0.006034,0.0012 0.001698,3.379e-4 4.6e-7,1e-7 0.002669,6.648e-4 0.004596,0.00114 4.7e-7,1e-7 0.005659,0.00171 0.001183,3.57e-4 4.8e-7,10e-8 0.004411,0.00158 0.002055,7.34e-4 4.7e-7,10e-8 3.2713e-4,1.36e-4 0.005815,0.00242 4.7e-7,2e-7 0.005871,0.0028 4.6e-7,2e-7 0.005652,0.00307 4.5e-7,2e-7 0.005485,0.00336 4.4e-7,3e-7 0.005364,0.00368 4.2e-7,3e-7 0.001149,8.797e-4 0.004133,0.00316 4e-7,4e-7 0.005233,0.00445 3.7e-7,3e-7 0.005209,0.00489 3.5e-7,4e-7 8.7135e-4,9.027e-4 0.004329,0.00448 3.2e-7,3e-7 0.004681,0.00534 5.1714e-4,5.895e-4 3e-7,4e-7 0.005197,0.00651 2.7e-7,3e-7 0.005189,0.00713 2.5e-7,3e-7 0.005169,0.00778 2.2e-7,3e-7 0.005132,0.00847 2e-7,4e-7 8.0361e-4,0.00145 0.004272,0.00772 1.8e-7,4e-7 0.001978,0.00392 0.00302,0.00598 1.6e-7,3e-7 0.002735,0.00594 0.002163,0.0047 1.4e-7,3e-7 0.004775,0.011401 1.2e-7,4e-7 0.004629,0.012162 1.1e-7,3e-7 0.004461,0.012928 9e-8,3e-7 9.8157e-4,0.00315 0.003292,0.010549 8e-8,3e-7 9.9328e-4,0.00353 0.003072,0.010928 7e-8,3e-7 0.00384,0.015226 6e-8,2e-7 0.003597,0.015987 5e-8,3e-7 0.003339,0.016743 5e-8,2e-7 0.003067,0.017494 4e-8,2e-7 0.002783,0.01824 3e-8,2e-7 0.002487,0.018978 2e-8,2e-7 0.002181,0.019711 2e-8,2e-7 0.001865,0.020437 1e-8,2e-7 0.001541,0.021157 10e-9,2e-7 7.1687e-4,0.01296 4.9285e-4,0.00891 10e-9,1e-7 8.713e-4,0.022578 v 1e-7 l 5.2678e-4,0.02328 10e-9,2e-7 1.7654e-4,0.023965 1e-8,2e-7 h 2.4e-7 0.27999872 2e-7 v -3e-7 L 1.139792,1.703867 v -1e-7 l -6.264e-4,-0.027648 v -1e-7 l -0.00105,-0.027144 v -1e-7 l -0.00147,-0.026645 v -1e-7 l -0.00191,-0.026152 v 0 l -0.00234,-0.025663 v -1e-7 l -0.00279,-0.02518 -0.00324,-0.024702 -0.0037,-0.024229 -0.00417,-0.023762 -0.00465,-0.0233 -0.00514,-0.022842 -0.00565,-0.022387 -0.00617,-0.021934 -0.00671,-0.021484 v 0 l -0.00726,-0.021032 v -1e-7 l -0.00784,-0.020578 v -10e-8 l -0.00843,-0.020119 -1e-7,-2e-7 -0.00905,-0.019651 -10e-8,-2e-7 -0.00968,-0.019172 -10e-8,-3e-7 -0.01034,-0.018676 -2e-7,-3e-7 -0.011016,-0.01816 -2e-7,-3e-7 -0.011711,-0.017618 -3e-7,-4e-7 -0.01242,-0.017046 -3e-7,-4e-7 -0.0131396,-0.016439 -2.9e-7,-3e-7 -0.0138641,-0.015791 -3.2e-7,-4e-7 -0.0145868,-0.0151 -3.5e-7,-3e-7 -0.0153003,-0.014363 v 0 l -3.7e-7,-4e-7 v 0 l -0.0159965,-0.013579 h -1e-8 l -3.8e-7,-3e-7 v 0 l -0.0166666,-0.012749 h -10e-9 l -3.9e-7,-3e-7 h -10e-9 l -0.0173022,-0.011875 h -10e-9 l -4e-7,-3e-7 h -1e-8 l -0.017896,-0.010962 h -1e-8 l -4.1e-7,-3e-7 h -1e-8 l -0.0184421,-0.010017 -10e-9,-1e-7 -4.3e-7,-2e-7 h -1e-8 l -0.0189356,-0.00905 h -1e-8 l -4.4e-7,-2e-7 h -10e-9 l -0.0193743,-0.00806 v 0 l -4.6e-7,-2e-7 v 0 l -0.0197583,-0.00706 v 0 l -4.8e-7,-1e-7 v 0 l -0.0200892,-0.00607 -4.7e-7,-2e-7 -0.0203705,-0.00508 -4.7e-7,-2e-7 -0.0206075,-0.00411 -4.5e-7,-1e-7 -0.0208059,-0.00316 -4.3e-7,-1e-7 -0.0209722,-0.00223 h -4.1e-7 l -0.0211133,-0.00133 h -3.8e-7 l -0.0212352,-4.606e-4 h -3.4e-7 l -0.021344,3.835e-4 h -3.1e-7 l -0.0214446,0.0012 h -2.6e-7 l -0.0215418,0.00199 -2.1e-7,1e-7 -0.0216392,0.00276 h -1.6e-7 l -0.0217398,0.0035 h -10e-8 l -0.0218457,0.00423 h -4e-8 l -0.0219591,0.00493 -0.0220807,0.00562 -0.0222117,0.0063 -0.0223523,0.00697 -0.0225027,0.00762 -0.022663,0.00827 -0.0228328,0.00891 -0.0230121,0.00955 -0.0231999,0.010176 h -7e-8 l -0.0233966,0.010802 -8e-8,1e-7 -0.0236009,0.011425 -8e-8,1e-7 -0.0238129,0.012046 h -7e-8 l -0.0240317,0.012664 h -7e-8 l -0.0242555,0.013281 h -7e-8 l -0.0244995,0.013904 z"
       id="path78"
       style="fill:#FF9000" />
    <path
       fill-rule="evenodd"
       fill="#000000"
       stroke="#555555"
       stroke-width="0"
       opacity="1"
       d="m 0.3467977,1.0934975 v 0 z"
       id="path80"
       style="fill:#FF9000" />
    <path
       fill-rule="evenodd"
       fill="#000000"
       stroke="#555555"
       stroke-width="0"
       opacity="1"
       d="m 0.36980981,1.0839514 v 0 z"
       id="path82"
       style="fill:#FF9000" />
    <path
       fill-rule="evenodd"
       fill="#000000"
       stroke="#555555"
       stroke-width="0"
       opacity="1"
       d="m 0.39264262,1.07504 v 0 z"
       id="path84"
       style="fill:#FF9000" />
    <path
       fill-rule="evenodd"
       fill="#000000"
       stroke="#555555"
       stroke-width="0"
       opacity="1"
       d="m 0.41530561,1.0667689 v 0 z"
       id="path86"
       style="fill:#FF9000" />
    <path
       fill-rule="evenodd"
       fill="#000000"
       stroke="#555555"
       stroke-width="0"
       opacity="1"
       d="m 0.43780828,1.0591456 h -10e-9 z"
       id="path88"
       style="fill:#FF9000" />
    <path
       fill-rule="evenodd"
       fill="#000000"
       stroke="#555555"
       stroke-width="0"
       opacity="1"
       d="m 0.46016055,1.052178 v 0 z"
       id="path90"
       style="fill:#FF9000" />
    <path
       fill-rule="evenodd"
       fill="#000000"
       stroke="#555555"
       stroke-width="0"
       opacity="1"
       d="m 0.48237228,1.0458764 v 0 z"
       id="path92"
       style="fill:#FF9000" />
    <path
       fill-rule="evenodd"
       fill="#000000"
       stroke="#555555"
       stroke-width="0"
       opacity="1"
       d="m 0.50445294,1.0402522 v 0 z"
       id="path94"
       style="fill:#FF9000" />
    <path
       fill-rule="evenodd"
       fill="#000000"
       stroke="#555555"
       stroke-width="0"
       opacity="1"
       d="m 1.0968891,1.3822951 v 0 z"
       id="path96"
       style="fill:#FF9000" />
    <path
       fill-rule="evenodd"
       fill="#000000"
       stroke="#555555"
       stroke-width="0"
       opacity="1"
       d="m 1.1030589,1.4042296 v 0 z"
       id="path98"
       style="fill:#FF9000" />
    <path
       fill-rule="evenodd"
       fill="#000000"
       stroke="#555555"
       stroke-width="0"
       opacity="1"
       d="m 1.1087074,1.4266164 v 0 z"
       id="path100"
       style="fill:#FF9000" />
    <path
       fill-rule="evenodd"
       fill="#000000"
       stroke="#555555"
       stroke-width="0"
       opacity="1"
       d="m 1.1138495,1.4494579 v 0 z"
       id="path102"
       style="fill:#FF9000" />
    <path
       fill-rule="evenodd"
       fill="#000000"
       stroke="#555555"
       stroke-width="0"
       opacity="1"
       d="m 1.1184988,1.4727575 v 0 z"
       id="path104"
       style="fill:#FF9000" />
    <path
       fill-rule="evenodd"
       fill="#000000"
       stroke="#555555"
       stroke-width="0"
       opacity="1"
       d="m 1.1226674,1.4965196 v 0 z"
       id="path106"
       style="fill:#FF9000" />
    <path
       fill-rule="evenodd"
       fill="#000000"
       stroke="#555555"
       stroke-width="0"
       opacity="1"
       d="m 1.1263664,1.5207491 v 0 z"
       id="path108"
       style="fill:#FF9000" />
    <path
       fill-rule="evenodd"
       fill="#000000"
       stroke="#555555"
       stroke-width="0"
       opacity="1"
       d="m 1.1296053,1.5454513 v 0 z"
       id="path110"
       style="fill:#FF9000" />
  </g>
  <g
     id="g40"
     style="fill:#FF4800">
    <path
       fill-rule="evenodd"
       fill="#000000"
       stroke="#555555"
       stroke-width="0"
       opacity="1"
       d="m 0.18750019,1.1907851 1.1e-7,2e-7 0.008373,0.014503 0.0228766,0.039623 0.0312499,0.054127 v 0 l 0.0312501,0.054127 0.0228766,0.039623 v 0 l 0.008373,0.014503 1.2e-7,2e-7 2.1e-7,-10e-8 0.0210372,-0.011939 1.3e-7,-10e-8 0.0200194,-0.010962 6.1174e-4,-3.35e-4 h 1.4e-7 l 0.0202056,-0.010649 1.5e-7,-1e-7 0.0184956,-0.00936 0.001278,-6.468e-4 h 1.5e-7 l 0.0193348,-0.00936 1.7e-7,-1e-7 0.0158732,-0.00733 0.003014,-0.00139 1.8e-7,-1e-7 0.0184306,-0.00809 1.8e-7,-10e-8 0.0179651,-0.00745 1.9e-7,-1e-7 0.0174897,-0.00683 2.1e-7,-10e-8 0.006062,-0.00221 0.0109427,-0.00399 2.2e-7,-1e-7 0.016509,-0.00559 2.4e-7,-1e-7 0.016003,-0.00499 h 2.4e-7 l 0.0154867,-0.0044 2.6e-7,-1e-7 0.0149598,-0.00381 h 2.7e-7 l 0.007943,-0.00179 0.00648,-0.00146 h 2.9e-7 l 0.0138775,-0.00269 h 3.1e-7 l 0.0133233,-0.00215 h 3.2e-7 l 0.0127627,-0.00163 3.4e-7,-10e-8 0.0121979,-0.00113 h 3.6e-7 l 0.0116309,-6.542e-4 h 3.8e-7 l 0.0110654,-2.021e-4 h 3.9e-7 l 0.0105055,2.245e-4 h 4.1e-7 l 9.7233e-4,6.1e-5 0.008983,5.641e-4 h 4.2e-7 l 0.009421,9.999e-4 4.4e-7,1e-7 0.008908,0.00135 4.6e-7,1e-7 0.008421,0.00168 4.6e-7,10e-8 0.007967,0.00199 4.7e-7,10e-8 0.005664,0.00171 0.001888,5.697e-4 4.7e-7,1e-7 0.002495,8.912e-4 0.004684,0.00167 4.7e-7,2e-7 0.006194,0.00257 6.5698e-4,2.732e-4 4.7e-7,2e-7 0.006571,0.00314 4.7e-7,3e-7 0.006338,0.00344 4.5e-7,3e-7 0.00615,0.00377 4.4e-7,3e-7 0.001619,0.00111 0.004384,0.00301 4.2e-7,3e-7 0.005892,0.00451 3.9e-7,3e-7 0.00581,0.00493 3.7e-7,3e-7 0.002368,0.00222 0.003381,0.00318 3.4e-7,3e-7 0.005353,0.00555 3.4936e-4,3.618e-4 3.2e-7,4e-7 0.005663,0.00645 3e-7,3e-7 0.003492,0.00437 0.002131,0.00267 2.7e-7,3e-7 0.004778,0.00656 7.9882e-4,0.0011 2.4e-7,4e-7 5.6051e-4,8.438e-4 0.004959,0.00747 2.2e-7,4e-7 0.005447,0.00899 2e-7,4e-7 2.8194e-4,5.096e-4 0.005076,0.00917 1.8e-7,3e-7 0.005249,0.0104 1.5e-7,3e-7 0.002626,0.00571 0.002493,0.00542 1.4e-7,3e-7 0.00497,0.011868 1.3e-7,3e-7 0.004801,0.012613 10e-8,3e-7 0.004612,0.013362 9e-8,3e-7 0.001927,0.00617 0.002477,0.00794 8e-8,2e-7 0.001396,0.00496 0.002782,0.0099 7e-8,2e-7 0.002314,0.00918 0.001622,0.00643 6e-8,2e-7 0.00368,0.016354 5e-8,2e-7 0.00341,0.017094 4e-8,2e-7 0.002357,0.013445 7.6901e-4,0.00439 3e-8,2e-7 0.002832,0.01856 2e-8,2e-7 0.002527,0.019285 3e-8,2e-7 0.002213,0.020004 1e-8,2e-7 2.6339e-4,0.00289 0.001628,0.017831 1e-8,1e-7 0.001561,0.021425 2e-8,2e-7 4.8175e-4,0.00871 7.4216e-4,0.013417 10e-9,2e-7 8.8077e-4,0.022823 v 10e-8 l 5.3203e-4,0.023514 v 2e-7 l 1.7828e-4,0.02419 10e-9,2e-7 h 2.3e-7 H 1.125 h 2e-7 v -3e-7 l -2.066e-4,-0.027942 v -1e-7 l -6.209e-4,-0.027414 v -1e-7 l -0.00104,-0.0269 v -1e-7 l -0.00146,-0.02639 v -1e-7 l -0.00189,-0.025884 v -10e-8 l -0.00232,-0.025383 v -10e-8 l -0.00275,-0.024887 -0.0032,-0.024396 -0.00365,-0.023909 -0.00411,-0.023426 -0.00458,-0.022948 -0.00506,-0.022474 -0.00555,-0.022003 -0.00606,-0.021534 -0.00658,-0.021066 v 0 l -0.00711,-0.020598 v -1e-7 l -0.00767,-0.020127 v -2e-7 l -0.00824,-0.019652 v -2e-7 l -0.00882,-0.019169 -10e-8,-2e-7 -0.00943,-0.018675 -1e-7,-3e-7 -0.010058,-0.018167 -1e-7,-3e-7 -0.010701,-0.017641 -2e-7,-3e-7 -0.01136,-0.017091 -3e-7,-3e-7 -0.0120326,-0.016515 -2.7e-7,-4e-7 -0.0127141,-0.015907 -3e-7,-3e-7 -0.0133998,-0.015263 -3.2e-7,-4e-7 -0.014084,-0.01458 -3.5e-7,-4e-7 -0.0147597,-0.013856 v 0 l -3.7e-7,-4e-7 v 0 l -0.0154199,-0.01309 v 0 l -3.8e-7,-3e-7 h -1e-8 L 0.9040641,1.1128808 v 0 l -3.9e-7,-3e-7 h -10e-9 L 0.8874011,1.1014435 h -1e-8 l -4e-7,-2e-7 h -10e-9 l -0.0172312,-0.010555 h -1e-8 l -4.1e-7,-2e-7 h -1e-8 l -0.0177569,-0.00964 h -1e-8 l -4.2e-7,-2e-7 h -10e-9 l -0.0182357,-0.00871 h -10e-9 l -4.4e-7,-2e-7 h -1e-8 l -0.0186655,-0.00776 v 0 l -4.6e-7,-1e-7 v 0 l -0.0190463,-0.00681 v 0 l -4.7e-7,-1e-7 v 0 l -0.0193795,-0.00585 -4.7e-7,-1e-7 -0.0196684,-0.00491 -4.6e-7,-2e-7 -0.0199177,-0.00397 -4.5e-7,-1e-7 -0.0201324,-0.00306 -4.3e-7,-1e-7 -0.0203184,-0.00216 -4.1e-7,-1e-7 -0.0204818,-0.00129 h -3.8e-7 l -0.0206279,-4.472e-4 h -3.5e-7 l -0.0207621,3.732e-4 h -3e-7 l -0.0208892,0.00117 -2.6e-7,10e-8 -0.0210129,0.00194 h -2.1e-7 L 0.572132,1.042453 h -1.6e-7 l -0.0212634,0.00343 -1e-7,1e-7 -0.0213947,0.00414 h -4e-8 l -0.0215325,0.00484 -0.0216777,0.00552 -0.0218311,0.00619 -0.0219929,0.00686 -0.0221634,0.00751 -0.0223427,0.00815 -0.0225304,0.00879 -0.0227264,0.00943 -0.02293,0.010058 h -8e-8 l -0.0231414,0.010684 -8e-8,10e-8 -0.0233595,0.011308 h -7e-8 l -0.0235842,0.01193 h -7e-8 l -0.0238151,0.01255 h -7e-8 l -0.0240503,0.013168 -7e-8,1e-7 -0.0243035,0.013792 z"
       id="path6"
       style="fill:#FF4800" />
    <path
       fill-rule="evenodd"
       fill="#000000"
       stroke="#555555"
       stroke-width="0"
       opacity="1"
       d="m 0.3526848,1.107294 h -10e-9 z"
       id="path8"
       style="fill:#FF4800" />
    <path
       fill-rule="evenodd"
       fill="#000000"
       stroke="#555555"
       stroke-width="0"
       opacity="1"
       d="m 0.37541115,1.0978663 v 0 z"
       id="path10"
       style="fill:#FF4800" />
    <path
       fill-rule="evenodd"
       fill="#000000"
       stroke="#555555"
       stroke-width="0"
       opacity="1"
       d="m 0.39794159,1.0890728 v 0 z"
       id="path12"
       style="fill:#FF4800" />
    <path
       fill-rule="evenodd"
       fill="#000000"
       stroke="#555555"
       stroke-width="0"
       opacity="1"
       d="m 0.42028427,1.0809186 v -1e-7 z"
       id="path14"
       style="fill:#FF4800" />
    <path
       fill-rule="evenodd"
       fill="#000000"
       stroke="#555555"
       stroke-width="0"
       opacity="1"
       d="m 0.44244772,1.07341 v 0 z"
       id="path16"
       style="fill:#FF4800" />
    <path
       fill-rule="evenodd"
       fill="#000000"
       stroke="#555555"
       stroke-width="0"
       opacity="1"
       d="m 0.46444058,1.0665544 v 0 z"
       id="path18"
       style="fill:#FF4800" />
    <path
       fill-rule="evenodd"
       fill="#000000"
       stroke="#555555"
       stroke-width="0"
       opacity="1"
       d="m 0.48627168,1.0603607 v 0 z"
       id="path20"
       style="fill:#FF4800" />
    <path
       fill-rule="evenodd"
       fill="#000000"
       stroke="#555555"
       stroke-width="0"
       opacity="1"
       d="m 0.50794935,1.0548391 v 0 z"
       id="path22"
       style="fill:#FF4800" />
    <path
       fill-rule="evenodd"
       fill="#000000"
       stroke="#555555"
       stroke-width="0"
       opacity="1"
       d="m 1.0825084,1.3865607 v 0 z"
       id="path24"
       style="fill:#FF4800" />
    <path
       fill-rule="evenodd"
       fill="#000000"
       stroke="#555555"
       stroke-width="0"
       opacity="1"
       d="m 1.0885655,1.4080949 v 0 z"
       id="path26"
       style="fill:#FF4800" />
    <path
       fill-rule="evenodd"
       fill="#000000"
       stroke="#555555"
       stroke-width="0"
       opacity="1"
       d="m 1.094117,1.4300981 v 0 z"
       id="path28"
       style="fill:#FF4800" />
    <path
       fill-rule="evenodd"
       fill="#000000"
       stroke="#555555"
       stroke-width="0"
       opacity="1"
       d="m 1.0991764,1.4525722 v 0 z"
       id="path30"
       style="fill:#FF4800" />
    <path
       fill-rule="evenodd"
       fill="#000000"
       stroke="#555555"
       stroke-width="0"
       opacity="1"
       d="m 1.1037555,1.4755206 v 0 z"
       id="path32"
       style="fill:#FF4800" />
    <path
       fill-rule="evenodd"
       fill="#000000"
       stroke="#555555"
       stroke-width="0"
       opacity="1"
       d="m 1.1078652,1.498947 v 0 z"
       id="path34"
       style="fill:#FF4800" />
    <path
       fill-rule="evenodd"
       fill="#000000"
       stroke="#555555"
       stroke-width="0"
       opacity="1"
       d="m 1.111515,1.5228556 v 0 z"
       id="path36"
       style="fill:#FF4800" />
    <path
       fill-rule="evenodd"
       fill="#000000"
       stroke="#555555"
       stroke-width="0"
       opacity="1"
       d="m 1.1147137,1.5472512 v 0 z"
       id="path38"
       style="fill:#FF4800" />
  </g>
  <g
     id="g76"
     style="fill:#FF9000">
    <path
       fill-rule="evenodd"
       fill="#000000"
       stroke="#555555"
       stroke-width="0"
       opacity="1"
       d="m 0.20000018,1.2124357 1.1e-7,2e-7 0.006699,0.011602 v 0 l 0.0105663,0.018301 0.007735,0.013397 v 0 0 l 0.0211326,0.036603 0.003867,0.0067 v 0 l 0.001795,0.00311 0.023205,0.040192 v 0 l 0.0183014,0.031699 v 0 l 0.006699,0.011602 1.2e-7,2e-7 2.1e-7,-1e-7 0.0213639,-0.012125 1.3e-7,-1e-7 0.020973,-0.011484 1.4e-7,-1e-7 0.005142,-0.00271 0.0154249,-0.00813 1.5e-7,-1e-7 0.0201552,-0.010196 1.6e-7,-1e-7 0.0197374,-0.00956 1.7e-7,-1e-7 0.0193124,-0.00892 h 1.7e-7 l 0.0188805,-0.00828 1.8e-7,-1e-7 0.0184412,-0.00765 2e-7,-1e-7 0.0179937,-0.00702 h 2.1e-7 l 0.0175383,-0.0064 2.2e-7,-1e-7 0.0170744,-0.00579 h 2.3e-7 l 0.016602,-0.00518 h 2.5e-7 l 0.016121,-0.00458 h 2.6e-7 l 0.0101415,-0.00258 0.00549,-0.0014 h 2.8e-7 l 0.008508,-0.00191 0.006626,-0.00149 h 2.9e-7 l 0.008991,-0.00174 0.005638,-0.00109 3.1e-7,-10e-8 0.0141173,-0.00228 h 3.3e-7 l 0.0133679,-0.00171 2.3225e-4,-2.97e-5 h 3.4e-7 l 0.0130793,-0.00121 h 3.7e-7 l 0.0125567,-7.057e-4 3.8e-7,-1e-7 0.0120351,-2.192e-4 h 3.9e-7 l 0.0115177,2.468e-4 h 4.1e-7 l 0.0110082,6.919e-4 h 4.3e-7 l 0.0105109,0.00112 4.4e-7,1e-7 0.0100302,0.00152 4.6e-7,1e-7 9.9157e-4,1.975e-4 0.008579,0.00171 4.6e-7,1e-7 0.009138,0.00228 4.8e-7,1e-7 0.00537,0.00162 0.003364,0.00102 4.8e-7,2e-7 0.001954,6.981e-4 0.006411,0.00229 4.7e-7,2e-7 0.008032,0.00334 4.7e-7,2e-7 0.007737,0.0037 4.6e-7,3e-7 0.00748,0.00406 4.5e-7,3e-7 0.007258,0.00445 4.4e-7,2e-7 0.007069,0.00485 4.2e-7,3e-7 0.006908,0.00529 4e-7,4e-7 0.006771,0.00575 3.7e-7,3e-7 0.00665,0.00625 3.5e-7,3e-7 0.001268,0.00131 0.005273,0.00546 3.3e-7,4e-7 0.00528,0.00602 0.001156,0.00132 3e-7,3e-7 0.001605,0.00201 0.004727,0.00592 2.7e-7,4e-7 0.00359,0.00493 0.002632,0.00362 2.4e-7,3e-7 0.006103,0.00919 2.2e-7,4e-7 0.00237,0.00391 0.003602,0.00594 2e-7,3e-7 0.005828,0.010532 1.8e-7,4e-7 0.005667,0.011227 1.6e-7,4e-7 0.00549,0.011933 1.4e-7,3e-7 0.005297,0.012646 1.2e-7,3e-7 0.005087,0.013364 1.1e-7,3e-7 0.004862,0.014085 9e-8,3e-7 0.004621,0.014808 8e-8,3e-7 0.004366,0.015529 7e-8,3e-7 0.004098,0.016249 6e-8,2e-7 0.003818,0.016966 5e-8,3e-7 0.003526,0.01768 4e-8,2e-7 0.001243,0.00709 0.001982,0.011302 4e-8,2e-7 0.002914,0.019095 3e-8,3e-7 0.002595,0.019796 2e-8,2e-7 0.001115,0.010075 0.001153,0.010417 2e-8,2e-7 0.001934,0.021184 10e-9,1e-7 0.00128,0.017568 3.1347e-4,0.0043 1e-8,2e-7 3.1715e-4,0.00573 9.3037e-4,0.016819 v 1e-7 l 6.2599e-4,0.01622 2.7058e-4,0.00701 10e-9,10e-8 5.4102e-4,0.023904 1e-8,1e-7 1.8101e-4,0.024565 2e-8,2e-7 h 2.3e-7 0.19999966 2e-7 v -3e-7 l -2.036e-4,-0.027567 v -1e-7 l -6.121e-4,-0.027024 v -1e-7 l -0.00102,-0.026492 v -1e-7 l -0.00144,-0.025963 v -1e-7 l -0.00185,-0.025438 v -10e-8 l -0.00228,-0.024916 v -10e-8 l -0.0027,-0.024399 v 0 l -0.00313,-0.023885 -0.00357,-0.023374 -0.00401,-0.022867 -0.00446,-0.022363 -0.00492,-0.021862 -0.00539,-0.021364 -0.00587,-0.020867 -0.00636,-0.020371 v 0 l -0.00686,-0.019874 -10e-8,-1e-7 -0.00738,-0.019376 v -2e-7 l -0.00791,-0.018873 -1e-7,-2e-7 -0.00845,-0.018365 -10e-8,-2e-7 -0.00901,-0.017848 -2e-7,-2e-7 -0.00959,-0.017319 -2e-7,-3e-7 -0.0101759,-0.016775 -2.1e-7,-3e-7 -0.0107763,-0.016213 -2.3e-7,-3e-7 -0.011387,-0.015629 -2.7e-7,-4e-7 -0.012005,-0.01502 -2.9e-7,-3e-7 -0.0126261,-0.014382 -3.2e-7,-3e-7 -0.0132459,-0.013713 -3.5e-7,-3e-7 -0.0138587,-0.01301 v 0 l -3.7e-7,-3e-7 v 0 l -0.0144589,-0.012275 h -10e-9 l -3.8e-7,-3e-7 v 0 l -0.0150402,-0.011505 h -10e-9 l -3.9e-7,-3e-7 h -10e-9 L 0.87381026,1.122431 h -10e-9 l -4e-7,-2e-7 h -1e-8 l -0.0161231,-0.00988 h -1e-8 l -4.1e-7,-3e-7 h -1e-8 l -0.0166149,-0.00902 h -10e-9 l -4.3e-7,-2e-7 h -10e-9 l -0.0170692,-0.00815 h -1e-8 l -4.4e-7,-2e-7 h -10e-9 l -0.017484,-0.00727 h -10e-9 l -4.5e-7,-2e-7 h -1e-8 l -0.0178595,-0.00638 v 0 l -4.7e-7,-2e-7 v 0 l -0.0181967,-0.0055 -4.8e-7,-1e-7 -0.0184984,-0.00462 -4.6e-7,-10e-8 -0.018768,-0.00374 h -4.5e-7 l -0.01901,-0.00289 -4.3e-7,-1e-7 -0.0192286,-0.00205 h -4.1e-7 l -0.0194292,-0.00123 h -3.8e-7 l -0.0196156,-4.25e-4 h -3.5e-7 l -0.0197925,3.561e-4 h -3.1e-7 l -0.0199633,0.00112 h -2.7e-7 l -0.0201313,0.00186 -2.1e-7,1e-7 -0.0202994,0.00259 h -1.6e-7 l -0.0204694,0.0033 h -1e-7 l -0.020643,0.00399 h -4e-8 l -0.0208216,0.00468 -0.021006,0.00535 -0.0211966,0.00601 -0.0213939,0.00667 -0.021598,0.00732 -0.0218089,0.00796 -0.0220264,0.0086 -0.0222502,0.00923 -0.0224801,0.00986 -8e-8,1e-7 -0.0227158,0.010488 h -8e-8 l -0.022957,0.011113 h -8e-8 l -0.0232033,0.011737 -7e-8,1e-7 -0.0234541,0.01236 h -7e-8 l -0.0237083,0.012981 h -7e-8 l -0.023977,0.013607 z"
       id="path42"
       style="fill:#FF9000" />
    <path
       fill-rule="evenodd"
       fill="#000000"
       stroke="#555555"
       stroke-width="0"
       opacity="1"
       d="M 0.36249655,1.1302881 Z"
       id="path44"
       style="fill:#FF9000" />
    <path
       fill-rule="evenodd"
       fill="#000000"
       stroke="#555555"
       stroke-width="0"
       opacity="1"
       d="M 0.38474673,1.1210579 Z"
       id="path46"
       style="fill:#FF9000" />
    <path
       fill-rule="evenodd"
       fill="#000000"
       stroke="#555555"
       stroke-width="0"
       opacity="1"
       d="M 0.40677309,1.1124609 Z"
       id="path48"
       style="fill:#FF9000" />
    <path
       fill-rule="evenodd"
       fill="#000000"
       stroke="#555555"
       stroke-width="0"
       opacity="1"
       d="M 0.42858201,1.1045014 Z"
       id="path50"
       style="fill:#FF9000" />
    <path
       fill-rule="evenodd"
       fill="#000000"
       stroke="#555555"
       stroke-width="0"
       opacity="1"
       d="M 0.45018005,1.0971842 Z"
       id="path52"
       style="fill:#FF9000" />
    <path
       fill-rule="evenodd"
       fill="#000000"
       stroke="#555555"
       stroke-width="0"
       opacity="1"
       d="M 0.47157395,1.0905151 Z"
       id="path54"
       style="fill:#FF9000" />
    <path
       fill-rule="evenodd"
       fill="#000000"
       stroke="#555555"
       stroke-width="0"
       opacity="1"
       d="M 0.49277055,1.0845011 Z"
       id="path56"
       style="fill:#FF9000" />
    <path
       fill-rule="evenodd"
       fill="#000000"
       stroke="#555555"
       stroke-width="0"
       opacity="1"
       d="M 0.51377654,1.0791504 Z"
       id="path58"
       style="fill:#FF9000" />
    <path
       fill-rule="evenodd"
       fill="#000000"
       stroke="#555555"
       stroke-width="0"
       opacity="1"
       d="M 1.0585406,1.3936698 Z"
       id="path60"
       style="fill:#FF9000" />
    <path
       fill-rule="evenodd"
       fill="#000000"
       stroke="#555555"
       stroke-width="0"
       opacity="1"
       d="M 1.0644097,1.414537 Z"
       id="path62"
       style="fill:#FF9000" />
    <path
       fill-rule="evenodd"
       fill="#000000"
       stroke="#555555"
       stroke-width="0"
       opacity="1"
       d="M 1.0697998,1.4359007 Z"
       id="path64"
       style="fill:#FF9000" />
    <path
       fill-rule="evenodd"
       fill="#000000"
       stroke="#555555"
       stroke-width="0"
       opacity="1"
       d="M 1.0747212,1.457763 Z"
       id="path66"
       style="fill:#FF9000" />
    <path
       fill-rule="evenodd"
       fill="#000000"
       stroke="#555555"
       stroke-width="0"
       opacity="1"
       d="M 1.0791833,1.4801259 Z"
       id="path68"
       style="fill:#FF9000" />
    <path
       fill-rule="evenodd"
       fill="#000000"
       stroke="#555555"
       stroke-width="0"
       opacity="1"
       d="M 1.0831947,1.5029927 Z"
       id="path70"
       style="fill:#FF9000" />
    <path
       fill-rule="evenodd"
       fill="#000000"
       stroke="#555555"
       stroke-width="0"
       opacity="1"
       d="M 1.0867628,1.5263665 Z"
       id="path72"
       style="fill:#FF9000" />
    <path
       fill-rule="evenodd"
       fill="#000000"
       stroke="#555555"
       stroke-width="0"
       opacity="1"
       d="M 1.0898943,1.5502511 Z"
       id="path74"
       style="fill:#FF9000" />
  </g>
  <path
     fill-rule="evenodd"
     fill="#000000"
     stroke="#555555"
     stroke-width="0"
     opacity="1"
     d="M 0.6161286346270031,1.1632037484110167 L 0.6161285301784221,1.163203933076889 L 0.6161285162287288,1.163203957740051 L 0.6161285751999367,1.1632040714280383 L 0.6628811248854499,1.2401528598658003 L 0.6628812625623521,1.2401530627848365 L 0.662881504158579,1.2401531047649417 L 0.7137579888795438,1.2463848295252393 L 0.7137582137922159,1.2463848460325873 L 0.7137581470126036,1.246384630629044 L 0.6831608139705706,1.162365173600524 L 0.6831605173703924,1.1623642108548142 L 0.6831603191389486,1.1623632231528036 L 0.6831602212879929,1.1623622205181954 L 0.6831602248105666,1.1623612131262364 L 0.6831603296709209,1.162360211200454 L 0.6831605348048795,1.1623592249089016 L 0.6831608381306383,1.1623582642609687 L 0.6831612365698931,1.1623573390057997 L 0.6831617260790792,1.162356458533356 L 0.6831623016904078,1.1623556317791206 L 0.6831629575622818,1.162354867133417 L 0.7490122379586777,1.0929846198578679 L 0.749012386714543,1.0929844465146006 L 0.7490121617241678,1.09298440707442 L 0.6669319821917398,1.0828056625385982 L 0.6669317538524063,1.0828056450892836 L 0.6669316225405892,1.0828058327073458 L 0.6161286346270031,1.1632037484110167 z"
     id="path114"
     style="fill:#FF4800" />
  <path
     fill-rule="evenodd"
     fill="#000000"
     stroke="#555555"
     stroke-width="0"
     opacity="1"
     d="M 0.7458507671011014,1.1733530590513863 L 0.745850573774286,1.173353202213937 L 0.7458505810557619,1.1733533204164155 L 0.7458505824206454,1.1733533490659718 L 0.7569255529608049,1.2613270289853171 L 0.7569255933907534,1.2613272601595744 L 0.7569257828639415,1.2613273986371136 L 0.7963164222834026,1.2873170239067315 L 0.7963166151679353,1.287317138214883 L 0.7963166543835638,1.2873169174595203 L 0.8076285598565733,1.1991191474481977 L 0.807628738058281,1.1991181564797508 L 0.8076290150071934,1.1991171884541258 L 0.807629387895674,1.1991162531849173 L 0.8076298529434748,1.1991153601536446 L 0.8076304054360608,1.1991145184136291 L 0.8076310397724041,1.1991137364982152 L 0.8076317495217659,1.19911302233426 L 0.8076325274888893,1.199112383161775 L 0.8076333657869436,1.1991118254605257 L 0.8076342559174784,1.1991113548843448 L 0.807635188856579,1.1991109762038124 L 0.8983838658419157,1.1674972376160275 L 0.8983840703333099,1.1674971550893485 L 0.898383892159474,1.167497025160647 L 0.8259872447076082,1.119887962790185 L 0.8259870410424957,1.1198878426490702 L 0.8259868381805548,1.1198879641414556 L 0.7458507671011014,1.1733530590513863 z"
     id="path116"
     style="fill:#FF4800" />
  <path
     fill-rule="evenodd"
     fill="#000000"
     stroke="#555555"
     stroke-width="0"
     opacity="1"
     d="M 0.4882860858882025,1.1900560834933456 L 0.488286127849547,1.190056130012596 L 0.4882862204515704,1.1900562231483054 L 0.5538492879013884,1.2533581992023424 L 0.5538494622713319,1.25335835225414 L 0.553849692199678,1.2533583212269541 L 0.6107478093224228,1.2429101913854705 L 0.6107480316929558,1.2429101390692705 L 0.610747895524953,1.2429099556465022 L 0.5531311073449678,1.1728233314955625 L 0.55313050686341,1.1728225209333842 L 0.5531299910989637,1.172821653998449 L 0.5531295652999917,1.1728207395125927 L 0.5531292337993783,1.172819786781524 L 0.5531289999704379,1.172818805500131 L 0.553128866192588,1.1728178056538263 L 0.553128833827138,1.1728167974169377 L 0.5531289032034348,1.172815791049174 L 0.5531290736155129,1.1728147967912248 L 0.5531293433292774,1.1728138247605508 L 0.5531297096001505,1.1728128848484307 L 0.5918175162060543,1.0866533387652837 L 0.5918175985258695,1.0866531281747664 L 0.5918173743733798,1.086653157849313 L 0.5167634522928,1.100390270763309 L 0.5167632193688506,1.1003903253548446 L 0.5167631358292087,1.1003905495309592 L 0.48828615153642235,1.1900558539680148 L 0.4882861461267998,1.1900558743918188 L 0.4882860858882025,1.1900560834933456 z"
     id="path118"
     style="fill:#FF4800" />
  <path
     fill-rule="evenodd"
     fill="#000000"
     stroke="#555555"
     stroke-width="0"
     opacity="1"
     d="M 0.3665945003600097,1.2380170791995975 L 0.36659452922273356,1.238017102838806 L 0.3665946712381669,1.2380172080791818 L 0.4414692913505037,1.2910064241348145 L 0.4414694922059542,1.2910065520527951 L 0.44146971889950026,1.2910064791421783 L 0.4990726756883974,1.2693265363853796 L 0.4990728866533342,1.2693264447201855 L 0.49907271598192643,1.2693262905125913 L 0.4282339583663486,1.2114722633823674 L 0.4282332099326699,1.2114715863876075 L 0.4282325335452436,1.2114708374050136 L 0.42823193609290583,1.2114700240627851 L 0.42823142366055844,1.2114691546446086 L 0.4282310014671962,1.2114682380052895 L 0.4282306738127525,1.211467283480569 L 0.4282304440343053,1.2114663007920419 L 0.42823031447209065,1.2114652999481434 L 0.42823028644566696,1.2114642911422175 L 0.4282303602404764,1.2114632846486992 L 0.4282305351049373,1.211462290718472 L 0.4491133740304782,1.120066285512174 L 0.4491134133053142,1.1200660642204134 L 0.4491131993187335,1.120066132939398 L 0.38110564750028625,1.1456421961393455 L 0.3811054330266427,1.1456422887655857 L 0.38110538574804276,1.1456425175521632 L 0.3665945310170339,1.2380168426797225 L 0.36659452974082596,1.2380168545246124 L 0.3665945003600097,1.2380170791995975 z"
     id="path120"
     style="fill:#FF4800" />
  <path
     fill-rule="evenodd"
     fill="#000000"
     stroke="#555555"
     stroke-width="0"
     opacity="1"
     d="M 0.25064343853613225,1.2986730301693434 L 0.2506434599635639,1.2986730444667716 L 0.25064362816648267,1.2986731452859965 L 0.3306380149228474,1.3442033498096362 L 0.33063823015765914,1.3442034585979807 L 0.3306384501562452,1.3442033597974092 L 0.38715912403454855,1.315382356169618 L 0.3871593241543921,1.3153822411318823 L 0.3871591353886803,1.3153821082818178 L 0.30945837716160896,1.2663320049544788 L 0.30945755190934315,1.2663314237553183 L 0.3094567894509637,1.2663307623243045 L 0.3094560975546541,1.26633002740032 L 0.30945548326968736,1.2663292264710184 L 0.30945495285460634,1.266328367696538 L 0.3094545117134589,1.2663274598263632 L 0.30945416434074,1.2663265121101817 L 0.3094539142756003,1.2663255342036461 L 0.3094537640657878,1.2663245360699984 L 0.30945371524169074,1.2663235278785612 L 0.30945376830074556,1.2663225199011294 L 0.31905827397416453,1.1734781306507058 L 0.31905828613799714,1.1734779069534016 L 0.3190580818292063,1.1734779988574795 L 0.25599816678841525,1.2056269762125746 L 0.2559979663474095,1.205627090665279 L 0.2559979421929254,1.2056273202139234 L 0.25064344605632394,1.2986727918954013 L 0.25064344598831373,1.2986727994106646 L 0.25064343853613225,1.2986730301693434 z"
     id="path122"
     style="fill:#FF4800" />
  <path
     fill-rule="evenodd"
     fill="#000000"
     stroke="#555555"
     stroke-width="0"
     opacity="1"
     d="M 0.8284963503752111,1.3214559540612199 L 0.8284964687273879,1.3214561674784988 L 0.8565093175817227,1.366512328687575 L 0.8565094467630507,1.3665125153824726 L 0.8565095701029355,1.3665123247779796 L 0.9017258803030614,1.288499232965711 L 0.9017264292156217,1.2884983872656812 L 0.9017270604953048,1.2884976011362386 L 0.9017277677250674,1.2884968825684948 L 0.901728543715823,1.2884962388667889 L 0.9017293805795206,1.2884956765744353 L 0.9017302698093274,1.2884952014072124 L 0.901731202366102,1.288494818195259 L 0.9017321687702786,1.2884945308339766 L 0.9017331591982278,1.2884943422444315 L 0.9017341635821156,1.2884942543436622 L 0.9017351717122435,1.2884942680251916 L 0.9965040579837058,1.2945680458823072 L 0.9965042854649555,1.2945680491012033 L 0.9965041746194466,1.2945678504272176 L 0.953572040703337,1.2259013269119543 L 0.9535719101003283,1.2259011384224536 L 0.9535716813968552,1.2259011551604548 L 0.858434085654462,1.23739537641141 L 0.8584338485914578,1.2373954169040189 L 0.8584337970842381,1.237395536256742 L 0.8584337927782434,1.2373955458278947 L 0.8284964206785858,1.3214557203699546 L 0.8284963503752111,1.3214559540612199 z"
     id="path124"
     style="fill:#FF4800" />
  <path
     fill-rule="evenodd"
     fill="#000000"
     stroke="#555555"
     stroke-width="0"
     opacity="1"
     d="M 0.8777429582775302,1.415694477419515 L 0.877743014134271,1.4156947022442463 L 0.894657480962137,1.4721879962578694 L 0.894657557541154,1.472188212327981 L 0.8946577240955108,1.4721880548151653 L 0.9577093143016749,1.4063257680506784 L 0.9577100479900672,1.4063250752783043 L 0.9577108477600251,1.406324459973312 L 0.9577117054680332,1.4063239284009348 L 0.9577126123806322,1.4063234859738143 L 0.9577135592633458,1.4063231371968856 L 0.9577145364747092,1.406322885621508 L 0.9577155340644413,1.4063227338093032 L 0.9577165418747622,1.4063226833060716 L 0.9577175496438224,1.4063227346260536 L 0.9577185471101927,1.4063228872466924 L 0.9577195241173491,1.406323139613956 L 1.0474537646065138,1.4344016770585337 L 1.047453982883621,1.4344017337335089 L 1.0474539287605007,1.434401514809697 L 1.0258348695843207,1.362370965243294 L 1.0258347895669124,1.3623707396191436 L 1.0258345573477894,1.3623706814528165 L 0.9330933694744477,1.3439374444841345 L 0.9330932006719467,1.343937419403476 L 0.9330931315912879,1.343937409139479 L 0.9330930597772172,1.3439374900765007 L 0.9330930354538733,1.3439375203376338 L 0.8777430909178076,1.4156942874913916 L 0.8777429582775302,1.415694477419515 z"
     id="path126"
     style="fill:#FF4800" />
  <path
     fill-rule="evenodd"
     fill="#000000"
     stroke="#555555"
     stroke-width="0"
     opacity="1"
     d="M 0.9062433366090633,1.5288002536518919 L 0.9062433569056527,1.5288004908694146 L 0.914547052303085,1.5903339290741632 L 0.9145470944891453,1.5903341555472108 L 0.914547282718126,1.5903340227332183 L 0.9867033986960226,1.5338111040924873 L 0.9867042236479833,1.5338105225754202 L 0.9867051030163648,1.533810027177513 L 0.9867060278429725,1.533809622945423 L 0.9867069887065253,1.5338093139970943 L 0.9867079758186308,1.5338091034798076 L 0.9867089791235006,1.5338089935381192 L 0.9867099884003896,1.5338089852920136 L 0.9867109933677148,1.5338090788254946 L 0.9867119837877955,1.533809273185729 L 0.9867129495711445,1.533809566392754 L 0.9867138808792513,1.533809955459647 L 1.0711157500466888,1.5741871732309816 L 1.071115957022632,1.574187260086239 L 1.0711159378962087,1.5741870364413018 L 1.0614654146731912,1.502710460925784 L 1.061465372348009,1.5027102311662945 L 1.061465159919251,1.5027101339301514 L 0.974469708186936,1.4678318211653942 L 0.9744696930125747,1.4678318159208619 L 0.9744694843447796,1.4678317385762398 L 0.9744694455720206,1.4678317686399887 L 0.9744693268860631,1.4678318702592046 L 0.9062435061902683,1.5288000865401967 L 0.9062433366090633,1.5288002536518919 z"
     id="path128"
     style="fill:#FF4800" />
  <path
     fill-rule="evenodd"
     fill="#000000"
     stroke="#555555"
     stroke-width="0"
     opacity="1"
     d="M 0.9191290261230907,1.650082117394002 L 0.9191290218843245,1.650082358413536 L 0.9211583057547136,1.713792669058552 L 0.9211583246931904,1.7137928993096165 L 0.9211585251499237,1.713792784456165 L 0.9985921605987298,1.6641029256711193 L 0.9985930365711975,1.6641024240849347 L 0.9985939586472321,1.6641020133633124 L 0.9985949174316494,1.6641016976911631 L 0.9985959031552368,1.6641014802849219 L 0.9985969057742947,1.664101363359777 L 0.9985979150729722,1.6641013481070979 L 0.998598920767359,1.6641014346822964 L 0.9985999126102695,1.664101622203244 L 0.9986008804956527,1.6641019087592588 L 0.9986018145615653,1.6641022914305743 L 0.9986027052906559,1.6641027663180892 L 1.0785479841030765,1.7120572267743421 L 1.0785481814477471,1.7120573324410993 L 1.0785481852093601,1.7120571086192211 L 1.0763000325425696,1.641605613992933 L 1.0763000142574584,1.641605383819787 L 1.0762998166945585,1.6416052643086099 L 0.9942345365955562,1.5971280299200663 L 0.9942345273048457,1.5971280254528175 L 0.994234324002435,1.5971279219026946 L 0.9942342957839646,1.5971279389535473 L 0.9942341430003007,1.5971280416940232 L 0.9191292160311352,1.6500819689240822 L 0.9191290261230907,1.650082117394002 z"
     id="path130"
     style="fill:#FF4800" />
</svg>
