<?xml version="1.0" encoding="UTF-8" standalone="no"?>
<svg
   xmlns:dc="http://purl.org/dc/elements/1.1/"
   xmlns:cc="http://creativecommons.org/ns#"
   xmlns:rdf="http://www.w3.org/1999/02/22-rdf-syntax-ns#"
   xmlns:svg="http://www.w3.org/2000/svg"
   xmlns="http://www.w3.org/2000/svg"
   xmlns:sodipodi="http://sodipodi.sourceforge.net/DTD/sodipodi-0.dtd"
   xmlns:inkscape="http://www.inkscape.org/namespaces/inkscape"
   inkscape:version="1.0 (4035a4fb49, 2020-05-01)"
   sodipodi:docname="cable_4.svg"
   id="svg36"
   version="1.1"
   viewBox="0 0 1.9999999858411206 1.7320508956907068"
   height="1.7320508956907068m"
   width="1.9999999858411206m">
  <metadata
     id="metadata42">
    <rdf:RDF>
      <cc:Work
         rdf:about="">
        <dc:format>image/svg+xml</dc:format>
        <dc:type
           rdf:resource="http://purl.org/dc/dcmitype/StillImage" />
      </cc:Work>
    </rdf:RDF>
  </metadata>
  <defs
     id="defs40" />
  <sodipodi:namedview
     inkscape:current-layer="svg36"
     inkscape:window-maximized="0"
     inkscape:window-y="0"
     inkscape:window-x="-7"
     inkscape:cy="0.86602545"
     inkscape:cx="1"
     inkscape:zoom="256"
     showgrid="false"
     id="namedview38"
     inkscape:window-height="1008"
     inkscape:window-width="958"
     inkscape:pageshadow="2"
     inkscape:pageopacity="0"
     guidetolerance="10"
     gridtolerance="10"
     objecttolerance="10"
     borderopacity="1"
     bordercolor="#666666"
     pagecolor="#ffffff" />
  <desc
     id="desc2">Outline to SVG export</desc>
  <path
     id="path4"
     d="M 1.2469193636584e-07,0.8660254702911917 L 7.079438181886508e-09,0.8660256862640061 L 1.2469222448608977e-07,0.866025902237254 L 0.4999998753077484,1.7320506797176514 L 0.5000000035397738,1.732050889559988 L 0.5000002493834302,1.732050895690918 L 1.499999750616167,1.732050895690918 L 1.4999999964601902,1.7320508895599696 L 1.5000001246917185,1.7320506797184068 L 1.999999875307914,0.8660256042138679 L 1.9999999929205587,0.8660253882408219 L 1.9999998753078372,0.8660251722676571 L 1.5000001246911117,2.1597133664053153e-07 L 1.4999999964605415,6.131181116162732e-09 L 1.4999997506187381,2.1119088398110879e-13 L 0.5000001301739592,1.7881388973301887e-07 L 0.499999884330543,1.8494485069267692e-07 L 0.4999997560990096,3.9478646663288e-07 L 1.2469193636584e-07,0.8660254702911917 z M 0.06512429902915946,0.8660306862635871 L 0.06512386296314097,0.8660298404137846 L 0.06512350927479753,0.8660289569433457 L 0.06512324116718542,0.866028043853115 L 0.06512306106832863,0.8660271094121792 L 0.06512297060923025,0.8660261620829796 L 0.06512297060910185,0.866025210444676 L 0.06512306106794463,0.866024263115452 L 0.0651232411665493,0.8660233286744675 L 0.06512350927391504,0.8660224155841646 L 0.06512386296202011,0.8660215321136302 L 0.06512429902781036,0.86602068626371 L 0.5325577001788495,0.056402020816928425 L 0.5325582146732273,0.05640122024779616 L 0.5325588029368653,0.0564004722095001 L 0.5325594596423576,0.056399783476390276 L 0.5325601788424782,0.0563991602857398 L 0.5325609540240399,0.056398608281259165 L 0.5325617781668791,0.05639813246198596 L 0.5325626438074315,0.056397737137012814 L 0.5325635431063227,0.05639742588646355 L 0.5325644679193636,0.056397201529071087 L 0.532565409871305,0.05639706609665051 L 0.5325663604316847,0.05639702081569868 L 1.4674334011490835,0.05639684200397295 L 1.4674343517095692,0.05639688728456961 L 1.4674352936616486,0.05639702271665509 L 1.4674362184748566,0.05639724707373532 L 1.4674371177739414,0.05639755832399766 L 1.46743798341471,0.05639795364871129 L 1.4674388075577849,0.05639842946775402 L 1.4674395827395983,0.056398981472034544 L 1.4674403019399829,0.056399604662516145 L 1.4674409586457478,0.05640029339548879 L 1.4674415469096638,0.05640104143367946 L 1.4674420614043209,0.056401842002737845 L 1.934875700970349,0.8660203882405846 L 1.9348761370364274,0.8660212340904841 L 1.934876490724811,0.8660221175610295 L 1.9348767588324427,0.8660230306513729 L 1.9348769389312976,0.866023965092425 L 1.9348770293903723,0.8660249124217411 L 1.9348770293904551,0.8660258640601584 L 1.9348769389315454,0.8660268113894902 L 1.9348767588328535,0.8660277458305736 L 1.9348764907253808,0.8660286589209637 L 1.934876137037151,0.8660295423915707 L 1.93487570097122,0.8660303882415463 L 1.4674421806126825,1.675649053687776 L 1.4674416661181737,1.6756498542569112 L 1.4674410778543994,1.6756506022951936 L 1.4674404211487677,1.675651291028272 L 1.4674397019485068,1.6756519142188726 L 1.4674389267668062,1.6756524662232846 L 1.4674381026238315,1.67565294204247 L 1.4674372369831499,1.6756533373673368 L 1.4674363376841377,1.6756536486177611 L 1.4674354128709868,1.675653872975011 L 1.4674344709189484,1.6756540084072722 L 1.4674335203584867,1.6756540536880493 L 0.5325664796404506,1.6756540536880493 L 0.5325655290801332,1.675654008407286 L 0.5325645871282352,1.6756538729750659 L 0.5325636623152166,1.6756536486178837 L 0.5325627630163254,1.6756533373675522 L 0.5325618973757497,1.6756529420428021 L 0.5325610732328625,1.6756524662237544 L 0.5325602980512277,1.6756519142194994 L 0.5325595788510085,1.6756512910290717 L 0.5325589221453919,1.675650602296179 L 0.5325583338816041,1.6756498542580915 L 0.5325578193870518,1.6756490536891562 L 0.06512429902915946,0.8660306862635871 z"
     opacity="1"
     stroke-width="0"
     stroke="#555555"
     fill="#000000"
     fill-rule="evenodd" />
  <path
     style="fill:#ff0000"
     id="path10"
     d="M 0.1799999034671132,0.554256494714826 L 0.18000009865037078,0.554256622529896 L 0.2008967956156592,0.5665260776254187 L 0.2008969221654638,0.5665261531885185 L 0.22146516638391894,0.5790140242646203 L 0.2214652930105751,0.5790141024405399 L 0.24170308904385077,0.5917173224743151 L 0.2417032156623256,0.5917174032844079 L 0.26161068283512695,0.6046341245311472 L 0.2616108093002504,0.604634207954579 L 0.28118830529667527,0.6177625230304199 L 0.2811884316393919,0.6177626091611289 L 0.30043607574452674,0.6311008491118513 L 0.3004362017845043,0.6311009379010407 L 0.30693926554532586,0.6357574572458359 L 0.3193542325379213,0.6446471953896167 L 0.3193543582122984,0.6446472868646265 L 0.33794337171795324,0.65840001213898 L 0.3379434969744255,0.6584001063352517 L 0.3436790160150151,0.662784154327603 L 0.3562035529205322,0.6723575112438966 L 0.3562036776450295,0.6723576081493257 L 0.3631521797366003,0.6778448334028918 L 0.37413531256405597,0.6865182025722263 L 0.37413543668875626,0.6865183022074356 L 0.39173894870768416,0.7008805364326705 L 0.3917390720938774,0.7008806387582404 L 0.3967399848567013,0.7050960546522648 L 0.40901499773483607,0.7154430226638853 L 0.4090151203590671,0.7154431277326561 L 0.4245513970466488,0.7289742159592957 L 0.42596375775247364,0.7302042904296886 L 0.42596387942612945,0.7302043981505356 L 0.4425858247245482,0.745162909151541 L 0.4425859454217798,0.7451630195700804 L 0.45888161591288174,0.7603176271569851 L 0.45888173555005257,0.7603177402677371 L 0.4748515485860328,0.7756673119936324 L 0.47485166700858794,0.7756674277181855 L 0.49049621877007843,0.7912108311589309 L 0.4904963358637574,0.7912109494481467 L 0.5058162224633697,0.8069470521189308 L 0.5058163382085106,0.8069471730165959 L 0.5208118577459382,0.8228749616522802 L 0.5208119720112283,0.8228750850851122 L 0.5329443495150583,0.8362039817977359 L 0.5354836610512609,0.8389937252900178 L 0.535483773721889,0.8389938511928408 L 0.5408643927568092,0.8451095676568837 L 0.5498321092039292,0.8553024489526202 L 0.549832220189884,0.8553025772803728 L 0.5638576790346739,0.8718003577749993 L 0.5638577882586199,0.8718004884922244 L 0.577560787799653,0.8884867961369016 L 0.5775608951380282,0.8884869291456657 L 0.5831362895435234,0.8955178065399244 L 0.5909418527079097,0.9053610487593182 L 0.5909419580832794,0.9053611840089982 L 0.6040012909891278,0.9224225791995021 L 0.6040013943296659,0.922422716641435 L 0.6167394006772741,0.9396709106373383 L 0.616739501890261,0.9396710501884096 L 0.6291564202018661,0.9571055662559395 L 0.6291565191734074,0.957105707792111 L 0.6371086897819273,0.9686895928648372 L 0.6412527667571127,0.9747262479840885 L 0.6412528634482265,0.9747263914785701 L 0.645273804931677,0.9808065278331993 L 0.6530284999746869,0.992532538630454 L 0.6530285942937818,0.99253268397319 L 0.6644838582704397,1.0105243189881081 L 0.6644839501314252,1.0105244660643502 L 0.675618901239213,1.0287012314200696 L 0.6756189905753222,1.0287013801336902 L 0.6864337480731149,1.0470631566931883 L 0.6864338348510568,1.0470633069962796 L 0.689509783957162,1.0524993839186914 L 0.6969282795850897,1.065609975638804 L 0.6969283637285347,1.065610127401461 L 0.7001552074834866,1.0715510935718813 L 0.7071024361568204,1.0843416882398482 L 0.7071025176161816,1.0843418413667658 L 0.716955979395028,1.1032581753407267 L 0.7169560580719757,1.103258329628332 L 0.726488909227533,1.1223594368113103 L 0.7264889851635211,1.1223595923186658 L 0.7357006892852982,1.1416454727950673 L 0.7357007623812879,1.1416456292919286 L 0.7445910215023821,1.1611162832160438 L 0.7445910917420753,1.1611164406254304 L 0.7531594886528379,1.1807719873018474 L 0.7531595560074311,1.1807721455099098 L 0.7614054946809439,1.2006124658277735 L 0.7614055591396557,1.2006126247518365 L 0.7620434052992131,1.2022248004141938 L 0.7693284435584091,1.22063795726218 L 0.7693285050758285,1.220638116719348 L 0.7769277392166434,1.240848461560565 L 0.7769277977901056,1.2408486214577017 L 0.7842026663802216,1.2612439786727305 L 0.7842027220447085,1.2612441390177025 L 0.7911521522234854,1.2818245087641609 L 0.7911522049037258,1.2818246692319941 L 0.7977755410200182,1.3025899324220973 L 0.79777559078444,1.3025900930971641 L 0.803141652396817,1.3204455712929701 L 0.804071759930667,1.3235404881966653 L 0.8040718067632526,1.323540648898799 L 0.8051522005441537,1.327366861002872 L 0.810039736063257,1.3446760568654046 L 0.8100397799646555,1.344676217441055 L 0.8136280312929496,1.3582436930084651 L 0.8156784561214433,1.3659965191675583 L 0.8156784971253324,1.3659966795666427 L 0.8190924629788782,1.379827576869834 L 0.820986728013484,1.3875017558987335 L 0.8209867661514081,1.38750191606136 L 0.8217551862641973,1.390851057801931 L 0.8259632404504357,1.4091917671185579 L 0.8259632757293992,1.409191926865089 L 0.8306067417219056,1.431066195160088 L 0.8306067741733175,1.431066354389478 L 0.834915980118571,1.4531248015536942 L 0.8349160097957371,1.4531249602673322 L 0.8388894655394723,1.475367467165953 L 0.8388894924678372,1.4753676252130068 L 0.8425257674634687,1.4977938343309174 L 0.8425257916865648,1.4977939916370024 L 0.8458233957750676,1.5204035454315543 L 0.8458234173355126,1.5204037019005858 L 0.8487808603569703,1.5431962428437795 L 0.8487808792998448,1.543196398372121 L 0.8513966710827652,1.566171330447519 L 0.851396687471426,1.5661714850790707 L 0.8536690398268548,1.589328212308714 L 0.8536690537006788,1.5893283658622213 L 0.855596416859575,1.612666292326208 L 0.85559642827401,1.612666444730008 L 0.8571772524550569,1.6361850936010411 L 0.8571772614738835,1.6361852449072527 L 0.8584096988775127,1.6598841394002921 L 0.8584097055512869,1.659884289452311 L 0.8592920871921503,1.6837622376003138 L 0.8592920915799457,1.6837623863031799 L 0.8598228676748403,1.7078189112895732 L 0.8598228698402487,1.7078190586970972 L 0.8600001913310545,1.7320506513553062 L 0.8600002044306129,1.7320508842962759 L 0.8600004374612029,1.732050895690918 L 1.1399998582738644,1.732050895690918 L 1.1400000932228436,1.7320508840947564 L 1.1400001030994138,1.7320506490672132 L 1.1397926818625845,1.70370617943166 L 1.1397926787293324,1.7037060998475768 L 1.1391702924434692,1.6755031697612242 L 1.139170288118075,1.6755030899838512 L 1.1381330547439106,1.6474417806870116 L 1.138133049209633,1.6474417007418922 L 1.1366810879733449,1.6195246348222325 L 1.1366810812135784,1.619524554731519 L 1.1348143921293576,1.5917536394734189 L 1.1348143841290579,1.5917535592711551 L 1.1325330864223264,1.5641314172873715 L 1.132533077166047,1.5641313369960257 L 1.1298371708445778,1.53666035236547 L 1.1298371603202593,1.5366602720289109 L 1.126726883819553,1.5093428289829942 L 1.1267268720135062,1.509342748623223 L 1.1232023445463757,1.4821814696574895 L 1.1232023314486974,1.4821813893166778 L 1.1192639106646836,1.4551790163186582 L 1.1192638962618857,1.4551789360118288 L 1.1149115821529294,1.428337733788997 L 1.1149115664385822,1.428337653566345 L 1.1101458358686254,1.4016606024594198 L 1.110145818830613,1.4016605223356637 L 1.1049667909877405,1.375150363952678 L 1.1049667726235586,1.375150283982933 L 1.0993750435896574,1.3488096410782593 L 1.0993750238885278,1.3488095612751672 L 1.0933708320600222,1.32264129469268 L 1.0933708110199405,1.3226412151026814 L 1.0869547524588743,1.2966483051146722 L 1.0869547300748232,1.2966482257660255 L 1.0801272816139191,1.270833414125721 L 1.0801272578836063,1.270833335053129 L 1.072889134784657,1.2451999596118113 L 1.0728891097051083,1.2451998808440328 L 1.065240788786976,1.2197505641112685 L 1.065240762360733,1.2197504856900625 L 1.0571830781154035,1.1944882079708539 L 1.0571830503388409,1.1944881299162422 L 1.0487167179721553,1.169416348093558 L 1.0487166888533763,1.1694162704548248 L 1.0398426620764212,1.144537607242534 L 1.0398426316150224,1.144537530041139 L 1.030561864078885,1.1198553232097967 L 1.0305618322792534,1.1198552464781133 L 1.0208752776431866,1.0953725954201228 L 1.020875244512359,1.0953725191930723 L 1.0107839756553945,1.0710924041254586 L 1.0107839412006272,1.071092328434598 L 1.0002891502056204,1.0470178487702977 L 1.00028911443504,1.047017773646062 L 0.9893921126066864,1.0231521480373975 L 0.9893920755266917,1.0231520735045179 L 0.9780939952940846,0.9994983416552267 L 0.9780939569216607,0.9994982677560466 L 0.9663964076659977,0.9760594696300507 L 0.9663963680050854,0.9760593963788814 L 0.9543006013307967,0.9528386908276024 L 0.9543005604019482,0.9528386182673725 L 0.9418083048959351,0.9298389856389784 L 0.9418082627071462,0.9298389137867268 L 0.9289209488076925,0.9070633341768073 L 0.9289209053792172,0.9070632630686205 L 0.9156403808583284,0.8845147763772688 L 0.9156403362021757,0.8845147060327389 L 0.901968210337139,0.8621962328088535 L 0.9019681644721107,0.8621961632566969 L 0.8879062253614624,0.840110624074826 L 0.8879061783111184,0.8401105553472811 L 0.8734564525678248,0.8182606921223596 L 0.8734564043420864,0.818260624230109 L 0.8586206203751308,0.7966494170073248 L 0.8586205710047942,0.7966493499886045 L 0.8434008746363639,0.7752794214762248 L 0.8434008241379392,0.7752793553463763 L 0.8277991822812073,0.7541533877049568 L 0.8277991306753875,0.7541533224841162 L 0.8118175102198187,0.733273997850465 L 0.8118174575357927,0.7332739335669329 L 0.7954580638673323,0.7126437553752324 L 0.7954580101273638,0.712643692046216 L 0.7787229889768919,0.6922651636597851 L 0.7787229342058137,0.692265101304125 L 0.7616144909155352,0.6721407260985728 L 0.7616144351394675,0.6721406647347798 L 0.7441346558255633,0.652272707650458 L 0.7441345990755822,0.6522726473002624 L 0.7262858083332894,0.6326633733499738 L 0.7262857506319051,0.6326633140242737 L 0.7080701537515488,0.6133150477155186 L 0.7080700951332459,0.6133149894359738 L 0.6894899571058617,0.5942297573649445 L 0.6894898975960503,0.5942297001421468 L 0.6705474237482392,0.575409588442147 L 0.6705473633764888,0.5754095322896418 L 0.6512448186115029,0.5568566270717118 L 0.651244757417381,0.5568565720100259 L 0.6315845259780029,0.5385726614927346 L 0.6315844639809375,0.5385726075227696 L 0.6115686915373089,0.5205596585843626 L 0.6115686287732933,0.5205596057209478 L 0.5911995206570074,0.5028194064888285 L 0.591199457164196,0.5028193547462295 L 0.5704793975625344,0.4853536039785517 L 0.5704793333703928,0.4853535533622452 L 0.5494103488261713,0.46816371138026397 L 0.5494102839613605,0.4681636618930093 L 0.5279946393658899,0.45125154658892463 L 0.5279945738685338,0.45125149824256267 L 0.506234534188321,0.4346186593547649 L 0.506234468092081,0.43461861215447517 L 0.48413200025255854,0.41826633118456924 L 0.48413193359031276,0.4182662851338628 L 0.4616892429559314,0.4021960224122568 L 0.4616891757540737,0.40219597750955227 L 0.4389083483764706,0.3864092528968665 L 0.4389082806830979,0.3864092091537343 L 0.41579140278024895,0.37090715520399675 L 0.41579133461768475,0.3709071126138765 L 0.3923403730908429,0.35569104061378365 L 0.3923403044881342,0.3556909991743979 L 0.3685572261807585,0.3407622799827455 L 0.36855715718961796,0.34076223970395353 L 0.34444392913370925,0.32612182707235804 L 0.34444385977083397,0.3261217879422473 L 0.3200000267127867,0.3117695507439798 L 0.31999981823539053,0.31176944178342125 L 0.3199996907180106,0.31176963945701036 L 0.3106216192389508,0.3280128836382317 L 0.3106216192297256,0.32801288365515185 L 0.28499990701695127,0.37239104509319493 L 0.28499990701682487,0.3723910450934268 L 0.24999994040117116,0.43301284312194555 L 0.21499991418339506,0.49363458154146356 L 0.21499991417437408,0.49363458155800904 L 0.19440389500727287,0.5293080374354152 L 0.1893780827605323,0.5380129814004111 L 0.18937808275521292,0.5380129814101674 L 0.180000010114324,0.5542562872070548 L 0.1799999034671132,0.554256494714826 z"
     opacity="1"
     stroke-width="0"
     stroke="#555555"
     fill="#000000"
     fill-rule="evenodd" />
  <path
     style="fill:#00ff00"
     id="path6"
     d="M 0.1874998963146227,0.5412661392231354 L 0.18750009149861877,0.5412662670378878 L 0.2085868676475033,0.5536472424080945 L 0.20858699425239777,0.5536473180041288 L 0.229345138849656,0.5662505836601092 L 0.22934526546074624,0.566250661826863 L 0.24977290229836105,0.5790730911566347 L 0.24977302891085917,0.5790731719631429 L 0.2698703368852755,0.5921130960156579 L 0.26987046334041076,0.5921131794325635 L 0.28963756171759136,0.6053686312195957 L 0.2896376880587778,0.6053687173491976 L 0.3090745769198483,0.6188380875245882 L 0.3090747029439536,0.6188381763023288 L 0.31703591311713547,0.6245387726304509 L 0.32818162081170105,0.6325196171221583 L 0.3281817465114123,0.6325197086154474 L 0.3469589318666822,0.6464116703295414 L 0.3469590571259592,0.6464117645281002 L 0.365406688890209,0.6605125782126504 L 0.3654068136099118,0.6605126751145121 L 0.38352501107492476,0.6748206122253892 L 0.38352513518883785,0.6748207118518984 L 0.40131431567579595,0.689334401479329 L 0.40131443907336556,0.6893345038143006 L 0.4187749006865241,0.7040524558359228 L 0.41877502331551475,0.7040525609089632 L 0.43590682578295264,0.7189732852403519 L 0.43590694745072434,0.7189733929561702 L 0.45271068692160205,0.7340955187122904 L 0.45271080761293325,0.734095629125442 L 0.4691867821467959,0.7494179045710325 L 0.469186901804824,0.7494180177017511 L 0.48533523076343565,0.7649392508151005 L 0.4853353491431063,0.764939366497638 L 0.4945644338649732,0.7741087178436552 L 0.5011566286754806,0.7806582460125446 L 0.5011567458123656,0.7806583643453124 L 0.5166512143977797,0.7965738769769781 L 0.5166513301380037,0.7965739978700712 L 0.5318193455240877,0.812685070795043 L 0.5318194597810211,0.8126851942191926 L 0.5362539064851595,0.8175569826131639 L 0.546661320092218,0.8289908142059103 L 0.5466614327506181,0.8289909400950365 L 0.5611775553138536,0.8454902131207137 L 0.5611776662995146,0.8454903414478468 L 0.5753683492107516,0.8621824330742992 L 0.5753684584523657,0.8621825638127405 L 0.5779944571464259,0.8653802848134389 L 0.589233821047002,0.879066639669843 L 0.589233928366006,0.8790667726546326 L 0.6027744475751375,0.8961420579513373 L 0.602774552958906,0.8961421932115854 L 0.615990467257406,0.9134081515309973 L 0.6159905706078493,0.9134082889863184 L 0.6288819397126778,0.9308642051772189 L 0.628882040904082,0.930864344698456 L 0.6414491629154256,0.9485096823880268 L 0.6414492619174589,0.9485098239679747 L 0.6536921965313489,0.9663441660188884 L 0.6536922931946656,0.9663443094723523 L 0.6656112192954866,0.9843670599164717 L 0.6656113136247467,0.984367205274618 L 0.677206231285405,1.0025781853842979 L 0.6772063231342658,1.002578332440789 L 0.6884772324321173,1.020976946277469 L 0.6884773217887465,1.02097709502518 L 0.6994241035674488,1.0395631042453721 L 0.6994241903401488,1.0395632545398292 L 0.7100468446724346,1.0583365400544895 L 0.7100469288065892,1.0583366918003247 L 0.712170938646658,1.0622472115316888 L 0.7203452173172551,1.077296896061399 L 0.7203452987801514,1.0772970491946732 L 0.7303188639076168,1.0964439339144259 L 0.7303189426017631,1.0964440882363307 L 0.7399677247898234,1.1157776535294308 L 0.7399678007128319,1.1157778090109849 L 0.7492912635533728,1.1352976973431002 L 0.7492913366425134,1.1352978538251817 L 0.7582891225456375,1.1550039461028683 L 0.7582891927861947,1.1550041035137635 L 0.7595537848752484,1.1579050179290102 L 0.7669607653340391,1.1748962806233996 L 0.766960832693646,1.1748964388431111 L 0.7712239488456879,1.1851538122537053 L 0.7753056554762632,1.194974700910998 L 0.7753057199237952,1.1949748598069638 L 0.7833231373103247,1.2152389685284626 L 0.783323198835777,1.215239128005693 L 0.791012495586635,1.2356889642880278 L 0.7910125541684402,1.2356891242082915 L 0.7983730150299523,1.2563245689356954 L 0.7983730706839982,1.256324729250776 L 0.8054038016001435,1.2771457825590975 L 0.805403854286231,1.2771459430445806 L 0.8121040207865691,1.2981521281988906 L 0.8121040705515415,1.2981522888761592 L 0.8153366119222024,1.3089085485044094 L 0.8184726593447285,1.3193437251704698 L 0.8184727061701046,1.3193438858476005 L 0.824508703973656,1.3407202157866742 L 0.8245087478829422,1.3407203763910134 L 0.8281352351725929,1.3544324936606242 L 0.8302110817991883,1.3622814808772166 L 0.8302111227982989,1.3622816412577936 L 0.8355787199146327,1.3840271627354215 L 0.8355787580530255,1.3840273228995905 L 0.8406102474397379,1.4059569038408832 L 0.8406102827172669,1.405957063580249 L 0.8453045914715445,1.4280707041285998 L 0.8453046239245954,1.4280708633653212 L 0.8471310331618421,1.4374200672830837 L 0.8496604407006183,1.4503678483109521 L 0.8496604703790493,1.4503680070312142 L 0.853676364630835,1.4728480980491796 L 0.8536763915563762,1.472848256078996 L 0.8573510519435138,1.4955109764306118 L 0.8573510761684441,1.4955111337475413 L 0.8606830125308407,1.5183560066699202 L 0.8606830340924821,1.5183561631475961 L 0.8615555144461762,1.5250802510682728 L 0.863670815877468,1.54138259271129 L 0.8636708348205674,1.5413827482421645 L 0.8663130910667471,1.5645902576491704 L 0.8663131074535442,1.5645904122627743 L 0.8686081691798577,1.5879782863191634 L 0.8686081830529783,1.5879784398620018 L 0.8705545600916841,1.6115459633991096 L 0.8705545715096749,1.6115461158507591 L 0.8721506544794405,1.6352926928724385 L 0.8721506634965245,1.6352928441526742 L 0.8733948430165178,1.6592175210660194 L 0.8733948496893423,1.6592176710922553 L 0.874169395287561,1.6801760125309908 L 0.874285575979966,1.683319732701391 L 0.8742855803688596,1.6833198814364778 L 0.8743992823149889,1.6884733743841491 L 0.8748212440441497,1.707598612512841 L 0.8748212462096076,1.7075987599396543 L 0.8750001174219154,1.732050651354903 L 0.8750001305209169,1.732050884296241 L 0.8750003635518374,1.732050895690918 L 1.1249998725786325,1.732050895690918 L 1.1250001075279017,1.7320508840947257 L 1.1250001174039788,1.7320506490668717 L 1.1247942458885074,1.7039264781583043 L 1.1247942427557454,1.7039263985852466 L 1.1241768632591649,1.6759456746541923 L 1.1241768589338659,1.6759455948741977 L 1.123147970211022,1.648108399065051 L 1.1231479646761953,1.6481083191121808 L 1.1217076859487418,1.6204171547411335 L 1.1217076791896674,1.6204170746586093 L 1.119856368107136,1.5928739684229316 L 1.1198563601055813,1.5928738882089561 L 1.1175938974613997,1.5654813432284505 L 1.1175938882065974,1.565481262950252 L 1.1149207508640657,1.5382413059936473 L 1.1149207403388939,1.5382412256498297 L 1.1118369282978289,1.511156479103089 L 1.111836916492072,1.5111563987453465 L 1.1083427873978087,1.484229246859056 L 1.1083427742989598,1.4842291665116636 L 1.1044385665711163,1.4574619933651052 L 1.1044385521707167,1.4574619130710442 L 1.1001247426773133,1.4308572221882758 L 1.1001247269602101,1.4308571419513334 L 1.0954013156705942,1.4044176748443153 L 1.0954012986354476,1.4044175947337423 L 1.0902690008533695,1.3781458550441568 L 1.090268982486199,1.3781457750612571 L 1.0847279173858198,1.3520443851182038 L 1.084727897686162,1.352044305321766 L 1.0787787805523898,1.3261160070579823 L 1.0787787595127551,1.3261159274693328 L 1.072422067178014,1.3003633434112463 L 1.0724220447943387,1.3003632640633787 L 1.065658373309695,1.2747893744224474 L 1.0656583495780638,1.2747892953453965 L 1.0584881757648639,1.249396722632055 L 1.0584881506864907,1.2493966438680393 L 1.0509123090295778,1.2241883683656294 L 1.0509122826012811,1.2241882899386904 L 1.0429313691169908,1.1991670533301857 L 1.0429313413433612,1.1991669752838352 L 1.0345463097309036,1.1743356386608286 L 1.0345462806107502,1.1743355610180473 L 1.0257579653127555,1.149697223729632 L 1.0257579348499557,1.149697146525095 L 1.0165671703079426,1.12525455031107 L 1.0165671385110295,1.1252544735858514 L 1.0069751168584309,1.1010104795738773 L 1.0069750837268603,1.101010403344561 L 0.9969826989771654,1.0769681108121836 L 0.9969826645212628,1.0769680351187838 L 0.9865910491623165,1.0531303050924674 L 0.9865910133915712,1.053130229968103 L 0.9758014787283631,1.0295000426854528 L 0.9758014416501274,1.0294999681559804 L 0.9646151797493252,1.0060801845782035 L 0.9646151413749812,1.0060801106752546 L 0.9530335231338285,0.9828737110172658 L 0.9530334834748637,0.9828736377696446 L 0.9410578797821798,0.9598834830210307 L 0.9410578388517968,0.9598834104579812 L 0.9286897398091101,0.9371124212233813 L 0.9286896976211051,0.9371123493725112 L 0.9159305933251006,0.9145633270404069 L 0.9159305498949183,0.9145632559295951 L 0.9027820496417993,0.8922390614799377 L 0.9027820049879836,0.8922389911391491 L 0.8892458373304147,0.8701423664263054 L 0.8892457914651049,0.870142296873504 L 0.875323506048392,0.848276043197227 L 0.8753234589957294,0.8482759744664392 L 0.8610169631858976,0.8266428336853959 L 0.8610169149631186,0.826642765797347 L 0.8463279372604812,0.8052453008687342 L 0.8463278878884257,0.8052452338475534 L 0.8312582760079794,0.7840860673471064 L 0.831258225509457,0.7840860012172326 L 0.8158100059998425,0.7631678153557687 L 0.8158099543954789,0.7631677501367229 L 0.799984915354286,0.7424929290568207 L 0.7999848626692352,0.7424928647719587 L 0.783785030633071,0.72206391185809 L 0.7837849768924117,0.7220638485283393 L 0.7672123783964988,0.7018831479544627 L 0.7672123236253117,0.7018830855988053 L 0.7502689851877046,0.6819529619147428 L 0.7502689294143992,0.6819529005539083 L 0.7329569372042746,0.6622755591578289 L 0.7329568804509493,0.6622754988040721 L 0.7152782609464785,0.6428532642018676 L 0.7152782032466769,0.6428532048779276 L 0.6972351022236721,0.6236881632642749 L 0.6972350436036423,0.6236881049831445 L 0.6788295471636691,0.6047823424741814 L 0.6788294876568125,0.6047822852542639 L 0.6600637416006935,0.5861377092543066 L 0.6600636812272407,0.58613765310017 L 0.6409396523698532,0.567756349650483 L 0.64093959117499,0.5677562945882146 L 0.6214596041756107,0.5496400519309456 L 0.6214595421791477,0.5496399979615796 L 0.6016255639016549,0.531790663772935 L 0.6016255011383956,0.5317906109101492 L 0.581439617701718,0.5142099733137543 L 0.5814395542092524,0.5142099215713818 L 0.5609039709958423,0.4968996495304295 L 0.5609039068011762,0.4968995989121977 L 0.5400205907086965,0.4798613017249436 L 0.540020525845518,0.47986125223903325 L 0.5187915629956653,0.4630965690228208 L 0.5187914975000486,0.4630965206776861 L 0.49721897405216015,0.4466069713717059 L 0.4972189079524386,0.4466069241689399 L 0.47530461195404544,0.43039390943397615 L 0.47530454529470545,0.4303938633853083 L 0.45305068218919037,0.41445878400900804 L 0.45305061498603344,0.414458739105401 L 0.43045909196376225,0.39880320431799976 L 0.43045902426836197,0.39880316057363663 L 0.40753174872608183,0.38342830292560337 L 0.4075316805657598,0.3834282603369423 L 0.3842705598222948,0.368335361329139 L 0.38427049122420703,0.36833531989239265 L 0.3606772537471951,0.35352566100291916 L 0.36067718474972166,0.353525620720347 L 0.33675385706753913,0.33900054306016225 L 0.3367537877067363,0.3390005039312812 L 0.312500093470181,0.324759906235738 L 0.31249988499261466,0.32475979727509646 L 0.31249975747540826,0.32475999494902885 L 0.30412650108857636,0.3392629027276531 L 0.2812498807981802,0.37888628243106226 L 0.28124988079339525,0.37888628243983835 L 0.24999988079190252,0.4330128729322767 L 0.24999988080276014,0.43301287291347074 L 0.21874988080085214,0.4871394336047943 L 0.21874988079435587,0.4871394336167092 L 0.1958733201056321,0.5267629027315709 L 0.18750000296189903,0.5412659317150187 L 0.1874998963146227,0.5412661392231354 z"
     opacity="1"
     stroke-width="0"
     stroke="#555555"
     fill="#000000"
     fill-rule="evenodd" />
  <path
     style="fill:#0000ff"
     id="path8"
     d="M 0.19999988439360333,0.5196155268688123 L 0.2000000795775525,0.5196156546838242 L 0.22140353520840908,0.5321825965478586 L 0.22140366180509088,0.5321826721390865 L 0.24247830707686668,0.54497810317634 L 0.24247843367469157,0.5449781813347832 L 0.26322263078697045,0.5579992729497821 L 0.26322275740009293,0.5579993537564315 L 0.2836365063994377,0.5712445561836271 L 0.2836366329216453,0.5712446396452526 L 0.3037196955319087,0.58471216476464 L 0.30371982178534696,0.5847122508346707 L 0.31709383737779817,0.5939800943092991 L 0.3234721980499288,0.5984001316515165 L 0.3234723241229129,0.5984002204635059 L 0.34289389489234606,0.6123070264318998 L 0.3428940205800039,0.61230711791666 L 0.36198490517940046,0.6264311801164246 L 0.361985030453081,0.6264312743260984 L 0.380745109777348,0.6407709834356947 L 0.3807452344590824,0.6407710803080463 L 0.3991745681647711,0.6553246481565497 L 0.39917469232568575,0.6553247478209017 L 0.41727328051326285,0.6700909823190145 L 0.41727340388558887,0.6700910846334578 L 0.4350413062817531,0.6850681976717826 L 0.4350414288854941,0.6850683027229018 L 0.4524787051526802,0.7002549829758111 L 0.4524788268543106,0.7002550907214398 L 0.469585596322176,0.7156499673163806 L 0.46958571701422513,0.7156500777305332 L 0.48636203936637123,0.7312517201581563 L 0.48636215899758956,0.7312518332634745 L 0.4927457718399807,0.7373875226384021 L 0.5028080939466147,0.7470590494620195 L 0.5028082123541349,0.7470591651717409 L 0.518923938822682,0.7630706438784667 L 0.5189240559503451,0.7630707622021943 L 0.5347096336263792,0.7792853113422612 L 0.5347097493646449,0.7792854322334013 L 0.5407575430733026,0.7857092451404106 L 0.5501652379503105,0.7957018597511928 L 0.550165352213383,0.7957019831821478 L 0.5652908710292707,0.8123192758563301 L 0.5652909836813628,0.8123194017385834 L 0.5800867116304964,0.8291364867270268 L 0.5800868226275987,0.8291366150676774 L 0.5812169463388314,0.8304659524246768 L 0.5945527001840251,0.8461524791243327 L 0.594552809414134,0.8461526098493003 L 0.6086888963107043,0.8633663590031267 L 0.608689003630244,0.8633664919886541 L 0.6162496949908168,0.8729009156096806 L 0.6224954787551318,0.880777172609781 L 0.6224955841564511,0.8807773078930481 L 0.6359723283933078,0.8983841451917712 L 0.6359724317019132,0.8983842825913705 L 0.6491195643500378,0.9161863825772287 L 0.6491196655568299,0.9161865221189557 L 0.66193706745547,0.9341832291672052 L 0.6619371664742948,0.9341833707712491 L 0.6744246589447562,0.9523740293867256 L 0.674424755593926,0.952374172819344 L 0.6865824579026218,0.9707579485984793 L 0.6865825522435606,0.9707580939747178 L 0.6984101068399282,0.9893345101723026 L 0.6984101986638164,0.9893346571884858 L 0.7099077248165272,1.0081030582349986 L 0.7099078142056399,1.008103207036711 L 0.721074775533909,1.0270631757832402 L 0.7210748622919723,1.0270633260528652 L 0.728901072107537,1.0408944915593499 L 0.7319111396793486,1.0462141474020326 L 0.7319112238113343,1.0462142991438945 L 0.7424164596499435,1.0655554962968796 L 0.7424165411123997,1.0655556494291598 L 0.7525903778511597,1.0850869841172133 L 0.7525904565363397,1.0850871384209557 L 0.7624324769775914,1.1048077762678488 L 0.7624325529189497,1.1048079317868045 L 0.7719422802678944,1.124717872900025 L 0.7719423533525288,1.1247180293729173 L 0.7811193108169873,1.1448165586296664 L 0.781119381063377,1.1448167160542049 L 0.7899629130187128,1.1651034759281305 L 0.7899629803588815,1.165103634102011 L 0.7984726099862661,1.1855782670636685 L 0.7984726744479292,1.185578425994007 L 0.8066475076995884,1.2062404553192858 L 0.806647569215381,1.206240614771231 L 0.8144870696698839,1.2270898021713066 L 0.8144871282627716,1.2270899621216902 L 0.8219903422489969,1.248125711644065 L 0.8219903978920717,1.248125871927364 L 0.8281918861268385,1.266491054063223 L 0.8291565505608333,1.2693478260765891 L 0.8291566032574389,1.2693479865939221 L 0.8309319283732942,1.2749139645608307 L 0.8359848005336223,1.2907556686311532 L 0.8359848502912728,1.2907558292848336 L 0.8424741980979713,1.3123490008962329 L 0.8424742449238629,1.3123491615744858 L 0.8486236703666563,1.3341271076115127 L 0.8486237142750404,1.3341272682117764 L 0.8544322040613289,1.3560896311588344 L 0.8544322450655584,1.3560897915591572 L 0.8555548202335375,1.3606376451236821 L 0.8598987262873696,1.3782359754577198 L 0.8598987644216642,1.378236135604471 L 0.8630349803370664,1.3919051550726471 L 0.8650220449613591,1.4005656637132011 L 0.8650220802423876,1.4005658234681169 L 0.8673847057060373,1.41169554623957 L 0.8698010275920681,1.4230782190888562 L 0.869801060042449,1.4230783783122551 L 0.8742345416695404,1.4457728070245557 L 0.8742345713522017,1.4457729657676242 L 0.8757921616348402,1.4544920818274838 L 0.8783211567133318,1.4686489508385234 L 0.8783211836341729,1.468649108840723 L 0.8820597998066346,1.4917060543234415 L 0.8820598240327582,1.4917062116469721 L 0.8854489808541176,1.514943283132664 L 0.885449002414839,1.5149434396023127 L 0.8884874481479458,1.5383600411731024 L 0.8884874670916644,1.5383601967072404 L 0.891173890378375,1.5619553747146167 L 0.8911739067668616,1.5619555293434648 L 0.8933408470862656,1.584037846533828 L 0.893506757836142,1.5857285685953704 L 0.8935067717111006,1.5857287221610175 L 0.8935503989855377,1.586256995550595 L 0.8954846796085446,1.6096787883234804 L 0.8954846910225605,1.6096789407218817 L 0.8971063443863908,1.6338049609401193 L 0.8971063534037603,1.6338051122178008 L 0.8980253149558198,1.651475056107463 L 0.8983702024550004,1.6581066096747583 L 0.8983702091298994,1.6581067597448826 L 0.8992747040931125,1.682582304043008 L 0.8992747084815012,1.6825824527645497 L 0.8997024157406426,1.7019681295904892 L 0.8998185379932618,1.707231328690956 L 0.8998185401587269,1.707231476119321 L 0.9000000935801021,1.7320506513548746 L 0.9000001066790635,1.7320508842962383 L 0.900000339710013,1.732050895690918 L 1.0999998964207913,1.732050895690918 L 1.1000001313698085,1.7320508840947524 L 1.100000141246312,1.7320506490671623 L 1.0997970115439333,1.704293762007074 L 1.0997970084108626,1.7042936824263692 L 1.0991877351462995,1.6766829840920536 L 1.0991877308212044,1.6766829043172042 L 1.0981726703762058,1.6492194296565053 L 1.0981726648410852,1.649219349699788 L 1.096751936436877,1.6219047674586222 L 1.0967519296778736,1.621904687377576 L 1.0949261293812511,1.594741262701945 L 1.0949261213806745,1.5947411824961106 L 1.0926953684129863,1.567731061001897 L 1.0926953591564204,1.5677309807084212 L 1.0900598919424709,1.5408761888685483 L 1.0900598814188873,1.5408761085372895 L 1.0870202960275253,1.5141790306486838 L 1.0870202842217769,1.5141789502896832 L 1.0835768190763582,1.4876418512033702 L 1.0835768059771937,1.4876417708536303 L 1.0797298187081654,1.4612669154745068 L 1.0797298043074512,1.4612668351789195 L 1.0754798909887164,1.4350563693869176 L 1.075479875272758,1.4350562891553065 L 1.070827274308545,1.4090127161475694 L 1.0708272572722461,1.4090126360312576 L 1.0657725647280194,1.3831383400572688 L 1.0657725463626224,1.3831382600816158 L 1.0603162390793792,1.3574356252778497 L 1.0603162193777766,1.3574355454732985 L 1.0544587741779035,1.331907075116067 L 1.0544587531392118,1.3319069955312584 L 1.0482010045200638,1.3065551931293966 L 1.0482009821358125,1.3065551137795415 L 1.0415434069179161,1.2813824826017777 L 1.04154338318598,1.2813824035240122 L 1.0344865774007537,1.2563914468837951 L 1.0344865523237305,1.2563913681238712 L 1.0270314696797636,1.231584708730551 L 1.0270314432519785,1.2315846303044216 L 1.0191786797713065,1.2069648906391337 L 1.0191786519943065,1.2069648125836259 L 1.0109289228979041,1.1825346151299676 L 1.0109288937807597,1.1825345374955725 L 1.002283391222052,1.1582963858280142 L 1.0022833607597241,1.158296308624038 L 0.9932427999351504,1.134252944355418 L 0.9932427681361323,1.1342528676250734 L 0.9838081623353796,1.1104069133886552 L 0.9838081292047748,1.1104068371617737 L 0.9739804916930525,1.0867609155185325 L 0.9739804572383334,1.0867608398274775 L 0.9637609204996932,1.0633176925762469 L 0.963760884727587,1.0633176174488477 L 0.9531504620180629,1.0400797479276374 L 0.9531504249395738,1.0400796733978654 L 0.9421504275483349,1.017049942603588 L 0.9421503891746151,1.017049868701967 L 0.9307620687985219,0.9942307800307036 L 0.9307620291397708,0.9942307067834284 L 0.9189866374530058,0.9716248827925246 L 0.9189865965219142,0.9716248102282327 L 0.9068254448046343,0.9492348734846107 L 0.9068254026163693,0.9492348016334556 L 0.8942799213538858,0.9270633747019875 L 0.8942798779259521,0.9270633035947062 L 0.8813516168570993,0.9051128899120563 L 0.881351572201203,0.9051128195678286 L 0.8680419021803806,0.8833859820472211 L 0.8680418563156947,0.8833859124954222 L 0.8543523270403216,0.8618852141116397 L 0.8543522799874993,0.8618851453805879 L 0.8402845007785249,0.8406129703260324 L 0.8402844525559748,0.8406129024382683 L 0.8258400923187782,0.8195717540811253 L 0.8258400429462575,0.8195716870593097 L 0.8110207109680365,0.7987639495424508 L 0.8110206604693005,0.7987638834123422 L 0.7958280852821459,0.7781918813289752 L 0.7958280336774486,0.7781918161095901 L 0.7802638841643905,0.7578578739902088 L 0.7802638314794939,0.757857809705627 L 0.7643298957574798,0.7377641925154906 L 0.7643298420182355,0.7377641291873653 L 0.7480279678277848,0.7179130423108226 L 0.7480279130561162,0.7179129799545222 L 0.7313598884784983,0.6983066883120094 L 0.7313598327033302,0.6983066269492132 L 0.7143273862602699,0.6789470974987745 L 0.7143273295088864,0.6789470371471472 L 0.6969324281318416,0.6598364752536091 L 0.6969323704298034,0.6598364159274203 L 0.6791767425817463,0.6409767884840297 L 0.6791766839654279,0.6409767302065231 L 0.661062296650858,0.6223698850344638 L 0.6610622371390406,0.6223698278098023 L 0.6425908783895007,0.6040178509748918 L 0.6425908180188782,0.6040177948235496 L 0.6237643951777919,0.5859225340892311 L 0.6237643339799308,0.5859224790244221 L 0.6045846947522084,0.5680856629094573 L 0.604584632760603,0.5680856089443692 L 0.5850537441230407,0.5505089660265591 L 0.5850536813589035,0.5505089131628605 L 0.565173212126944,0.5331942314955673 L 0.5651731486326766,0.5331941797516851 L 0.5449450657827563,0.5161431283112098 L 0.5449450015862985,0.5161430776916839 L 0.5243710335834041,0.4993572359630233 L 0.5243709687229651,0.49935718647927235 L 0.5034531421337535,0.4828381936213993 L 0.5034530766365813,0.4828381452751263 L 0.4821929411284737,0.46658740197533 L 0.4821928750287735,0.46658735477266466 L 0.4605923378863596,0.4506065001333105 L 0.46059227122534374,0.45060645408363814 L 0.43865312061520617,0.4348967994524811 L 0.43865305341784927,0.43489675455273274 L 0.4163769582111906,0.41945973041922086 L 0.4163768905114743,0.4194596866720058 L 0.39376563878326365,0.40429678313134537 L 0.3937655706227992,0.40429674054268633 L 0.3708207717293024,0.3894091199314609 L 0.3708207031310557,0.3894090784947212 L 0.34754408553116617,0.3747982010980002 L 0.34754401653217293,0.37479816081467493 L 0.3239371895002863,0.3604653081253222 L 0.3239371201422059,0.3604652689980584 L 0.3000000457865894,0.3464105781947076 L 0.2999998373089136,0.3464104692340413 L 0.29999970979183227,0.34641066690819183 L 0.29330116510391235,0.3580129146575928 L 0.2933011651036814,0.35801291465745944 L 0.2933011650994656,0.35801291466529483 L 0.28839731216497794,0.36650664016459616 L 0.27499985696020046,0.3897116780084516 L 0.2749998569529317,0.3897116780217832 L 0.26830115432642915,0.4013141941499299 L 0.24999988080294655,0.4330128729131479 L 0.24999988079510893,0.433012872927523 L 0.22499990463565583,0.476314187044518 L 0.20669859651597816,0.5080128907491037 L 0.20669859649133762,0.5080128907942972 L 0.19999999103992633,0.5196153193609252 L 0.19999988439360333,0.5196155268688123 z"
     opacity="1"
     stroke-width="0"
     stroke="#555555"
     fill="#000000"
     fill-rule="evenodd" />
  <path
     style="fill:#ffff00"
     id="path12"
     d="M 0.2502542796010182,0.43316227567203447 L 0.2502542782330048,0.433162297268222 L 0.25025427522205407,0.43316250007526924 L 0.2509837726975444,0.5252249145900086 L 0.2509837865896946,0.5252251559330308 L 0.2509839832045282,0.5252252965817208 L 0.3048562177186952,0.5598606957692226 L 0.3048564095264576,0.5598608064579217 L 0.3048564269826028,0.5598605856922341 L 0.30770187263946325,0.46787494812207936 L 0.3077019547305887,0.4678739420550159 L 0.3077021378275544,0.4678729493892161 L 0.30770242006476717,0.46787198023904986 L 0.30770279856648414,0.46787104447928407 L 0.307703269476114,0.46787015164446755 L 0.3077038279955118,0.46786931083178257 L 0.3077044684338683,0.46786853060835265 L 0.30770518426569365,0.4678678189239516 L 0.30770596819730667,0.46786718303000197 L 0.3077068122411506,0.46786662940569024 L 0.30770770779717926,0.4678661636919492 L 0.39246095937715425,0.42909405819001195 L 0.3924611580523077,0.4290939553344126 L 0.39246097596926843,0.4290938253464977 L 0.33342071376737453,0.39114035028632477 L 0.3334205144127348,0.3911402350582653 L 0.3334203042233906,0.3911403290806956 L 0.250254489518681,0.43316216278389835 L 0.25025448448001386,0.4331621656439857 L 0.2502542796010182,0.43316227567203447 z"
     opacity="1"
     stroke-width="0"
     stroke="#555555"
     fill="#000000"
     fill-rule="evenodd" />
  <path
     style="fill:#ffff00"
     id="path14"
     d="M 0.35474391030184166,0.5946917477620854 L 0.3547440953383106,0.5946919031581902 L 0.40559283754217823,0.6332671316663622 L 0.405593028341886,0.6332672618598333 L 0.4055930653837354,0.6332670338625316 L 0.4157673408370867,0.5418556615969011 L 0.4157675029859492,0.5418546653029529 L 0.4157677647467686,0.5418536904310852 L 0.4157681234524798,0.5418527469142079 L 0.4157685754482524,0.5418518443657568 L 0.415769116128729,0.5418509919817429 L 0.41576973998494937,0.5418501984470548 L 0.4157704406604806,0.5418494718469689 L 0.4157712110161825,0.5418488195847689 L 0.41577204320294797,0.5418482483063146 L 0.415772928741677,0.5418477638323274 L 0.41577385860966953,0.5418473710990828 L 0.503401646577394,0.5099465488298414 L 0.5034018529745018,0.5099464620893553 L 0.5034016814183279,0.5099463182416665 L 0.4473137950435311,0.46739130598115064 L 0.4473136051237031,0.467391175549311 L 0.4473133881883299,0.46739125314473234 L 0.3611078118419256,0.5029044420496537 L 0.36110780388497976,0.5029044457880741 L 0.3611075938507488,0.5029045386134782 L 0.36110758977755875,0.5029045675165111 L 0.36110757236581664,0.5029047571628583 L 0.35474391505428027,0.5946915061759561 L 0.35474391030184166,0.5946917477620854 z"
     opacity="1"
     stroke-width="0"
     stroke="#555555"
     fill="#000000"
     fill-rule="evenodd" />
  <path
     style="fill:#ffff00"
     id="path16"
     d="M 0.45229799830800027,0.6719390704437305 L 0.4522981692123595,0.6719392405802733 L 0.49954616259413764,0.7145381676922767 L 0.4995463416578529,0.714538313533911 L 0.4995463979714242,0.7145380895643187 L 0.5174623555890284,0.6243643829009787 L 0.5174626020036588,0.6243634040680206 L 0.5174629458378732,0.6243624550621392 L 0.5174633835885711,0.6243615455521303 L 0.5174639107957993,0.6243606848043922 L 0.5174645220881904,0.6243598815885167 L 0.517465211237689,0.6243591440879414 L 0.5174659712230045,0.6243584798165737 L 0.5174667943011476,0.6243578955422371 L 0.5174676720863169,0.6243573972177179 L 0.5174685956353376,0.6243569899201163 L 0.5174695555387773,0.6243566777991195 L 0.6075316103211214,0.6000231544002789 L 0.6075318233955169,0.6000230855323987 L 0.6075316645873037,0.6000229276608229 L 0.5550909013188139,0.5527409112904207 L 0.5550907227614693,0.5527407650115375 L 0.5550904997428008,0.5527408245338892 L 0.4662083907925579,0.5810332755482526 L 0.46620838277120447,0.5810332785366012 L 0.46620816558463923,0.581033353782202 L 0.46620815918591674,0.5810333820465888 L 0.4662081261182723,0.5810335699613332 L 0.4522980229572505,0.6719388305538435 L 0.45229799830800027,0.6719390704437305 z"
     opacity="1"
     stroke-width="0"
     stroke="#555555"
     fill="#000000"
     fill-rule="evenodd" />
  <path
     style="fill:#ffff00"
     id="path18"
     d="M 0.5426535736888091,0.756927129217078 L 0.5426537284386761,0.7569273135916776 L 0.5857879004963001,0.8034507579706726 L 0.5857880657908765,0.8034509192136841 L 0.5857881419550769,0.8034507012214374 L 0.6117105862545328,0.7152779032030427 L 0.6117109194635139,0.7152769504262152 L 0.6117113470222417,0.7152760360928828 L 0.611711864574697,0.7152751695183828 L 0.6117124668479937,0.715274359531479 L 0.6117131477061,0.7152736143844146 L 0.6117139002123522,0.7152729416688368 L 0.6117147167001269,0.7152723482384518 L 0.6117155888509497,0.715271840139199 L 0.6117165077792439,0.7152714225476542 L 0.6117174641228588,0.7152710997182897 L 0.6117184481384517,0.7152708749401296 L 0.703630326554579,0.6991066162740505 L 0.7036305449729692,0.699106566783776 L 0.7036304008819403,0.6991063953379921 L 0.655503374721387,0.6472023081083998 L 0.6555032096522678,0.6472021462114016 L 0.6555029818987108,0.6472021860456796 L 0.56445252692423,0.6676194137734979 L 0.5644525190506471,0.6676194159443912 L 0.5644522957386331,0.6676194719863927 L 0.5644522872380336,0.6676194984998538 L 0.5644522373647887,0.667619684615641 L 0.5426536191618109,0.7569268928408517 L 0.5426535736888091,0.756927129217078 z"
     opacity="1"
     stroke-width="0"
     stroke="#555555"
     fill="#000000"
     fill-rule="evenodd" />
  <path
     style="fill:#ffff00"
     id="path20"
     d="M 0.6247501506432389,0.849488077363509 L 0.6247502879653399,0.8494882751423716 L 0.6633863110964751,0.8996554414323528 L 0.663386460890533,0.899655616975388 L 0.6633865569417221,0.8996554071473978 L 0.6973924318347032,0.8143033217303958 L 0.6973928522807538,0.8143024040807716 L 0.6973933630929632,0.8143015334909711 L 0.697393959066892,0.814300718831048 L 0.6973946341304259,0.8142999684012117 L 0.6973953814056415,0.8142992898472593 L 0.6973961932788825,0.8142986900826765 L 0.6973970614783319,0.8142981752181992 L 0.6973979771582902,0.8142977504995534 L 0.6973989309892997,0.8142974202540093 L 0.6973999132531987,0.8142971878462926 L 0.6974009139421353,0.8142970556443025 L 0.7904470515837825,0.8067569333641931 L 0.7904472737883459,0.8067569043962347 L 0.7904471458945259,0.8067567203930253 L 0.7471878783813721,0.7505760284351412 L 0.7471877288097235,0.7505758521553455 L 0.747187498393631,0.7505758709879794 L 0.6546185036524729,0.7625828669569855 L 0.654618492742317,0.7625828689137224 L 0.6546182680559305,0.7625829039431127 L 0.6546182544337811,0.7625829360262639 L 0.6546181918768668,0.7625831057937025 L 0.6247502175706823,0.8494878460746087 L 0.6247501506432389,0.849488077363509 z"
     opacity="1"
     stroke-width="0"
     stroke="#555555"
     fill="#000000"
     fill-rule="evenodd" />
  <path
     style="fill:#ffff00"
     id="path22"
     d="M 0.6977634564246855,0.9491024008226904 L 0.6977635741800531,0.9491026105796148 L 0.7314112640484767,1.0026688836098445 L 0.7314113964465436,1.0026690726345189 L 0.7314115120245986,1.0026688728814483 L 0.773372914978453,0.9209521778478129 L 0.7733734207805385,0.9209513043551423 L 0.7733740120612657,0.9209504863011728 L 0.7733746827965177,0.9209497320204445 L 0.7733754261526746,0.9209490491977596 L 0.7733762345562367,0.9209484447898872 L 0.7733770997709849,0.9209479249546875 L 0.7733780129818931,0.9209474949883721 L 0.7733789648849387,0.9209471592715465 L 0.7733799457818937,0.920946921224578 L 0.7733809456791325,0.9209467832727493 L 0.7733819543894503,0.9209467468215483 L 0.8667385523492022,0.9222882951022097 L 0.8667387762915575,0.922288287394837 L 0.8667386665034543,0.922288092058834 L 0.8289926718949235,0.8621915801406645 L 0.8289925396671172,0.8621913902639072 L 0.8289923083049522,0.8621913872766376 L 0.7356842794488218,0.8654181873472778 L 0.7356842690828083,0.8654181882100137 L 0.7356840414336239,0.865418201919636 L 0.7356840255556286,0.8654182312607795 L 0.7356839461610569,0.8654183966506046 L 0.6977635447878257,0.9491021770901511 L 0.6977634564246855,0.9491024008226904 z"
     opacity="1"
     stroke-width="0"
     stroke="#555555"
     fill="#000000"
     fill-rule="evenodd" />
  <path
     style="fill:#ffff00"
     id="path24"
     d="M 0.7609542146473706,1.0551187995934328 L 0.7609543114954697,1.0551190195268818 L 0.7892715403837108,1.1116942307521676 L 0.7892716539400367,1.1116944317574586 L 0.7892717881372706,1.1116942439030766 L 0.8388666396162764,1.0343411947822236 L 0.8388672265991344,1.034340373645649 L 0.8388678933687478,1.0343396158643925 L 0.8388686331319736,1.034338929158837 L 0.8388694383519992,1.034338320525236 L 0.8388703008251294,1.0343377961644349 L 0.8388712117643654,1.0343373614186953 L 0.8388721618889298,1.0343370207172684 L 0.8388731415188189,1.0343367775312688 L 0.8388741406734248,1.0343366343383098 L 0.8388751491732189,1.0343365925972614 L 0.8388761567434628,1.0343366527333875 L 0.9316511115082352,1.044592949780721 L 0.9316513350926388,1.0445929635153146 L 0.9316512446936286,1.0445927585600951 L 0.8998852243891261,0.9811407068416756 L 0.8998851110090862,0.9811405049373966 L 0.899884880816507,0.9811404798027993 L 0.8067128692445489,0.9754274635780256 L 0.806712860536803,0.9754274634666291 L 0.8067126309710257,0.9754274552257555 L 0.80671261482246,0.9754274792386707 L 0.8067125161095072,0.9754276425883198 L 0.7609543239025269,1.0551185855523468 L 0.7609542146473706,1.0551187995934328 z"
     opacity="1"
     stroke-width="0"
     stroke="#555555"
     fill="#000000"
     fill-rule="evenodd" />
  <path
     style="fill:#ffff00"
     id="path26"
     d="M 0.8136869802724697,1.166761519176613 L 0.8136870562550494,1.1667617475372483 L 0.8366252467579515,1.2258052871795735 L 0.8366253410245568,1.2258054978661126 L 0.8366254922522568,1.2258053234952644 L 0.8932813892371088,1.153446195946309 L 0.8932820508295802,1.1534454336146363 L 0.8932827859021271,1.1534447418614084 L 0.8932835869654319,1.1534441277345822 L 0.8932844458578278,1.153443597491214 L 0.8932853538284539,1.1534431565337109 L 0.8932863016264132,1.1534428093547866 L 0.8932872795950269,1.1534425594916882 L 0.8932882777702208,1.153442409490156 L 0.8932892859820453,1.1534423608784876 L 0.893290293958292,1.1534424141519644 L 0.8932912914291529,1.1534425687678076 L 0.9846782680557962,1.1723746758719462 L 0.9846784893981677,1.1723747105733322 L 0.9846784185467851,1.1723744980251876 L 0.9590112830236482,1.1063011712636706 L 0.9590111891490702,1.1063009599051665 L 0.9590109626638098,1.1063009131154091 L 0.8668034086944469,1.0917731900768732 L 0.8668033981019969,1.091773188930564 L 0.8668031722250207,1.0917731592491875 L 0.8668031507910581,1.0917731853874502 L 0.8668030419183357,1.0917733321163012 L 0.8136871095269684,1.1667613161613237 L 0.8136869802724697,1.166761519176613 z"
     opacity="1"
     stroke-width="0"
     stroke="#555555"
     fill="#000000"
     fill-rule="evenodd" />
  <path
     style="fill:#ffff00"
     id="path28"
     d="M 0.8557828796679449,1.2830252676253706 L 0.8557829343590067,1.2830255021857753 L 0.8732311631824717,1.344058868384536 L 0.8732312377023572,1.344059086916562 L 0.8732314042323506,1.3440589269877588 L 0.9362527502630512,1.2771427505936654 L 0.9362534784921607,1.277142051660088 L 0.9362542734698632,1.2771414296984862 L 0.936255127096721,1.2771408910455655 L 0.9362560306757636,1.2771404411892604 L 0.9362569750010948,1.2771400847128231 L 0.9362579504516846,1.2771398252481272 L 0.936258947089391,1.2771396654386664 L 0.9362599547602118,1.2771396069126202 L 0.9362609631977373,1.2771396502662673 L 0.9362619621277458,1.2771397950579093 L 0.9362629413728809,1.277140039812372 L 1.0255274824826186,1.3043048864226585 L 1.0255276996797793,1.3043049411128147 L 1.0255276486819147,1.3043047230191713 L 1.0060821231330355,1.2362840071453645 L 1.0060820491509606,1.2362837882079647 L 1.0060818281401085,1.2362837206717803 L 0.9156387412746717,1.213271796855945 L 0.9156387318052,1.2132717949295921 L 0.9156385087261425,1.2132717441860377 L 0.915638486426192,1.2132717667357515 L 0.9156383620402864,1.2132719053446877 L 0.8557830272998097,1.2830250773242193 L 0.8557828796679449,1.2830252676253706 z"
     opacity="1"
     stroke-width="0"
     stroke="#555555"
     fill="#000000"
     fill-rule="evenodd" />
  <path
     style="fill:#ffff00"
     id="path30"
     d="M 0.8872586617776561,1.4029043953408278 L 0.8872586955473434,1.4029046340031261 L 0.899280977505592,1.465421668427912 L 0.8992810324616204,1.465421892800321 L 0.8992812123534243,1.46542174787937 L 0.967906314497592,1.4042096913594186 L 0.9679071007050815,1.4042090583421905 L 0.9679079467210991,1.404208507806156 L 0.9679088439261546,1.404208045360358 L 0.9679097831792264,1.4042076757163473 L 0.9679107549108941,1.404207402640179 L 0.9679117492208343,1.4042072289140433 L 0.9679127559786892,1.4042071563079195 L 0.9679137649272771,1.4042071855615428 L 0.9679147657870967,1.4042073163768676 L 0.9679157483610574,1.404207547421104 L 0.9679167026383714,1.4042078763402972 L 1.0544489746273253,1.439012674982081 L 1.0544491861494092,1.4390127483107396 L 1.0544491546158665,1.43901252667067 L 1.0411200970924765,1.3697190227203584 L 1.0411200427845049,1.3697187982852563 L 1.0411198288478978,1.3697187113853193 L 0.9531194468661472,1.33874233660305 L 0.9531194390363326,1.3387423342664033 L 0.9531192200025047,1.3387422633379218 L 0.9531191986574555,1.3387422813708936 L 0.9531190577837613,1.3387424125895246 L 0.8872588259098044,1.4029042188168286 L 0.8872586617776561,1.4029043953408278 z"
     opacity="1"
     stroke-width="0"
     stroke="#555555"
     fill="#000000"
     fill-rule="evenodd" />
  <path
     style="fill:#ffff00"
     id="path32"
     d="M 0.9082601792282222,1.525436764134124 L 0.9082601932396405,1.5254370052666726 L 0.9151179520795935,1.5889413243478638 L 0.9151179883871895,1.5889415525187158 L 0.9151181795697101,1.5889414227904466 L 0.988555961301115,1.5335275358923417 L 0.9885567967137346,1.5335269693368714 L 0.9885576849858819,1.5335264898872514 L 0.9885586170669578,1.5335261024285902 L 0.9885595834599941,1.533525810908702 L 0.9885605743184186,1.5335256182978807 L 0.9885615795463814,1.533525526558637 L 0.9885625889016212,1.5335255366257012 L 0.9885635920998241,1.5335256483965005 L 0.9885645789194103,1.5335258607322024 L 0.9885655393056814,1.53352617146932 L 0.9885664634732679,1.533526577441755 L 1.0719235150074629,1.5752834182946356 L 1.0719237197799831,1.5752835086862802 L 1.0719237066113714,1.5752832852382506 L 1.0643704191377095,1.5053334202794393 L 1.0643703835929037,1.505333192567453 L 1.0643701781476933,1.5053330881239364 L 0.9793320123371061,1.4670463603058295 L 0.9793320040977423,1.4670463570664471 L 0.9793317924399815,1.467046268160229 L 0.9793317685149034,1.4670462851317483 L 0.9793316188914419,1.4670464025627885 L 0.9082603580384614,1.5254366017514773 L 0.9082601792282222,1.525436764134124 z"
     opacity="1"
     stroke-width="0"
     stroke="#555555"
     fill="#000000"
     fill-rule="evenodd" />
  <path
     style="fill:#ffff00"
     id="path34"
     d="M 0.9192258241542216,1.6496975483247998 L 0.9192258194674531,1.6496977902705123 L 0.9211651010772003,1.713765966033595 L 0.9211651196646814,1.7137661964009276 L 0.921165320254762,1.713766081604484 L 0.9986406175174221,1.664101373515091 L 0.9986414937372197,1.6641008723398445 L 0.9986424160183299,1.6641004620529753 L 0.9986433749632824,1.6641001468350511 L 0.9986443608010246,1.6640999298979464 L 0.9986453634864836,1.664099813452115 L 0.9986463728029187,1.664099798684068 L 0.9986473784660236,1.664099885744282 L 0.9986483702287171,1.664100073745668 L 0.9986493379855547,1.6641003607726088 L 0.9986502718756964,1.6641007439004782 L 0.9986511623833831,1.6641012192254423 L 1.0785552560466598,1.7120838104140383 L 1.078555453259092,1.7120839161402437 L 1.078555457388145,1.712083692413345 L 1.076436049917599,1.6419812415682864 L 1.0764360321247763,1.6419810121952525 L 1.0764358359341217,1.6419808920378456 L 0.9947296120171891,1.5970967982385127 L 0.9947296045442116,1.5970967945927412 L 0.9947294001332764,1.5970966889455314 L 0.994729376182932,1.597096703225112 L 0.9947292157208658,1.5970968097538736 L 0.9192260156047809,1.6496974003167708 L 0.9192258241542216,1.6496975483247998 z"
     opacity="1"
     stroke-width="0"
     stroke="#555555"
     fill="#000000"
     fill-rule="evenodd" />
</svg>
