<?xml version="1.0" encoding="UTF-8" standalone="no"?>
<svg
   xmlns:dc="http://purl.org/dc/elements/1.1/"
   xmlns:cc="http://creativecommons.org/ns#"
   xmlns:rdf="http://www.w3.org/1999/02/22-rdf-syntax-ns#"
   xmlns:svg="http://www.w3.org/2000/svg"
   xmlns="http://www.w3.org/2000/svg"
   xmlns:sodipodi="http://sodipodi.sourceforge.net/DTD/sodipodi-0.dtd"
   xmlns:inkscape="http://www.inkscape.org/namespaces/inkscape"
   inkscape:version="1.0 (4035a4fb49, 2020-05-01)"
   sodipodi:docname="cable_3.svg"
   id="svg38"
   version="1.1"
   viewBox="0 0 1.9999999858411206 1.7320508956907068"
   height="1.7320508956907068m"
   width="1.9999999858411206m">
  <metadata
     id="metadata44">
    <rdf:RDF>
      <cc:Work
         rdf:about="">
        <dc:format>image/svg+xml</dc:format>
        <dc:type
           rdf:resource="http://purl.org/dc/dcmitype/StillImage" />
      </cc:Work>
    </rdf:RDF>
  </metadata>
  <defs
     id="defs42" />
  <sodipodi:namedview
     inkscape:current-layer="svg38"
     inkscape:window-maximized="0"
     inkscape:window-y="232"
     inkscape:window-x="93"
     inkscape:cy="0.4480567"
     inkscape:cx="0.79492188"
     inkscape:zoom="256"
     showgrid="false"
     id="namedview40"
     inkscape:window-height="480"
     inkscape:window-width="802"
     inkscape:pageshadow="2"
     inkscape:pageopacity="0"
     guidetolerance="10"
     gridtolerance="10"
     objecttolerance="10"
     borderopacity="1"
     bordercolor="#666666"
     pagecolor="#ffffff"
     inkscape:document-rotation="0" />
  <desc
     id="desc2">Outline to SVG export</desc>
  <path
     style="fill:#ff0000"
     id="path34"
     d="M 0.8599997873818934,1.3070450888851487e-07 L 0.8599997758876441,3.6469621756425906e-07 L 0.8599998950958251,0.026400029634684408 L 0.8599998950958252,0.21285217997080683 L 0.8599998950963705,0.21285217999301945 L 0.85999995470047,0.23970019815136118 L 0.8599998950958253,0.26659518476975563 L 0.8599998950963695,0.2665951847919285 L 0.8599998950958252,0.29353517293930076 L 0.8599998950958252,0.3205179571774439 L 0.859999895096367,0.32051795719951237 L 0.85999995470047,0.34754139182749294 L 0.8599998950958253,0.3746036290791957 L 0.8599998950963662,0.3746036291012316 L 0.8599998950958252,0.4017026424407961 L 0.8599998950958252,0.5649532079369026 L 0.8599998950963615,0.5649532079587485 L 0.85999995470047,0.5922521352767947 L 0.85999995470047,0.6742628216416668 L 0.8599999547010049,0.6742628216634574 L 0.8600000143051147,0.7016309499631781 L 0.8599999547004701,0.7290114164025779 L 0.8599999547010047,0.7290114164243576 L 0.85999995470047,0.7564020156533918 L 0.8599999547010043,0.7564020156751579 L 0.8600000143051147,0.7838007807731631 L 0.8600000143051147,1.0851423740059796 L 0.8600000143056503,1.0851423740277948 L 0.8600000739097595,1.1124799251283675 L 0.8600000143051149,1.139799118009255 L 0.8600000143056507,1.1397991180310838 L 0.8600000143051147,1.1670980453491213 L 0.8600000143051147,1.194374442034888 L 0.8600000143061892,1.1943744420786528 L 0.8600001335144041,1.2216262816944958 L 0.8600000143051152,1.2488517760244748 L 0.8600000143067285,1.2488517760901974 L 0.8600000739097595,1.276048660278321 L 0.8600000739097595,1.3032150268225065 L 0.8600000739102991,1.303215026844485 L 0.8600001335144043,1.330348610877991 L 0.8600001335144043,1.3574475049752284 L 0.8600000739097596,1.3845098017984834 L 0.8600000739108423,1.3845098018425837 L 0.8600001335144043,1.411533355712891 L 0.8600001335144043,1.492351055123063 L 0.8600000739097596,1.5191991328526304 L 0.8600000739108511,1.5191991328970909 L 0.8600001335144043,1.5459983348846438 L 0.8600001335144043,1.70565152164886 L 0.8600001335149589,1.70565152167145 L 0.8600001931184948,1.7320506502050506 L 0.8600002046142318,1.7320508841957092 L 0.8600004386049178,1.732050895690918 L 1.1399998594179532,1.732050895690918 L 1.140000093408935,1.732050884195678 L 1.1400001049041748,1.7320506502046964 L 1.1400001049041748,1.679188728332519 L 1.1400002241134637,1.652664899960753 L 1.140000224111259,1.652664899870943 L 1.140000104904175,1.626081824347517 L 1.1400001049041748,0.9482504130062422 L 1.1400001049031065,0.948250412962727 L 1.1399999856948855,0.9208455682235839 L 1.1399999856948853,0.8934366106986993 L 1.1400001049041741,0.8660255671852382 L 1.1400001049020385,0.8660255670982374 L 1.1399999856948855,0.838614583058934 L 1.1400001049041746,0.811205625599319 L 1.1400001049031063,0.8112056255558049 L 1.1400001049041748,0.7838007211685176 L 1.1400001049041748,0.729011356895918 L 1.1400001049031054,0.7290113568523646 L 1.1399999856948855,0.7016309500176172 L 1.1400001049041741,0.6742627622004299 L 1.1400001049020345,0.6742627621132704 L 1.1399999856948855,0.6469088793236706 L 1.1399999856948853,0.37460374838762256 L 1.1399999856938035,0.3746037483435565 L 1.139999866485596,0.3475414514982753 L 1.1399999856948846,0.3205178977383561 L 1.1399999856927168,0.3205178976500417 L 1.139999866485596,0.29353517298348014 L 1.1399998664855957,0.23970025777816723 L 1.139999985694885,0.21285206086145422 L 1.1399999856937946,0.2128520608170318 L 1.1399999856948853,0.1860528588963638 L 1.1399999856937908,0.18605285885178025 L 1.139999866485596,0.15930467848466132 L 1.1399998664855957,0.1326096653938289 L 1.139999985694885,0.1059694886879021 L 1.1399999856937861,0.10596948864313284 L 1.1399999856948853,0.07938641316481271 L 1.1399999856937815,0.07938641311985203 L 1.139999866485596,0.05286258463585608 L 1.1399998664855957,3.646955111794872e-07 L 1.1399998549903558,1.30704529326476e-07 L 1.1399996209993746,1.1920928955078125e-07 L 0.9299999475537272,1.1920928955078125e-07 L 0.8787562847788777,5.960464485115194e-08 L 0.8787562847354494,5.960571099918377e-08 L 0.8600000213729656,1.192085094551978e-07 L 0.8599997873818934,1.3070450888851487e-07 z"
     opacity="1"
     stroke-width="0"
     stroke="#555555"
     fill="#000000"
     fill-rule="evenodd" />
  <path
     style="fill:#00ff00"
     id="path36"
     d="M 0.8749998807907104,0.026400029625472946 L 0.8749998807912637,0.026400029648009114 L 0.8749999403953552,0.05286258456843992 L 0.8749998807907106,0.07938635345901805 L 0.8749998807912625,0.0793863534815012 L 0.8749998807907104,0.10596936941146871 L 0.8749998807907104,0.21285212033285172 L 0.874999880791801,0.21285212037727386 L 0.8749999999999999,0.23970025775600606 L 0.8749999403953552,0.2665951848029534 L 0.8749999403953561,0.2665951848029905 L 0.8749998807907106,0.2935351728729598 L 0.8749998807917965,0.2935351729171935 L 0.8749999403953552,0.3205178976058964 L 0.875,0.34754139182749283 L 0.8749999403953553,0.3746036588815182 L 0.8749999403958962,0.374603658903554 L 0.8749999403953552,0.40170267222115147 L 0.8749998807907106,0.4288363158373242 L 0.87499988079125,0.428836315859302 L 0.8749998807907104,0.45600265261222533 L 0.8749998807912488,0.456002652634153 L 0.8749999403953552,0.4831995368003847 L 0.8749999403953552,0.6469088792473934 L 0.8749999403958905,0.6469088792691953 L 0.875,0.6742628216743471 L 0.875,0.8660256266267644 L 0.8750000000005341,0.8660256266485209 L 0.8750000596046448,0.8934366106987002 L 0.8750000596046448,0.9208455681583346 L 0.8750000000000001,0.9482504725129892 L 0.8750000000005342,0.9482504725347494 L 0.875,0.9756492376327517 L 0.875,1.0577884912163875 L 0.8750000000005352,1.0577884912381894 L 0.8750000596046448,1.0851423740386965 L 0.8750000596046448,1.1943744420677054 L 0.875000059605182,1.194374442089589 L 0.8750001192092896,1.2216262817109154 L 0.8750000596046449,1.2488517760573152 L 0.8750000596057208,1.2488517761011428 L 0.8750001192092896,1.276048660250895 L 0.8750000596046449,1.3032150267895886 L 0.8750000596057232,1.3032150268335152 L 0.8750001192092896,1.3303484916687016 L 0.8750001192092896,1.6791887282987215 L 0.8750001192098428,1.6791887283212574 L 0.8750001788139343,1.705651521671437 L 0.8750001192098438,1.7320506502043438 L 0.8750001307045864,1.732050884195647 L 0.8750003646958642,1.732050895690918 L 1.124999873723068,1.732050895690918 L 1.1250001077140497,1.732050884195678 L 1.1250001192092896,1.7320506502046964 L 1.1250001192092896,1.679188728332519 L 1.1250002384185784,1.652664899960753 L 1.1250002384163738,1.652664899870943 L 1.1250001192092898,1.626081824347517 L 1.1250001192092896,1.13979911810746 L 1.125000119208218,1.1397991180638083 L 1.1250000000000002,1.1124799251992457 L 1.1250001192092893,1.085142374104128 L 1.1250001192082184,1.0851423740605004 L 1.1250001192092896,1.0577883720397945 L 1.1250001192092896,1.0304201842007592 L 1.1250001192082202,1.0304201841572038 L 1.1250000000000002,1.0030398369270666 L 1.1250001192092889,0.9756492377633186 L 1.125000119207152,0.9756492376762661 L 1.1250000000000002,0.9482504129844878 L 1.125,0.42883628613387836 L 1.124999999998921,0.428836286089928 L 1.1249998807907107,0.4017027020893751 L 1.1249998807907104,0.37460374832153265 L 1.1249999999999998,0.34754145152025956 L 1.124999999998918,0.3475414514761885 L 1.125,0.3205178976058956 L 1.125,0.2935351730056903 L 1.1249999999989133,0.29353517296142384 L 1.1249998807907107,0.26659530405654885 L 1.1249998807907104,0.23970025777816723 L 1.1249999999999998,0.21285206086145422 L 1.1249999999989093,0.2128520608170318 L 1.125,0.18605285882949787 L 1.125,0.07938647276945734 L 1.1249999999988962,0.07938647272449673 L 1.1249998807907107,0.05286258463585598 L 1.1249998807907104,3.646955111794872e-07 L 1.1249998692954706,1.3070452932517057e-07 L 1.1249996353044893,1.1920928955078125e-07 L 0.8750001262769315,1.1920928955078125e-07 L 0.8749998922859502,1.3070452933398132e-07 L 0.8749998807907104,3.646955117454415e-07 L 0.8749998807907104,0.026400029625472946 z"
     opacity="1"
     stroke-width="0"
     stroke="#555555"
     fill="#000000"
     fill-rule="evenodd" />
  <path
     style="fill:#0000ff"
     id="path6"
     d="M 0.8999998684440979,1.9030905842901857e-07 L 0.8999998569488525,4.2430015675153463e-07 L 0.8999998569488525,0.026399970020828174 L 0.8999998569494058,0.026399970043364335 L 0.8999999165534973,0.05286252496379524 L 0.8999998569488527,0.07938641303002195 L 0.8999998569499552,0.07938641307493494 L 0.8999999165534973,0.1059694290161137 L 0.8999999165534973,0.13260942695292244 L 0.8999998569488527,0.15930467840659182 L 0.899999856949401,0.15930467842893054 L 0.8999998569488525,0.18605285879612452 L 0.8999998569493989,0.1860528588183777 L 0.8999999165534973,0.21285206079483054 L 0.8999999761581421,0.239700198151361 L 0.8999999165534974,0.2665952443744005 L 0.8999999165540417,0.2665952443965733 L 0.8999999165534973,0.29353523254394553 L 0.8999999165534973,0.3205178975727992 L 0.8999999165540391,0.32051789759486765 L 0.8999999761581421,0.34754139182749294 L 0.8999999165534974,0.3746036290791957 L 0.8999999165540383,0.3746036291012316 L 0.8999999165534973,0.4017026424407961 L 0.8999999165534973,0.5104248523383966 L 0.8999999165540346,0.51042485236028 L 0.8999999761581421,0.5376768708229067 L 0.8999999761581421,0.8112056255014264 L 0.8999999761586762,0.8112056255231844 L 0.9000000357627869,0.8386145829882612 L 0.8999999761581422,0.8660256265941406 L 0.8999999761592103,0.8660256266376493 L 0.9000000357627869,0.8934366106987004 L 0.9000000357627869,1.1943744420677054 L 0.9000000357633241,1.194374442089589 L 0.9000000953674316,1.2216262817109154 L 0.900000035762787,1.2488517760573152 L 0.9000000357638629,1.2488517761011428 L 0.9000000953674316,1.2760486602783208 L 0.9000000953674316,1.4385160207416416 L 0.9000000953679751,1.4385160207637786 L 0.9000001549720764,1.4654558896796814 L 0.9000000953674318,1.4923510551120105 L 0.900000095367976,1.4923510551341832 L 0.9000000953674316,1.5191991329193117 L 0.9000000953674316,1.626081824269028 L 0.9000000953679824,1.6260818242914625 L 0.9000001549720764,1.6526648998091835 L 0.9000000953674318,1.6791887282988012 L 0.9000000953679836,1.6791887283212839 L 0.9000000953674316,1.70565140247345 L 0.9000000953674316,1.732050650204696 L 0.9000001068626714,1.732050884195678 L 0.9000003408536533,1.732050895690918 L 1.0999998975649259,1.732050895690918 L 1.1000001315559076,1.732050884195678 L 1.1000001430511475,1.7320506502046964 L 1.1000001430511475,1.13979911810746 L 1.1000001430500759,1.1397991180638083 L 1.1000000238418581,1.1124799251992457 L 1.1000001430511468,1.085142374169497 L 1.100000143049006,1.0851423740822888 L 1.1000000238418581,1.057788372083375 L 1.100000023841858,0.5376768112838911 L 1.1000000238407837,0.5376768112401318 L 1.0999999046325686,0.5104248524150016 L 1.1000000238418572,0.4831994773271876 L 1.1000000238397059,0.4831994772395479 L 1.0999999046325686,0.4560025930842981 L 1.0999999046325684,3.0509086640409655e-07 L 1.0999998931373285,7.109988455288997e-08 L 1.0999996591463472,5.960464477539063e-08 L 1.049999952334172,5.960464477539063e-08 L 1.0499999523222445,5.960493758673363e-08 L 0.9999998808026307,1.1920928953657143e-07 L 0.9499999285167476,5.960464482584167e-08 L 0.9499999284885287,5.960533756970633e-08 L 0.9133973122066277,1.1920928948186672e-07 L 0.9133973121784087,1.1920998230532029e-07 L 0.9000001024343778,1.7881284218537124e-07 L 0.8999998684440979,1.9030905842901857e-07 z"
     opacity="1"
     stroke-width="0"
     stroke="#555555"
     fill="#000000"
     fill-rule="evenodd" />
  <path
     style="fill:#ffff00"
     id="path8"
     d="M 0.9213001835584462,0.11692408774602879 L 0.9213003781404324,0.11692397963642007 L 0.999994726693199,0.06808334044488656 L 0.9999956101932095,0.06808285208127225 L 0.9999965384284807,0.06808245528085669 L 0.9999975019396333,0.06808215408731898 L 0.9999984909078019,0.068081951570036 L 0.9999994952546958,0.06808184979280324 L 1.0000005047453042,0.06808184979280324 L 1.000001509092198,0.068081951570036 L 1.0000024980603668,0.06808215408731898 L 1.0000034615715194,0.06808245528085669 L 1.0000043898067905,0.06808285208127225 L 1.000005273306801,0.06808334044488656 L 1.0786996218597382,0.11692397963652605 L 1.0786998164416035,0.11692408774607786 L 1.0786998271942139,0.11692386540814273 L 1.0786998271942139,0.049802318784817105 L 1.0786998146485707,0.04980207187480593 L 1.0786996114749396,0.04980193101167399 L 1.0000001434085948,0.0009579130349814221 L 0.9999999422300898,0.0009577947382760021 L 0.9999999403954716,0.0009577937755878779 L 0.9999999385565981,0.0009577947405113495 L 0.9999997373841775,0.0009579130339297408 L 0.9213005077336912,0.049801871407195865 L 0.9213003045606444,0.049802012270127746 L 0.9213002920146248,0.04980225917952333 L 0.9213001728062153,0.11692386540793794 L 0.9213001835584462,0.11692408774602879 z"
     opacity="1"
     stroke-width="0"
     stroke="#555555"
     fill="#000000"
     fill-rule="evenodd" />
  <path
     style="fill:#ffff00"
     id="path10"
     d="M 0.9213002431630728,0.24992416356313255 L 0.921300437744968,0.24992405545338153 L 0.9999948458836547,0.20108329706990308 L 0.9999957293862537,0.20108280870417786 L 0.9999966576244436,0.20108241190222856 L 0.9999976211387538,0.20108211070777626 L 0.9999986101102226,0.20108190819022717 L 0.9999996144604604,0.20108180641339288 L 1.0000006239543553,0.20108180641445866 L 1.0000016283043782,0.20108190819341368 L 1.0000026172754195,0.20108211071305102 L 1.0000035807890937,0.20108241190953777 L 1.0000045090264458,0.20108280871344708 L 1.0000053925280135,0.2010832970810379 L 1.078699621859828,0.24992417466216427 L 1.0786998164415786,0.2499242827723657 L 1.0786998271942139,0.24992406043421636 L 1.0786998271942139,0.1828023946017008 L 1.078699814648592,0.18280214769189507 L 1.078699611475247,0.18280200682870812 L 1.000000203017982,0.13395792925063746 L 1.0000000018249393,0.13395781094531006 L 1.0000000000004654,0.13395780998794424 L 0.9999999981585094,0.13395781095448483 L 0.9999997969900006,0.13395792924556635 L 0.9213005077339986,0.18280188761956984 L 0.9213003045606801,0.18280202848260638 L 0.9213002920148502,0.18280227539229624 L 0.9213002324106455,0.24992394122506106 L 0.9213002431630728,0.24992416356313255 z"
     opacity="1"
     stroke-width="0"
     stroke="#555555"
     fill="#000000"
     fill-rule="evenodd" />
  <path
     style="fill:#ffff00"
     id="path12"
     d="M 0.9213003027677263,0.38292412017091215 L 0.9213004973495805,0.3829240120609306 L 0.9999947266789176,0.33408325368233244 L 0.99999561018085,0.33408276531579056 L 0.9999965384184516,0.33408236851294404 L 0.9999975019322612,0.33408206731752166 L 0.999998490903326,0.3340818647989383 L 0.9999994952532643,0.33408176302101533 L 1.0000005047469709,0.3340817630209488 L 1.0000015090969225,0.33408186479873925 L 1.000002498068014,0.33408206731719214 L 1.0000034615818634,0.33408236851248746 L 1.0000043898195172,0.33408276531521147 L 1.0000052733215141,0.33408325368163677 L 1.0786996218597904,0.38292407166566333 L 1.0786998164415893,0.3829241797755865 L 1.0786998271942139,0.38292395743752733 L 1.0786998271942139,0.3158024704184003 L 1.0786998146486313,0.31580222350896764 L 1.0786996114758165,0.31580208264567966 L 1.0000002030283988,0.26695782626073766 L 1.000000001804909,0.266957707937357 L 0.9999999999998836,0.2669577069901956 L 0.9999999981993465,0.2669577079350037 L 0.9999997969696661,0.26695782626222486 L 0.9213005673375783,0.3158020826457103 L 0.9213003641652511,0.3158022235089379 L 0.921300351619495,0.3158024704179239 L 0.9213002920152903,0.382923897832765 L 0.9213003027677263,0.38292412017091215 z"
     opacity="1"
     stroke-width="0"
     stroke="#555555"
     fill="#000000"
     fill-rule="evenodd" />
  <path
     style="fill:#ffff00"
     id="path14"
     d="M 0.9213003027677544,0.5159245536156799 L 0.9213004973493083,0.5159244455043469 L 0.9999946670362575,0.4670830613465473 L 0.9999955505432593,0.4670825729707059 L 0.9999964787871969,0.4670821761599488 L 0.9999974423083774,0.467081874958157 L 0.9999984312875989,0.4670816724348647 L 0.999999435646218,0.4670815706539777 L 1.0000004451488602,0.46708157065274064 L 1.0000014495077287,0.46708167243116605 L 1.0000024384874466,0.4670818749520345 L 1.0000034020093653,0.4670821761514648 L 1.0000043302542756,0.4670825729599468 L 1.0000052137624742,0.46708306133362293 L 1.0786996218597336,0.5159243262956007 L 1.0786998164415067,0.5159244344064353 L 1.0786998271937847,0.5159242120679381 L 1.0786997079853753,0.4488024568280298 L 1.078699695439403,0.44880220991908704 L 1.0786994922669937,0.4488020690560315 L 1.0000003222278933,0.399957931874163 L 1.0000001210334701,0.3999578135674886 L 1.000000119208849,0.39995781261004126 L 1.0000001174005182,0.3999578135589345 L 0.9999999161829962,0.399957931878477 L 0.921300507733948,0.4488020392536119 L 0.9213003045606911,0.4488021801168159 L 0.9213002920150757,0.4488024270265618 L 0.9213002920150757,0.5159243312771505 L 0.9213003027677544,0.5159245536156799 z"
     opacity="1"
     stroke-width="0"
     stroke="#555555"
     fill="#000000"
     fill-rule="evenodd" />
  <path
     style="fill:#ffff00"
     id="path16"
     d="M 0.9213003045607919,0.7148020337278655 L 0.9213002920155265,0.7148022806384761 L 0.921300411223936,0.7819241252840808 L 0.921300421976965,0.7819243476222052 L 0.9213006165585284,0.7819242395116895 L 0.9999948458674204,0.7330831831433035 L 0.9999957293721449,0.7330826947723299 L 0.9999966576131533,0.7330822979657821 L 0.999997621130864,0.7330819967674633 L 0.9999986101061951,0.7330817942468459 L 0.9999996144606296,0.7330816924677908 L 1.0000006239589239,0.7330816924675149 L 1.0000016283134139,0.7330817942460208 L 1.0000026172888556,0.7330819967660975 L 1.0000035808067311,0.7330822979638895 L 1.0000045090479563,0.7330826947699297 L 1.000005392552948,0.7330831831404202 L 1.078699621859863,0.7819241799070837 L 1.0786998164415693,0.7819242880175327 L 1.0786998271942139,0.7819240656793005 L 1.0786998271942139,0.714802340242368 L 1.0786998146485822,0.714802093332468 L 1.0786996114751037,0.7148019524693072 L 1.0000003222190932,0.6659579940952983 L 1.0000001210505354,0.6659578758042132 L 1.0000001192094294,0.6659578748381187 L 1.0000001173629225,0.6659578758070451 L 0.9999999162018139,0.665957994093509 L 0.9213005077349876,0.714801892864531 L 0.9213003045607919,0.7148020337278655 z"
     opacity="1"
     stroke-width="0"
     stroke="#555555"
     fill="#000000"
     fill-rule="evenodd" />
  <path
     style="fill:#ffff00"
     id="path18"
     d="M 0.9213004237700115,0.8478021095449275 L 0.9213004112245907,0.8478023564549193 L 0.9213004708287954,0.9149241414964664 L 0.9213004815816329,0.914924363834652 L 0.9213006761632657,0.9149242557241545 L 0.9999948458687387,0.8660832589580784 L 0.9999957293732873,0.8660827705874234 L 0.9999966576140763,0.8660823737811464 L 0.9999976211315322,0.866082072583045 L 0.9999986101065816,0.8660818700625879 L 0.9999996144607165,0.8660817682836327 L 1.0000006239587027,0.8660817682833948 L 1.0000016283128854,0.8660818700618766 L 1.0000026172880303,0.8660820725818679 L 1.0000035808056282,0.866082373779515 L 1.0000045090466043,0.8660827705853547 L 1.000005392551383,0.8660832589555932 L 1.0786997410689774,0.9149243153287654 L 1.0786999356508102,0.9149244234392415 L 1.0786999464030742,0.9149242011008665 L 1.0786998271946648,0.8478023564542492 L 1.0786998146486502,0.8478021095449036 L 1.0786996114756697,0.8478019686819585 L 1.0000003222254974,0.7989579507072455 L 1.0000001210381209,0.7989578324051365 L 1.0000001192092896,0.7989578314454835 L 1.000000117380457,0.7989578324051374 L 0.9999999161930823,0.7989579507072451 L 0.9213006269434755,0.8478019686816072 L 0.9213004237700115,0.8478021095449275 z"
     opacity="1"
     stroke-width="0"
     stroke="#555555"
     fill="#000000"
     fill-rule="evenodd" />
  <path
     style="fill:#ffff00"
     id="path20"
     d="M 0.921300423770039,0.9808021853620438 L 0.9213004112248161,0.980802432272249 L 0.9213005304332256,1.0479241577090699 L 0.9213005411862498,1.0479243800471532 L 0.9213007357678337,1.047924271936762 L 0.9999949650781381,0.9990832751679948 L 0.999995848582683,0.9990827867977224 L 0.9999967768234224,0.9990823899918081 L 0.9999977403407865,0.9990820887940446 L 0.9999987293157068,0.9990818862738955 L 0.9999997336696802,0.9990817844952148 L 1.000000743167478,0.9990817844952148 L 1.0000017475214513,0.9990818862738955 L 1.0000027364963717,0.9990820887940446 L 1.0000037000137358,0.9990823899918081 L 1.0000046282544752,0.9990827867977224 L 1.00000551175902,0.9990832751679948 L 1.0786997410689807,1.0479242719365487 L 1.0786999356508087,1.0479243800470548 L 1.0786999464030742,1.0479241577086678 L 1.0786998271946648,0.9808024322713574 L 1.0786998146486502,0.9808021853620118 L 1.0786996114756697,0.9808020444990666 L 1.0000003222290936,0.9319580265265855 L 1.0000001210307137,0.9319579082181376 L 1.0000001192097074,0.9319579072625918 L 1.0000001173730475,0.9319579082263538 L 0.9999999161966814,0.9319580265221196 L 0.9213006269436648,0.9808020444985978 L 0.921300423770039,0.9808021853620438 z"
     opacity="1"
     stroke-width="0"
     stroke="#555555"
     fill="#000000"
     fill-rule="evenodd" />
  <path
     style="fill:#ffff00"
     id="path22"
     d="M 0.921300483374705,1.1138022015745261 L 0.9213004708294609,1.1138024484849351 L 0.9213005900378703,1.1809241739214809 L 0.9213006007908986,1.1809243962595983 L 0.9213007953724639,1.1809242881491004 L 0.999994845874829,1.1320833509848336 L 0.9999957293785278,1.132082862614446 L 0.9999966576184096,1.1320824658082678 L 0.9999976211349266,1.1320821646100894 L 0.9999986101090321,1.1320819620893743 L 0.999999614462245,1.1320818603099794 L 1.000000623959358,1.132081860309123 L 1.0000016283127435,1.1320819620868137 L 1.0000026172871925,1.1320821646058508 L 1.0000035808042207,1.1320824658023945 L 1.0000045090447758,1.1320828626069976 L 1.000005392549303,1.1320833509758863 L 1.0786997410691144,1.1809242881494435 L 1.0786999356508693,1.1809243962596143 L 1.0786999464035034,1.1809241739214726 L 1.0786999464035034,1.113802448484403 L 1.0786999338578718,1.1138022015745028 L 1.0786997306843948,1.113802060711343 L 1.0000004414268295,1.0649581023363694 L 1.0000002402633645,1.0649579840482049 L 1.0000002384182,1.0649579830799802 L 1.0000002365871943,1.0649579840407726 L 1.0000000354037712,1.0649581023403436 L 0.921300686548616,1.1138020607111359 L 0.921300483374705,1.1138022015745261 z"
     opacity="1"
     stroke-width="0"
     stroke="#555555"
     fill="#000000"
     fill-rule="evenodd" />
  <path
     style="fill:#ffff00"
     id="path24"
     d="M 0.9213003641653456,0.5818021963292711 L 0.921300351619946,0.5818024432390614 L 0.9213004112241506,0.6489242878855137 L 0.9213004219769851,0.6489245102236726 L 0.9213006165586307,0.6489244021132525 L 0.999994845872066,0.600083405342542 L 0.9999957293761643,0.6000829169724878 L 0.9999966576164175,0.6000825201666995 L 0.9999976211332705,0.6000822189689643 L 0.9999986101076692,0.6000820164487427 L 0.999999614461126,0.6000819146698875 L 1.0000006239584274,0.6000819146696116 L 1.0000016283119397,0.6000820164479176 L 1.0000026172864491,0.6000822189675984 L 1.0000035808034669,0.6000825201648068 L 1.0000045090439371,0.6000829169700876 L 1.0000053925483023,0.6000834053396588 L 1.0786996218598448,0.648924342508699 L 1.078699816441574,0.6489244506190244 L 1.0786998271942139,0.6489242282808337 L 1.0786998271942139,0.5818025028435988 L 1.078699814648605,0.5818022559339183 L 1.078699611475435,0.5818021150706965 L 1.0000002030236002,0.5329579778916681 L 1.0000000018140085,0.5329578595766299 L 1.0000000000003642,0.5329578586249469 L 0.9999999981731433,0.5329578595837567 L 0.9999997969826987,0.5329579778878913 L 0.9213005673385235,0.5818020554658958 L 0.9213003641653456,0.5818021963292711 z"
     opacity="1"
     stroke-width="0"
     stroke="#555555"
     fill="#000000"
     fill-rule="evenodd" />
  <path
     style="fill:#ffff00"
     id="path26"
     d="M 0.9213004815816874,1.4469243094752313 L 0.9213006761635932,1.4469242013651749 L 0.9999949650865262,1.3980833833903634 L 0.9999958485899743,1.3980828950228483 L 0.9999967768292533,1.3980824982193534 L 0.9999977403448514,1.3980821970236283 L 0.9999987293177627,1.3980819945051022 L 0.9999997336695503,1.398081892727603 L 1.0000007431650544,1.3980818927283263 L 1.0000017475166962,1.3980819945072644 L 1.0000027364893171,1.3980821970272077 L 1.0000037000044837,1.3980824982243134 L 1.0000046282431942,1.3980828950291384 L 1.0000055117459425,1.3980833833979194 L 1.078699741069136,1.4469243205741906 L 1.0786999356508635,1.4469244286845153 L 1.0786999464035034,1.4469242063463246 L 1.0786999464035034,1.379802480909058 L 1.0786999338578978,1.379802233999406 L 1.0786997306847732,1.3798020931361779 L 1.000000441439135,1.3309580155599514 L 1.0000002402388686,1.330957897250248 L 1.0000002384185402,1.3309578962950566 L 1.0000002365997067,1.3309578972494642 L 1.0000000353973817,1.3309580155604448 L 0.9213008057565365,1.3798020931363826 L 0.921300602583842,1.3798022339993827 L 0.9213005900378487,1.379802480908529 L 0.9213004708294392,1.4469240871369922 L 0.9213004815816874,1.4469243094752313 z"
     opacity="1"
     stroke-width="0"
     stroke="#555555"
     fill="#000000"
     fill-rule="evenodd" />
  <path
     style="fill:#ffff00"
     id="path28"
     d="M 0.9213004237700422,1.2468022177869733 L 0.9213004112248161,1.2468024646972098 L 0.9213005304332256,1.313924190134059 L 0.921300541186245,1.3139244124721008 L 0.921300735767853,1.3139243043618323 L 0.9999949650827836,1.2650833671906891 L 0.9999958485867023,1.2650828788213362 L 0.9999967768266865,1.2650824820161812 L 0.9999977403431929,1.2650821808190014 L 0.9999987293171808,1.265081978299248 L 0.9999997336701766,1.2650818765207674 L 1.0000007431669815,1.2650818765207674 L 1.0000017475199774,1.265081978299248 L 1.0000027364939652,1.2650821808190014 L 1.0000037000104716,1.2650824820161812 L 1.0000046282504558,1.2650828788213362 L 1.0000055117543745,1.2650833671906891 L 1.078699741069136,1.3139243043617272 L 1.0786999356508635,1.313924412472052 L 1.0786999464035034,1.3139241901338612 L 1.0786999464035034,1.2468024646965947 L 1.0786999338578978,1.2468022177869427 L 1.0786997306847732,1.2468020769237145 L 1.0000004414367782,1.1979579993460252 L 1.0000002402433157,1.1979578810402567 L 1.0000002384186568,1.1979578800827924 L 1.0000002365910046,1.1979578810418263 L 1.000000035401669,1.1979579993450344 L 0.9213006269437098,1.246802076923536 L 0.9213004237700422,1.2468022177869733 z"
     opacity="1"
     stroke-width="0"
     stroke="#555555"
     fill="#000000"
     fill-rule="evenodd" />
  <path
     style="fill:#ffff00"
     id="path30"
     d="M 0.9213005429793405,1.512802131002635 L 0.9213005304338803,1.5128023779130026 L 0.921300590038085,1.5799242225587216 L 0.9213006007909272,1.5799244448969478 L 0.9213007953725385,1.5799243367863263 L 0.9999949650830351,1.5310832804166368 L 0.9999958485868701,1.531082792045717 L 0.9999967768269561,1.5310823952390582 L 0.9999977403437361,1.5310820940404586 L 0.9999987293181533,1.5310818915193882 L 0.9999997336717158,1.5310817897397093 L 1.0000007431692055,1.5310817897386435 L 1.000001747522983,1.5310818915162017 L 1.0000027364978277,1.5310820940351837 L 1.0000037000152437,1.531082395231749 L 1.0000046282561676,1.5310827920364476 L 1.0000055117610338,1.531083280405502 L 1.0786998602782303,1.5799242175774364 L 1.0787000548601091,1.5799243256876658 L 1.0787000656123638,1.5799241033493736 L 1.0786999464039544,1.5128024971213512 L 1.0786999338579266,1.5128022502118768 L 1.0786997306847736,1.5128021093489683 L 1.000000441428685,1.463958150974911 L 1.000000240259249,1.463958032683318 L 1.0000002384187043,1.463958031717518 L 1.000000236573338,1.4639580326858461 L 1.0000000354105492,1.463958150973315 L 0.9213007461533324,1.5128019901394172 L 0.9213005429793405,1.512802131002635 z"
     opacity="1"
     stroke-width="0"
     stroke="#555555"
     fill="#000000"
     fill-rule="evenodd" />
  <path
     style="fill:#ffff00"
     id="path32"
     d="M 0.9213004237700971,1.6458022664243794 L 0.9213004112252671,1.6458025133350427 L 0.9213006496420859,1.7129242387715744 L 0.9213006603954906,1.7129244611095138 L 0.9213008549769486,1.7129243529991498 L 0.9999949650850047,1.6640834158316582 L 0.999995848588592,1.6640829274617057 L 0.9999967768283069,1.6640825306559208 L 0.9999977403446089,1.6640822294580868 L 0.9999987293184593,1.6640820269376624 L 0.999999733671386,1.6640819251585002 L 1.000000743168191,1.664081925157815 L 1.0000017475212557,1.664082026935614 L 1.0000027364953812,1.664082229454696 L 1.0000037000120918,1.6640825306512221 L 1.0000046282523454,1.6640829274557472 L 1.0000055117565956,1.6640834158245004 L 1.0786998602782303,1.7129243529991893 L 1.0787000548601091,1.7129244611094188 L 1.0787000656123638,1.7129242387711265 L 1.0786999464039544,1.6458025133335417 L 1.0786999338579528,1.6458022664243166 L 1.07869973068515,1.6458021255613384 L 1.0000004414367782,1.5969580479834153 L 1.0000002402433157,1.5969579296776468 L 1.0000002384186568,1.5969579287201825 L 1.0000002365910046,1.5969579296792165 L 1.000000035401669,1.5969580479824246 L 0.9213006269440855,1.645802125560693 L 0.9213004237700971,1.6458022664243794 z"
     opacity="1"
     stroke-width="0"
     stroke="#555555"
     fill="#000000"
     fill-rule="evenodd" />
</svg>
