<?xml version="1.0" encoding="UTF-8" standalone="no"?>
<svg
   xmlns:dc="http://purl.org/dc/elements/1.1/"
   xmlns:cc="http://creativecommons.org/ns#"
   xmlns:rdf="http://www.w3.org/1999/02/22-rdf-syntax-ns#"
   xmlns:svg="http://www.w3.org/2000/svg"
   xmlns="http://www.w3.org/2000/svg"
   xmlns:sodipodi="http://sodipodi.sourceforge.net/DTD/sodipodi-0.dtd"
   xmlns:inkscape="http://www.inkscape.org/namespaces/inkscape"
   inkscape:version="1.0 (4035a4fb49, 2020-05-01)"
   sodipodi:docname="cable_2.svg"
   id="svg36"
   version="1.1"
   viewBox="0 0 1.9999999858411206 1.7320508956907068"
   height="1.7320508956907068"
   width="1.9999999858411206">
  <metadata
     id="metadata42">
    <rdf:RDF>
      <cc:Work
         rdf:about="">
        <dc:format>image/svg+xml</dc:format>
        <dc:type
           rdf:resource="http://purl.org/dc/dcmitype/StillImage" />
      </cc:Work>
    </rdf:RDF>
  </metadata>
  <defs
     id="defs40" />
  <sodipodi:namedview
     inkscape:current-layer="svg36"
     inkscape:window-maximized="0"
     inkscape:window-y="144"
     inkscape:window-x="170"
     inkscape:cy="0.88010631"
     inkscape:cx="0.76376883"
     inkscape:zoom="181.01934"
     showgrid="false"
     id="namedview38"
     inkscape:window-height="800"
     inkscape:window-width="1179"
     inkscape:pageshadow="2"
     inkscape:pageopacity="0"
     guidetolerance="10"
     gridtolerance="10"
     objecttolerance="10"
     borderopacity="1"
     bordercolor="#666666"
     pagecolor="#ffffff"
     inkscape:document-rotation="0" />
  <desc
     id="desc2">Outline to SVG export</desc>
  <path
     style="fill:#00AEFF"
     id="path8"
     d="M 0.8600002048003803,1.7320508840947564 L 0.8600004397493595,1.732050895690918 L 1.139999860562404,1.732050895690918 L 1.1400000935926715,1.7320508842963094 L 1.1400001066927588,1.732050651355689 L 1.1401774877876167,1.7078189394638539 L 1.1401774899523256,1.7078187921042316 L 1.1407082064431933,1.6837623863150122 L 1.1407082108315107,1.68376223758848 L 1.141590592472304,1.6598842894423813 L 1.1415905991450466,1.659884139410201 L 1.142822976944506,1.6361854833323792 L 1.1428229859639092,1.636185332013097 L 1.1444038101445342,1.6126664447313013 L 1.1444038215590793,1.6126662923249089 L 1.1463311847177606,1.5893282466550152 L 1.1463311985919296,1.5893280930973324 L 1.148603550947153,1.5661713658697811 L 1.148603567335814,1.5661712112382296 L 1.1512193591212658,1.5431962791405966 L 1.1512193780583806,1.5431961236566447 L 1.1541767018695863,1.520403701935631 L 1.1541767234395164,1.5204035453966669 L 1.1574743871302922,1.4977939916155407 L 1.157474411346862,1.497793834352272 L 1.1611106267360332,1.4753677444565951 L 1.1611106536763325,1.47536758634114 L 1.1650842286301806,1.4531250794331594 L 1.165084258291273,1.4531249208061745 L 1.1693934046349352,1.4310663544200963 L 1.1693934370987014,1.4310661951296757 L 1.1740369626904346,1.4091919268581512 L 1.1740369979666627,1.4091917671254492 L 1.179013472275699,1.3875020352330394 L 1.1790135103953325,1.3875018751453367 L 1.1843216220704125,1.3659966796237684 L 1.1843216631032747,1.3659965191109156 L 1.1899604584668637,1.344676217390427 L 1.1899605023407058,1.3446760569155691 L 1.191589036953907,1.3389084901013917 L 1.195928312435813,1.3235406489366164 L 1.1959283592901035,1.3235404881592214 L 1.2006919595499401,1.3076898398591428 L 1.2022245880330422,1.3025900930845962 L 1.2022246377899541,1.3025899324345187 L 1.2026019051939782,1.3014071362121835 L 1.208847973906257,1.2818246692443824 L 1.2088480265948145,1.2818245087519182 L 1.2156527481812585,1.2616728586819859 L 1.2157975163902626,1.2612441389684692 L 1.2157975720203023,1.2612439787213854 L 1.2230722617977567,1.2408486215067245 L 1.2230723204064429,1.2408484615121451 L 1.2306716141423304,1.2206381166951326 L 1.2306716756411877,1.2206379572860808 L 1.238594500455747,1.2006126247757962 L 1.2385945649337584,1.200612465804147 L 1.246840563207197,1.180772145496491 L 1.2468406305506539,1.1807719873150773 L 1.255408967856882,1.161116559847837 L 1.2554090381084015,1.161116402412414 L 1.264299356833064,1.1416457484896043 L 1.2642994299185324,1.141645592015786 L 1.2735111340457685,1.1223597115279553 L 1.2735112099817567,1.1223595560206 L 1.283044061148617,1.1032584488149733 L 1.2830441398021866,1.1032582945722489 L 1.2848177394023317,1.0998533575560323 L 1.292897541970996,1.084341841401249 L 1.2928976234664753,1.0843416882059949 L 1.3022823456859385,1.0670635159001296 L 1.3030716958830402,1.0656102465975064 L 1.3030717800121665,1.0656100948610947 L 1.3135662843633995,1.047063306987205 L 1.313566371130689,1.04706315670209 L 1.3231111781657867,1.0308574692380725 L 1.324381069022025,1.0287013801464924 L 1.32438115837317,1.028701231407527 L 1.3269586673156542,1.0244936944078151 L 1.335516049863777,1.0105245852813824 L 1.3355161417346182,1.0105244381898346 L 1.3469714653170195,0.9925328031724299 L 1.346971559623454,0.9925326578495782 L 1.3587471961627586,0.9747265106782723 L 1.3587472928408602,0.9747263672027456 L 1.3638146107815818,0.9673447954554295 L 1.3708434808138314,0.9571058270203404 L 1.3708435798115435,0.9571056854467385 L 1.3832605577208055,0.9396711693883455 L 1.3832606589206342,0.9396710298557497 L 1.3959986652684346,0.9224228358595861 L 1.395998768622362,0.9224226984001607 L 1.4090581611391395,0.9053613032008241 L 1.4090582664876454,0.9053611679856285 L 1.422439164460023,0.8884870483635685 L 1.4224392718118726,0.8884869153378124 L 1.429736399232192,0.8796011153570672 L 1.4361422713403673,0.8718006077084032 L 1.4361423805758613,0.8718004769775947 L 1.4501678394196116,0.8553027560883678 L 1.450167950395654,0.8553026277723395 L 1.4645163454821286,0.8389939704080908 L 1.4645164581635122,0.8389938444935141 L 1.4791881472171045,0.8228752638778952 L 1.4791882614436027,0.8228751404867185 L 1.4941837213966718,0.8069472922257847 L 1.4941838371407246,0.8069471713283132 L 1.509503544900154,0.7912111282900787 L 1.5095036620483486,0.791211009945775 L 1.5251483329980846,0.7756676065250457 L 1.5251484514070568,0.7756674908144228 L 1.541118324068281,0.7603179190683015 L 1.5411184436776455,0.7603178059838281 L 1.5574141141685405,0.7451631387929105 L 1.5574142348948623,0.7451630283477606 L 1.574036180179297,0.7302045769635498 L 1.5740363018513595,0.7302044692445174 L 1.5909849988490927,0.7154433065473877 L 1.5909851214756117,0.7154432014770563 L 1.5966537737131683,0.7106649479726775 L 1.6082610471307865,0.7008808771636484 L 1.6082610477497086,0.7008808778979029 L 1.6082611704858094,0.7008807748639267 L 1.625864682511092,0.6865184810292816 L 1.6258648066549222,0.6865183813785533 L 1.6437963819551038,0.6723578465714242 L 1.6437965066887346,0.6723577496590994 L 1.662056622253225,0.658400344739641 L 1.6620567474725356,0.6584002505711697 L 1.6806456417515419,0.6446475253102543 L 1.6806457674990702,0.6446474337822785 L 1.6995640366613451,0.6311011762995276 L 1.699564162646184,0.631101087549667 L 1.7188116875463935,0.6177629072007158 L 1.7188118139365827,0.6177628210380238 L 1.7383894291385427,0.6046345655684442 L 1.7383895555628301,0.6046344821723961 L 1.758297022767377,0.5917177609050591 L 1.7582971493633872,0.5917176801090673 L 1.778534826187592,0.5790144600756231 L 1.7785349528367131,0.5790143818856024 L 1.7991048660860791,0.5665254974693047 L 1.7991049924094997,0.5665254220391297 L 1.8199997225428526,0.5542563841145526 L 1.819999917719645,0.5542562562966477 L 1.8199998110742561,0.5542560487920547 L 1.8106217384615646,0.5380126834395952 L 1.8106217384423464,0.5380126834081267 L 1.806299723197417,0.5305267664732656 L 1.7850000858506803,0.49363458160048396 L 1.7850000858368231,0.49363458157779366 L 1.7617794074143847,0.45341529204613534 L 1.7500000000252842,0.4330126643618785 L 1.7500000000077605,0.43301266433318447 L 1.7149999141693115,0.3723909258842467 L 1.714999914169445,0.37239092588416967 L 1.7149999141620675,0.37239092587169975 L 1.7035209425766666,0.3525087591737617 L 1.689378261614197,0.32801276453708733 L 1.6893782615809056,0.3280127644825748 L 1.6800000708790253,0.31176940106432943 L 1.6799999433459936,0.3117692033655611 L 1.679999734867624,0.3117693123324941 L 1.6555551419304049,0.32612274281733866 L 1.6555550746177616,0.326122785297065 L 1.6314433939757604,0.34076223711215337 L 1.631443327049979,0.3407622807460972 L 1.60766018662028,0.35569111201616066 L 1.607660120149785,0.35569115678357693 L 1.5842092154852905,0.3709071322821838 L 1.5842091495028254,0.37090717818297564 L 1.5610922686810125,0.38640922504745984 L 1.561092203226458,0.38640927207529907 L 1.5383113728285014,0.4021959895633596 L 1.5383113079259045,0.4021960377223278 L 1.5158685544385508,0.4182662337686183 L 1.5158684901237214,0.4182662830537029 L 1.4937660784805622,0.4346185271596998 L 1.4937660147894845,0.4346185775642698 L 1.4720059715109504,0.45125149883451704 L 1.4720059084800585,0.45125155034998216 L 1.4505902601208025,0.4681636586547291 L 1.4505901977788245,0.4681637112775863 L 1.4295212092702563,0.48535342711084 L 1.4295211476489316,0.4853534808342698 L 1.408800964703475,0.5028193141083138 L 1.4088009038392677,0.5028193689198736 L 1.3884317914418312,0.5205595612762423 L 1.3884317313613004,0.5205596171710956 L 1.3684159543947143,0.5385725593492255 L 1.3684158951375536,0.538572616308795 L 1.3487555993982026,0.5568564605279297 L 1.3487555409898437,0.5568565185454436 L 1.3294529913917772,0.5754094767082033 L 1.3294529338645564,0.5754095357690385 L 1.3105105145637734,0.594229581334549 L 1.3105104579487552,0.5942296414234577 L 1.29193031466816,0.6133148670769086 L 1.2919302589983872,0.6133149281743181 L 1.273714537550357,0.6326631880925473 L 1.2737144828441498,0.6326632501939563 L 1.2558656865016289,0.6522724583280906 L 1.2558656327954434,0.6522725214072304 L 1.2383859073343937,0.6721404723729575 L 1.2383858546558046,0.6721405364107285 L 1.2212773458491573,0.6922649056126434 L 1.2212772942195986,0.6922649705960376 L 1.2045422669621493,0.712643493144074 L 1.2045422164126596,0.7126435590461156 L 1.1881828165205457,0.7332736718787186 L 1.1881827670683138,0.7332737386885145 L 1.1722012593810949,0.7541531173885936 L 1.1722012110618851,0.7541531850675137 L 1.1565993838584385,0.7752791472499062 L 1.1565993366797873,0.7752792157966794 L 1.1413796931647515,0.7966491391001578 L 1.1413796471620603,0.7966492084716484 L 1.1265438563842096,0.8182604105332433 L 1.1265438115683926,0.8182604807194785 L 1.1120940191981972,0.8401102794617669 L 1.1120939755927086,0.8401103504323646 L 1.0980320889857904,0.8621959444334208 L 1.0980320466089921,0.8621960161628283 L 1.084359973085837,0.8845144848438152 L 1.0843599319565158,0.8845145573028106 L 1.0710793404609378,0.9070630396261133 L 1.0710793005926817,0.9070631127920973 L 1.0581919792375873,0.929838688178223 L 1.0581919406453342,0.9298387620243279 L 1.045699677536393,0.9528383907054566 L 1.0456996402369352,0.9528384651976385 L 1.0336038659129076,0.9760592265115349 L 1.0336038299160115,0.9760593016266358 L 1.0219062132746979,0.999498036597182 L 1.0219061785929275,0.9994981123040073 L 1.010608150139924,1.0231518407277633 L 1.0106081167840506,1.0231519169953367 L 0.9997110474323029,1.0470175394358212 L 0.9997110154100614,1.0470176162371776 L 0.9892162760321342,1.0710920929506982 L 0.9892162453545108,1.0710921702471707 L 0.9791249684782589,1.095372282520303 L 0.9791249391479219,1.0953723602906287 L 0.9694383764288946,1.1198551280086577 L 0.9694383484540962,1.119855206214217 L 0.9601575727897506,1.1445374107264406 L 0.9601575461744906,1.1445374893350826 L 0.9512835112483597,1.169416031205962 L 0.9512834859940437,1.1694161101901217 L 0.942817205080989,1.1944878900180391 L 0.9428171811888386,1.194487969348242 L 0.9347595483286286,1.2197502454469042 L 0.934759525803874,1.2197503250737187 L 0.92711119669987,1.2451996402678651 L 0.9271111755375044,1.2451997201718525 L 0.9198729250404064,1.2708330942916488 L 0.9198729052377119,1.270833174444888 L 0.9130455081873194,1.2966478657971379 L 0.9130454897444774,1.2966479461535656 L 0.9066294230063788,1.3226409744715109 L 0.9066294059182728,1.3226410549994263 L 0.9006252059529652,1.3488092016135425 L 0.9006251902115225,1.3488092822932618 L 0.8950334530395628,1.3751500439789965 L 0.8950334386419201,1.3751501247579174 L 0.8898544623336245,1.4016602827414695 L 0.8898544492685618,1.4016603636051816 L 0.8850887106415157,1.428337414657076 L 0.8850886989026757,1.4283374955571642 L 0.8807363768063166,1.4551786977808596 L 0.8807363663816818,1.4551787786979766 L 0.8767978780451277,1.4821812711811784 L 0.8767978689246869,1.4821813520759044 L 0.8732733931813175,1.509342631427035 L 0.8732733853528316,1.509342712266877 L 0.8701631010331407,1.5366600366853438 L 0.8701630944829551,1.5366601174437247 L 0.8674671804157216,1.5641311027657632 L 0.8674671751296794,1.5641311834164948 L 0.86518586974202,1.591753445556592 L 0.8651858657059839,1.5917535260545228 L 0.8633191690239308,1.6195243231526175 L 0.8633191662211984,1.6195244034764078 L 0.8618671378651512,1.6474417090016795 L 0.8618671362789516,1.6474417891281312 L 0.860829955077606,1.6755028613407803 L 0.8608299546906167,1.6755029412345355 L 0.8602076206657647,1.7037058727711405 L 0.8602076214596652,1.7037059524087046 L 0.8600001949238371,1.732050649067853 L 0.8600002048003803,1.7320508840947564 z"
     opacity="1"
     stroke-width="0"
     stroke="#555555"
     fill="#000000"
     fill-rule="evenodd" />
  <path
     style="fill:#005DFF"
     id="path10"
     d="m 0.87499963,1.7320514 h 2.4e-7 0.25000493 2e-7 v -2e-7 l 1.79e-4,-0.024452 v -1e-7 l 1.979e-4,-0.00897 3.377e-4,-0.015305 v -2e-7 l 8.907e-4,-0.024102 v -10e-8 l 6.032e-4,-0.011599 6.41e-4,-0.012326 v -2e-7 l 0.0012,-0.017799 3.998e-4,-0.00595 v -1e-7 l 0.00195,-0.023567 v -2e-7 l 0.00139,-0.01419 9.027e-4,-0.0092 v 0 -1e-7 l 0.00264,-0.023208 v -10e-8 l 0.00299,-0.023026 1e-7,-1e-7 0.00333,-0.022845 v -2e-7 l 0.00367,-0.022663 v -2e-7 l 0.00402,-0.02248 v -1e-7 l 0.00436,-0.022297 v -2e-7 l 0.00469,-0.022114 v -10e-8 l 0.00503,-0.02193 1e-7,-2e-7 0.00537,-0.021745 v -2e-7 l 0.0057,-0.021561 1e-7,-1e-7 0.00192,-0.0068 0.00412,-0.014575 v -2e-7 l 0.00454,-0.015112 0.00183,-0.00608 1e-7,-2e-7 0.0067,-0.021006 v -1e-7 l 0.00703,-0.020821 10e-8,-1e-7 0.00736,-0.020636 v -2e-7 l 0.00769,-0.02045 1e-7,-2e-7 0.00802,-0.020264 v -2e-7 l 0.00834,-0.020078 1e-7,-2e-7 0.00867,-0.019892 v -1e-7 l 0.009,-0.019706 1e-7,-1e-7 0.00932,-0.01952 v -2e-7 l 0.00965,-0.019333 1e-7,-2e-7 0.00997,-0.019147 1e-7,-2e-7 0.00115,-0.00211 0.00915,-0.016846 1e-7,-1e-7 0.00447,-0.0079 0.00615,-0.010872 10e-8,-2e-7 0.010947,-0.018586 1e-7,-1e-7 5.635e-4,-9.199e-4 0.010707,-0.017479 1e-7,-1e-7 0.00547,-0.008594 0.00612,-0.009617 v 0 l 1e-7,-1.4e-7 0.011919,-0.0180228 10e-8,-1.4e-7 0.00479,-0.006975 0.00745,-0.0108595 1e-7,-1.4e-7 0.012567,-0.0176454 1e-7,-1.4e-7 0.00992,-0.0134276 0.00297,-0.004028 2e-7,-1.4e-7 0.013216,-0.017266 1e-7,-1.4e-7 0.01354,-0.0170753 10e-8,-1.4e-7 0.00506,-0.006163 0.0088,-0.0107207 1e-7,-1.4e-7 0.013609,-0.016008 5.816e-4,-6.8408e-4 1e-7,-1.4e-7 0.014516,-0.0164993 1e-7,-1.4e-7 0.014842,-0.0163056 1e-7,-1.4e-7 0.00632,-0.006713 0.00885,-0.009398 10e-8,-1.4e-7 0.015495,-0.0159155 1e-7,-1.4e-7 0.00542,-0.005389 0.010397,-0.0103296 1e-7,-1.4e-7 0.016149,-0.0155211 1e-7,-1.5e-7 0.016476,-0.0153223 1e-7,-1.4e-7 0.016804,-0.0151221 1e-7,-1.4e-7 0.017132,-0.0149207 10e-8,-1.4e-7 3.968e-4,-3.3447e-4 0.017064,-0.0143834 1e-7,-1.4e-7 0.017789,-0.0145137 10e-8,-1.4e-7 0.018118,-0.014308 1e-7,-1.4e-7 0.018448,-0.0141008 10e-8,-1.4e-7 0.018777,-0.0138919 2e-7,-1.4e-7 0.019108,-0.0136815 2e-7,-1.4e-7 0.019437,-0.0134693 1e-7,-1.4e-7 0.012925,-0.008667 0.00684,-0.004588 1e-7,-1.4e-7 0.020097,-0.0130399 2e-7,-1.4e-7 0.00428,-0.002686 0.016149,-0.0101367 1e-7,-1.4e-7 0.02076,-0.012604 10e-8,-1.4e-7 0.021085,-0.0123807 2e-7,-1.4e-7 -1e-7,-2.1e-7 -0.00837,-0.014503 v 0 l -0.022876,-0.0396234 v 0 l -0.031235,-0.0541258 -0.031251,-0.0541266 v 0 l -0.010249,-0.017752 -0.012628,-0.0218713 -0.00837,-0.014503 -1e-7,-2e-7 -2e-7,1.1e-7 -0.024255,0.0142418 v 4e-8 l -0.023923,0.0145243 -1e-7,4e-8 -0.023594,0.0148096 -1e-7,5e-8 -0.023262,0.0150929 -10e-8,4e-8 -0.022927,0.0153749 -10e-8,4e-8 -0.022592,0.0156556 -10e-8,5e-8 -0.022255,0.015935 -1e-7,6e-8 -0.021915,0.016213 v 5e-8 l -0.021573,0.0164896 v 5e-8 l -0.021229,0.0167647 h -1e-7 l -0.020884,0.0170383 h -1e-7 l -0.020536,0.0173103 h -1e-7 l -0.020186,0.0175806 v 0 l -0.019835,0.0178494 h -10e-8 l -0.01948,0.0181162 h -10e-8 l -0.019124,0.0183813 v 0 l -0.018766,0.0186445 h -10e-8 l -0.018405,0.0189058 v 1.4e-7 L 1.2847222,0.64286 h -1e-7 l -0.017678,0.0194222 h -10e-8 L 1.249732,0.6819594 v 0 L 1.232789,0.7018895 h -10e-8 l -0.016572,0.0201807 h -1e-7 l -0.0162,0.020429 v 0 L 1.1841918,0.763174 h -1e-7 l -0.015448,0.0209183 v 0 l -0.01507,0.0211591 v 1.4e-7 l -0.014689,0.0213975 v 1.4e-7 l -0.014307,0.0216332 v 0 l -0.013922,0.0218662 h -10e-8 l -0.013536,0.0220966 v 0 l -0.013149,0.0223242 v 0 l -0.012759,0.022549 v 1.4e-7 l -0.012368,0.022771 v 1.5e-7 l -0.011976,0.0229902 -1e-7,1.5e-7 -0.011582,0.0232063 v 0 l -0.011186,0.02342 v 2e-7 l -0.01079,0.02363 v 0 l -0.010392,0.023838 v 2e-7 l -0.009992,0.024042 -3e-8,1e-7 -0.009592,0.024244 -3e-8,2e-7 -0.009191,0.024443 -3e-8,10e-8 -0.008788,0.024638 -3e-8,10e-8 -0.008385,0.024831 h -2e-8 l -0.007981,0.025021 -2e-8,2e-7 -0.007576,0.025208 -3e-8,1e-7 -0.00717,0.025392 -2e-8,1e-7 -0.006764,0.025574 -1e-8,2e-7 -0.006357,0.025753 -1e-8,1e-7 -0.005949,0.025928 h -1e-8 l -0.005541,0.026101 -1e-8,2e-7 -0.005132,0.026272 -10e-9,2e-7 -0.004723,0.02644 h -10e-9 l -0.004314,0.026605 h -1e-8 l -0.003904,0.026767 -10e-9,1e-7 -0.003494,0.026927 -1e-8,1e-7 -0.003084,0.027085 -10e-9,1e-7 -0.002673,0.02724 h -1e-8 l -0.002262,0.027393 v 1e-7 l -0.001851,0.027543 v 0 l -0.00144,0.027691 v 2e-7 l -0.001029,0.027837 v 1e-7 l -6.1752e-4,0.027981 v 1e-7 l -2.0588e-4,0.028124 z"
     opacity="1"
     stroke-width="0"
     stroke="#555555"
     fill="#000000"
     fill-rule="evenodd" />
  <path
     style="fill:#00AEFF"
     id="path6"
     d="M 0.9000001070488812,1.7320508840946927 L 0.9000003419984645,1.732050895690918 L 1.0999998987085662,1.732050895690918 L 1.1000001317395154,1.7320508842962383 L 1.100000144838477,1.7320506513548726 L 1.1001816982598522,1.7072314761193284 L 1.1001817004253172,1.7072313286909633 L 1.1006063082098032,1.6879861344327518 L 1.1007255299368297,1.682582452775801 L 1.1007255343260502,1.682582304031753 L 1.1016300888943338,1.6581066405037048 L 1.1016300955662566,1.6581064904973206 L 1.1022039229797678,1.6470719641739628 L 1.1028938254090335,1.633805350664339 L 1.1028938344295316,1.6338051993307816 L 1.1045155473962627,1.6096788215072886 L 1.1045155588096305,1.6096786691194607 L 1.1049895589163965,1.6039391311824958 L 1.1064934667065927,1.5857287221713616 L 1.1064934805836404,1.585728568585069 L 1.1088263912588783,1.5619555293158494 L 1.1088264076414762,1.5619553747421355 L 1.11151277132647,1.538360077503978 L 1.111512790271267,1.5383599219578024 L 1.1145511763964318,1.5149434396239783 L 1.1145511979631633,1.514943283111094 L 1.1158727382609497,1.5058825674427414 L 1.1179404143910718,1.4917062116095867 L 1.1179404386055074,1.4917060543606373 L 1.120660113791473,1.474932628275885 L 1.1216789355674412,1.468649108890583 L 1.1216789625052261,1.4686489507889435 L 1.1257656670704164,1.4457729657426963 L 1.125765696744197,1.4457728070493399 L 1.130199178377161,1.4230783783069778 L 1.1301992108253083,1.4230782190941005 L 1.1349781581765865,1.4005657042573898 L 1.13497819345678,1.4005655445053269 L 1.1401014143936827,1.3782361355988184 L 1.1401014525249666,1.378235975463322 L 1.1455678741378554,1.3560897915838384 L 1.1455679151546496,1.3560896311343646 L 1.151376464545171,1.3341272681872172 L 1.1513765084401812,1.3341271076358694 L 1.1575258742821881,1.3123491615867355 L 1.157525921114968,1.3123490008840883 L 1.164015268914377,1.2907558292969443 L 1.1640153186797069,1.2907556686191874 L 1.1708435755639626,1.269347986569809 L 1.170843628244823,1.269347826100439 L 1.1739029967999863,1.2602876898981492 L 1.1780097213133889,1.2481258719393715 L 1.1780097769645297,1.248125711632186 L 1.1818578041998795,1.2373375164365406 L 1.185512990946518,1.2270899621216902 L 1.1855130495394057,1.2270898021713066 L 1.1933525499939086,1.206240614771231 L 1.1933526115097013,1.2062404553192858 L 1.201527444765924,1.185578425982472 L 1.2015275092180602,1.1855782670750559 L 1.2100370792364574,1.1651036341249572 L 1.210037146596019,1.1651034759055223 L 1.2188807381555558,1.1448167160315517 L 1.218880808381887,1.1448165586519683 L 1.2280577062423712,1.1247180293947696 L 1.2280577793472343,1.124717872878542 L 1.2375675066905274,1.1048080509855092 L 1.2375675826218697,1.1048078954875256 L 1.2474096626673794,1.0850871384321163 L 1.2474097413640926,1.0850869841062352 L 1.257583578108439,1.0655557686158086 L 1.2575836595470038,1.0655556155284232 L 1.2680888953919822,1.0462142991553613 L 1.2680889795363062,1.0462141473907833 L 1.2789252569105551,1.0270633260648159 L 1.2789253436825716,1.0270631757715007 L 1.2900923050257243,1.0081033262080512 L 1.2900923943693692,1.008103177481473 L 1.3015898013149076,0.9893347168288626 L 1.3015898931825722,0.9893345697419766 L 1.3134175073670544,0.9707581535696175 L 1.3134176016957315,0.9707580082126375 L 1.3255753040003515,0.9523742324396652 L 1.3255754006707783,0.9523740889760812 L 1.3380629527577985,0.9341834899467472 L 1.3380630517298717,0.9341833484094654 L 1.3392074318528868,0.9325765278123542 L 1.3508803344353693,0.9161866413398513 L 1.3508803414405037,0.9161866463289189 L 1.350880435658151,0.9161865017751977 L 1.3640275682759124,0.8983843422262726 L 1.3640276716299036,0.8983842047669266 L 1.3775045350882216,0.8807774270552785 L 1.3775046404171867,0.8807772918648832 L 1.3913109963466324,0.8633665516232666 L 1.3913111037134236,0.8633664185786193 L 1.405447190584692,0.8461527290597917 L 1.4054472998171932,0.8461525983324567 L 1.4140665926005005,0.8360139731858914 L 1.419913236989969,0.8291367342614999 L 1.4199133479607047,0.8291366059513402 L 1.4347090162992044,0.8123195209702161 L 1.4347091289909017,0.8123193950439501 L 1.4498347670088716,0.7957021023767035 L 1.4498348812455355,0.7957019789747617 L 1.455630682700578,0.7895458258407572 L 1.4652903698575868,0.7792855514289441 L 1.4652904855695228,0.7792854305648493 L 1.48107594402377,0.7630708814385229 L 1.4810760612040847,0.7630707630615983 L 1.4971918472570334,0.7470593439787611 L 1.497191965651286,0.7470592282826438 L 1.5136379602308956,0.7312520120587521 L 1.5136380798231106,0.7312518989901132 L 1.53041428295326,0.7156502565751016 L 1.5304144037113236,0.715650146100761 L 1.547521292368428,0.7002553291273264 L 1.547521414042759,0.7002552214066354 L 1.5649587499546005,0.6850685411185159 L 1.5649588725053012,0.6850684361124638 L 1.5827266556792914,0.6700912634814632 L 1.5827267791322097,0.6700911611001769 L 1.5919175298118715,0.6625927122346241 L 1.60082548652968,0.6553249862051435 L 1.6008256106066656,0.6553248866081256 L 1.6192548847129364,0.6407711995473278 L 1.6192550094701483,0.6407711026161789 L 1.6380150887719442,0.626431512732254 L 1.6380152140137583,0.6264314185469378 L 1.6571060986094528,0.6123073563499121 L 1.657106224337228,0.612307264836426 L 1.6765279143320841,0.5984005184601852 L 1.6765280403314389,0.5984004297001446 L 1.6962804165998255,0.5847124296721342 L 1.6962805429207826,0.584712343556076 L 1.714233608011365,0.5726732826015386 L 1.7163636055137643,0.5712449376568166 L 1.7163637320019651,0.5712448542179956 L 1.726570606388833,0.5646222530775896 L 1.7367774810271306,0.5579996517740465 L 1.7367776076227954,0.5579995709783553 L 1.739444695789675,0.5563254373327811 L 1.757521804716483,0.5449784197707452 L 1.7575219313696167,0.5449783415783627 L 1.7707481026410619,0.536948176850629 L 1.7785977688477683,0.5321823144249954 L 1.7785978951592007,0.5321822390020122 L 1.7999997416167486,0.5196154162685386 L 1.7999999367932027,0.5196152884507369 L 1.7999998301483837,0.5196150809462334 L 1.7933012247574671,0.508012652481871 L 1.7933012247235691,0.5080126524263652 L 1.7827349289298497,0.4897114038681111 L 1.774999976160132,0.4763140678440229 L 1.7626512968506576,0.45492550049941133 L 1.75000000003093,0.43301269417397953 L 1.7500000000094937,0.433012694138879 L 1.7249999046325684,0.3897114396095274 L 1.7066986560876891,0.35801273585324683 L 1.7066986560838526,0.3580127358469647 L 1.7000000518042155,0.34641042851414405 L 1.6999999242724546,0.34641023081616257 L 1.6999997157939482,0.3464103397830326 L 1.6760622391877715,0.3604659854549914 L 1.676062171871916,0.36046602793681737 L 1.6524566538369796,0.3747982178293641 L 1.6524565869176013,0.3747982614590571 L 1.6291798475722614,0.38940913173913205 L 1.6291797811008508,0.3894091765069081 L 1.6062349198723962,0.4042967304116985 L 1.606234853889096,0.404296776312862 L 1.5836235396690759,0.41945973235001566 L 1.5836234742131048,0.41945977937876766 L 1.5613473759606427,0.43489670699925215 L 1.5613473110537583,0.43489675516153414 L 1.539408216773573,0.45060640273968877 L 1.5394081524649792,0.45060645202005123 L 1.5178076119428954,0.4665873293795259 L 1.5178075482535125,0.4665873797824832 L 1.4965473495558503,0.48283811604848564 L 1.4965472865201244,0.4828381675678032 L 1.4756294561165808,0.49935718326828255 L 1.475629393778883,0.4993572358874573 L 1.455055362276081,0.5161430408178217 L 1.4550553006504965,0.5161430945449319 L 1.4348273328377994,0.533194079509846 L 1.4348272719749808,0.5331941343202655 L 1.4149466792345586,0.5505088687327114 L 1.4149466191576436,0.5505089246240414 L 1.3954156664183197,0.5680854415526803 L 1.3954156071547263,0.568085498518477 L 1.3762360824338657,0.5859223675466585 L 1.3762360240291733,0.5859224255607254 L 1.3574095963359047,0.6040177392601209 L 1.357409538811105,0.6040177983182482 L 1.3389381154353313,0.6223697685879243 L 1.3389380588184254,0.6223698286785962 L 1.3208236662261652,0.6409766078537886 L 1.320823610555846,0.6409766689517287 L 1.3030679177686695,0.6598362899786083 L 1.303067863059853,0.6598363520831777 L 1.2856730156542033,0.678946967403495 L 1.2856729619523455,0.6789470304775806 L 1.2686405097818783,0.6983064941802007 L 1.2686404571006862,0.6983065582210366 L 1.2519724265958696,0.7179128438761343 L 1.251972374967931,0.7179129088574525 L 1.2356704350712415,0.7377639898907014 L 1.235670384521298,0.737764055793177 L 1.219736442567902,0.757857607633115 L 1.2197363931177843,0.7578576744396927 L 1.2041722371963404,0.7781916109812169 L 1.2041721888721082,0.7781916786671813 L 1.1889796071071406,0.7987636753480007 L 1.1889795599323896,0.7987637438892023 L 1.1741602212462774,0.8195714761379468 L 1.1741601752416377,0.819571545512235 L 1.1597157485546188,0.8406126887593375 L 1.1597157037381776,0.8406127589467832 L 1.1456479771303234,0.8618849290917734 L 1.1456479335259815,0.861885000060688 L 1.131958456728608,0.8833856937007762 L 1.131958414354192,0.8833857654257389 L 1.118648617906927,0.9051125983326277 L 1.118648576773147,0.9051126707994404 L 1.105720367889224,0.9270630801936184 L 1.1057203280243406,0.9270631533535547 L 1.0931747797304066,0.9492345760147773 L 1.0931747411367847,0.9492346498632778 L 1.0810136414248106,0.9716245826487347 L 1.081013604125699,0.971624657140224 L 1.0692381451744342,0.9942304773117991 L 1.0692381091761063,0.9942305524301885 L 1.057849840619937,1.0170496375534803 L 1.0578498059399808,1.0170497132565819 L 1.046849800724219,1.0400794406289045 L 1.0468497673677921,1.040079516897655 L 1.0362393367480913,1.0633173832289307 L 1.0362393047261107,1.063317460029596 L 1.0260197599959937,1.0867606043397577 L 1.0260197293181488,1.086760681636629 L 1.0161920241859477,1.1104066004775717 L 1.0161919948548725,1.1104066782500535 L 1.0067574405641657,1.1342526299660285 L 1.0067574125901897,1.1342527081694955 L 0.9977168436520798,1.1582960700798406 L 0.9977168170362797,1.1582961486902483 L 0.9890712467081533,1.1825342982712668 L 0.9890712214542143,1.1825343772544965 L 0.9808216034228585,1.2069645726928562 L 0.98082157953143,1.2069646520205157 L 0.9729688078447016,1.2315845092304594 L 0.972968785318996,1.231584588860624 L 0.9655136348685839,1.2563912467721314 L 0.965513613705667,1.2563913266791817 L 0.9584569189405416,1.281382162781008 L 0.9584568991398232,1.2813822429266555 L 0.9517992561328971,1.3065548729950516 L 0.9517992376892116,1.3065549533550298 L 0.9455414808829616,1.3319067549196542 L 0.9455414637948504,1.3319068354480412 L 0.9396840700653845,1.3574353050323102 L 0.939684054324674,1.3574353857082229 L 0.934227738914171,1.3831380200308703 L 0.934227724515592,1.3831381008150856 L 0.9291730238829811,1.4090123964870351 L 0.929173010818777,1.4090124773455837 L 0.9245204018133737,1.4350560502056149 L 0.9245203900742159,1.4350561311075882 L 0.9202703495494257,1.4612665969705554 L 0.9202703391244575,1.4612666778914398 L 0.9164234631190691,1.4876416527215597 L 0.9164234539995669,1.4876417336083911 L 0.9129799213722254,1.5141788330654984 L 0.9129799135430907,1.5141789139123645 L 0.9099403203266931,1.540875992433012 L 0.9099403137769242,1.5408760731879252 L 0.9073048984249131,1.56773074647981 L 0.9073048931390196,1.5677308271284134 L 0.9050741324910913,1.594740949558555 L 0.9050741284549846,1.5947410300575555 L 0.903248260956269,1.6219044557985487 L 0.9032482581534313,1.6219045361303728 L 0.9018277010453281,1.6492191195465349 L 0.9018276994594432,1.649219199663424 L 0.9008125719798533,1.6766827948703142 L 0.9008125715928722,1.6766828747686902 L 0.900203350587819,1.7042935746115053 L 0.9002033513814895,1.7042936542366505 L 0.9000000971733663,1.7320506490671497 L 0.9000001070488812,1.7320508840946927 z"
     opacity="1"
     stroke-width="0"
     stroke="#555555"
     fill="#000000"
     fill-rule="evenodd" />
  <path
     style="fill:#005DFF"
     id="path12"
     d="M 1.6075389611569801,0.42909443217160925 L 1.6075391598319477,0.42909453502755124 L 1.6922924114358806,0.4678668193420105 L 1.6922933069886974,0.46786728505590786 L 1.6922941510294838,0.4678678386798166 L 1.6922949349582725,0.4678684745728389 L 1.6922956507875793,0.4678691862558338 L 1.6922962912237889,0.4678699664774325 L 1.692296849741469,0.46787080728792396 L 1.6922973206498595,0.4678717001202539 L 1.6922976991508543,0.46787263587731565 L 1.6922979813878907,0.4678736050246403 L 1.6922981644852435,0.46787459768754436 L 1.6922982465773257,0.4678756037517429 L 1.6951438114356618,0.5598611817387206 L 1.6951438288920946,0.5598614025043657 L 1.695144020699721,0.559861291815472 L 1.7490163148180966,0.5252257734195773 L 1.749016511433417,0.525225632770171 L 1.7490165253245495,0.5252253914262779 L 1.749745605569526,0.4331623510859253 L 1.7497456025563367,0.43316214821958055 L 1.7497456011904977,0.4331621266599507 L 1.7497453962980685,0.4331620166264711 L 1.7497453912722372,0.433162013773703 L 1.6665799341943919,0.39114086552081645 L 1.6665797240058553,0.3911407714998928 L 1.666579524652234,0.39114088672700753 L 1.6075391432402233,0.42909430218399824 L 1.6075389611569801,0.42909443217160925 z"
     opacity="1"
     stroke-width="0"
     stroke="#555555"
     fill="#000000"
     fill-rule="evenodd" />
  <path
     style="fill:#005DFF"
     id="path14"
     d="M 1.4965982662349548,0.5099468197172731 L 1.4965984726322268,0.509946906458142 L 1.584226260610453,0.5418478479322523 L 1.5842271904769318,0.5418482406661104 L 1.5842280760141492,0.541848725140453 L 1.5842289081994412,0.541849296419012 L 1.5842296785537417,0.5418499486810785 L 1.5842303792279764,0.5418506752808094 L 1.5842310030830344,0.5418514688149414 L 1.5842315437625094,0.5418523211982222 L 1.5842319957574635,0.5418532237457907 L 1.584232354462559,0.5418541672616658 L 1.5842326162229792,0.5418551421324441 L 1.5842327783716699,0.5418561384252495 L 1.5944070538255937,0.6332674510955633 L 1.5944070908673804,0.6332676790925259 L 1.5944072816673478,0.6332675489000467 L 1.6452560834742913,0.5946926184136057 L 1.6452562685120113,0.5946924630177477 L 1.6452562637597983,0.5946922214308161 L 1.6388926660531555,0.5029052340083509 L 1.638892648639577,0.5029050443414828 L 1.6388926445682328,0.5029050154515112 L 1.638892434544809,0.5029049226309874 L 1.6388924265761837,0.5029049188870967 L 1.552686909833571,0.46739193859713557 L 1.552686692899475,0.4673918610025391 L 1.5526865029802248,0.4673919914326058 L 1.4965984377921004,0.5099466758702749 L 1.4965982662349548,0.5099468197172731 z"
     opacity="1"
     stroke-width="0"
     stroke="#555555"
     fill="#000000"
     fill-rule="evenodd" />
  <path
     style="fill:#005DFF"
     id="path16"
     d="M 1.392468474627757,0.6000232643463932 L 1.392468687702033,0.6000233332148592 L 1.4825306828914528,0.624357095017852 L 1.4825316427931319,0.6243574071410184 L 1.4825325663402233,0.6243578144405082 L 1.4825334441233329,0.6243583127666233 L 1.4825342671993245,0.6243588970422574 L 1.4825350271824356,0.6243595613146229 L 1.4825357163297141,0.6243602988158993 L 1.4825363276199066,0.6243611020321871 L 1.4825368548249924,0.6243619627800607 L 1.4825372925736366,0.6243628722899447 L 1.4825376364059155,0.6243638212954602 L 1.4825378828187556,0.6243648001278344 L 1.500453661633668,0.7145383279831804 L 1.5004537179468216,0.7145385519526286 L 1.5004538970110082,0.714538406111958 L 1.547702128809543,0.6719396578124476 L 1.5477022997151513,0.671939487676174 L 1.547702275066244,0.6719392477855499 L 1.5337922911156843,0.5810338083916718 L 1.5337922580429888,0.5810336204475295 L 1.5337922516483637,0.5810335922011586 L 1.5337920344654863,0.5810335169567913 L 1.5337920264399472,0.5810335139668853 L 1.4449100366982093,0.5527411225568056 L 1.444909813680292,0.5527410630346667 L 1.444909635123064,0.5527412093124562 L 1.3924686334365672,0.6000231064753271 L 1.392468474627757,0.6000232643463932 z"
     opacity="1"
     stroke-width="0"
     stroke="#555555"
     fill="#000000"
     fill-rule="evenodd" />
  <path
     style="fill:#005DFF"
     id="path18"
     d="M 1.296369812654857,0.6991069244116603 L 1.2963700310731325,0.6991069739020472 L 1.3882819094926346,0.7152712921692459 L 1.38828289350776,0.7152715169479329 L 1.3882838498508678,0.7152718397777421 L 1.3882847687786266,0.7152722573696471 L 1.3882856409288977,0.7152727654691746 L 1.388286457416116,0.7152733588997499 L 1.3882872099218182,0.7152740316154355 L 1.3882878907793916,0.7152747767625283 L 1.3882884930521828,0.7152755867493863 L 1.388289010604169,0.7152764533237725 L 1.3882894381624726,0.7152773676569296 L 1.3882897713710818,0.7152783204335289 L 1.4142121560681808,0.8034509992445484 L 1.4142122322323512,0.8034512172368744 L 1.4142123975268832,0.8034510559937229 L 1.457346629188868,0.7569274924061759 L 1.4573467839389789,0.7569273080310175 L 1.4573467384651555,0.7569270716543517 L 1.4355478818402156,0.6676201018276344 L 1.4355478319802235,0.6676199157624997 L 1.435547823469406,0.6676198892173036 L 1.4355476001347054,0.6676198331696518 L 1.4355475922857577,0.6676198310055301 L 1.3444974353343553,0.6472024244650071 L 1.3444972075802584,0.6472023846300647 L 1.3444970425107408,0.647202546527579 L 1.2963699567457443,0.6991067529658702 L 1.296369812654857,0.6991069244116603 z"
     opacity="1"
     stroke-width="0"
     stroke="#555555"
     fill="#000000"
     fill-rule="evenodd" />
  <path
     style="fill:#005DFF"
     id="path20"
     d="M 1.2095531434440776,0.8067570832101963 L 1.2095533656484483,0.8067571121782728 L 1.3025994436841646,0.8142972940584714 L 1.3026004443732582,0.8142974262611954 L 1.3026014266372334,0.814297658669683 L 1.3026023804682327,0.8142979889160257 L 1.3026032961480898,0.814298413635488 L 1.3026041643473432,0.8142989285007896 L 1.302604976220291,0.8142995282661929 L 1.3026057234951147,0.814300206820951 L 1.3026063985581589,0.8143009572515665 L 1.3026069945315013,0.8143017719122303 L 1.3026075053430308,0.8143026425027217 L 1.302607925788312,0.8143035601529751 L 1.3366136814769878,0.8996555859610067 L 1.3366137775280555,0.899655795789239 L 1.3366139273220299,0.8996556202459114 L 1.375249950453478,0.8494883347471709 L 1.3752500877753406,0.8494881369681689 L 1.375250020847658,0.8494879056793591 L 1.3453820465360273,0.7625834634043179 L 1.34538198399435,0.7625832936781167 L 1.3453819703615644,0.7625832615698885 L 1.345381745658224,0.7625832265375533 L 1.3453817347666102,0.7625832245841053 L 1.252812859235269,0.7505759305935547 L 1.2528126288181878,0.7505759117601203 L 1.2528124792461182,0.7505760880409351 L 1.2095532713374948,0.8067568992069231 L 1.2095531434440776,0.8067570832101963 z"
     opacity="1"
     stroke-width="0"
     stroke="#555555"
     fill="#000000"
     fill-rule="evenodd" />
  <path
     style="fill:#005DFF"
     id="path22"
     d="M 1.1332614621270127,0.9222884066041579 L 1.1332616860693137,0.922288414311816 L 1.226618403243273,0.9209469852320213 L 1.2266194119528935,0.9209470216844721 L 1.2266204118493218,0.9209471596374087 L 1.226621392745374,0.9209473976853336 L 1.226622344647447,0.9209477334029578 L 1.226623257857335,0.9209481633699099 L 1.226624123071038,0.920948683205584 L 1.226624931473552,0.9209492876137699 L 1.2266256748286788,0.920949970436613 L 1.2266263455629394,0.9209507247173508 L 1.2266269368427327,0.9209515427711913 L 1.226627442643959,0.9209524162636064 L 1.2685887859986242,1.0026691112997088 L 1.26858890157667,1.002669311053003 L 1.268589033974515,1.0026691220279444 L 1.3022366642392629,0.949102729788566 L 1.3022367819939749,0.9491025200319914 L 1.3022366936312397,0.9491022962999675 L 1.2643164114689072,0.8654185754696517 L 1.264316332068462,0.8654184100673978 L 1.264316316194398,0.8654183807334845 L 1.2643160885436333,0.8654183670236796 L 1.2643160781791796,0.8654183661610674 L 1.1710079897182477,0.8621915064860726 L 1.1710077583560978,0.8621915094731986 L 1.1710076261281688,0.862191699349846 L 1.1332615719152364,0.9222882112682723 L 1.1332614621270127,0.9222884066041579 z"
     opacity="1"
     stroke-width="0"
     stroke="#555555"
     fill="#000000"
     fill-rule="evenodd" />
  <path
     style="fill:#005DFF"
     id="path24"
     d="M 1.0683489033259095,1.0445930827246166 L 1.0683491269102499,1.0445930689900382 L 1.1611241412753766,1.0343367719427237 L 1.1611251488461973,1.034336711806663 L 1.1611261573465566,1.0343367535478925 L 1.161127156501698,1.034336896741146 L 1.1611281361320767,1.0343371399275483 L 1.1611290862570678,1.0343374806294798 L 1.1611299971966527,1.0343379153758165 L 1.1611308596700394,1.0343384397372966 L 1.1611316648902172,1.0343390483716448 L 1.1611324046534799,1.0343397350780015 L 1.1611330714230057,1.034340492860097 L 1.1611336584056449,1.0343413139975313 L 1.210728509885894,1.1116944823212376 L 1.2107286440831588,1.1116946701759107 L 1.2107287576391181,1.1116944691701172 L 1.2390459865284769,1.0551189003175414 L 1.2390460833758985,1.0551186803841661 L 1.2390459741206559,1.0551184663435065 L 1.1932878415079327,0.9754278213836194 L 1.193287742822738,0.9754276580796888 L 1.1932877266555184,0.9754276340390027 L 1.1932874970758878,0.9754276422799935 L 1.1932874883835007,0.9754276423911659 L 1.100115417207668,0.9811403605942194 L 1.1001151870141843,0.9811403857282062 L 1.1001150736338532,0.9811405876332743 L 1.0683489937247446,1.0445928777693858 L 1.0683489033259095,1.0445930827246166 z"
     opacity="1"
     stroke-width="0"
     stroke="#555555"
     fill="#000000"
     fill-rule="evenodd" />
  <path
     style="fill:#005DFF"
     id="path26"
     d="M 1.015321987438882,1.1723749489919264 L 1.0153222087810336,1.1723749142902495 L 1.1067091257937782,1.1534426879878292 L 1.106710123265935,1.1534425333704528 L 1.1067111312436337,1.1534424800957341 L 1.1067121394570207,1.1534425287064667 L 1.1067131376338406,1.1534426787073762 L 1.106714115604097,1.1534429285701677 L 1.1067150634036689,1.1534432757490962 L 1.1067159713758319,1.1534437167069038 L 1.1067168302696457,1.1534442469508601 L 1.1067176313342089,1.1534448610785364 L 1.1067183664078168,1.153445552832848 L 1.1067190280011192,1.153446315165806 L 1.1633749845847583,1.225805561913543 L 1.1633751358125608,1.2258057362845884 L 1.1633752300787543,1.2258055255976297 L 1.1863133013735723,1.1667618667462587 L 1.186313377355465,1.1667616383859132 L 1.1863132481011454,1.1667614353710913 L 1.1331971965074734,1.0917733321263907 L 1.1331970876162567,1.0917731853730168 L 1.1331970661939492,1.0917731592490347 L 1.1331968403153574,1.0917731889309792 L 1.133196829724394,1.0917731900771417 L 1.0409892757552777,1.1063010323243154 L 1.040989049269576,1.1063010791144885 L 1.040988955395555,1.106301290473808 L 1.0153220582894251,1.1723747364436856 L 1.015321987438882,1.1723749489919264 z"
     opacity="1"
     stroke-width="0"
     stroke="#555555"
     fill="#000000"
     fill-rule="evenodd" />
  <path
     style="fill:#005DFF"
     id="path28"
     d="M 0.9744727771573647,1.3043049411128043 L 0.9744729943544821,1.3043048864224864 L 1.0637372970514953,1.277140039815433 L 1.0637382762958487,1.2771397950603598 L 1.0637392752251322,1.2771396502679704 L 1.0637402836620091,1.2771396069134455 L 1.063741291332277,1.2771396654384912 L 1.0637422879695435,1.27713982524684 L 1.0637432634198238,1.2771400847103256 L 1.0637442077449908,1.2771404411854699 L 1.063745111324028,1.2771408910404167 L 1.0637459649510501,1.2771414296919334 L 1.0637467599290957,1.2771420516521064 L 1.0637474881587332,1.2771427505842523 L 1.1267690130001367,1.3440589269882495 L 1.1267691795301829,1.3440590869166715 L 1.1267692540502912,1.344058868384959 L 1.144217542477683,1.2830256213954288 L 1.1442175971691555,1.2830253868346664 L 1.1442174495369433,1.2830251965332233 L 1.0843620551811335,1.2132720245408815 L 1.084361930823964,1.2132718859637182 L 1.0843619085057328,1.21327186339548 L 1.0843616854264384,1.2132719141387769 L 1.084361675957565,1.2132719160649954 L 0.9939185890929296,1.2362837206719497 L 0.9939183680815895,1.2362837882080067 L 0.9939182940995346,1.2362840071458654 L 0.9744728281550523,1.304304723019122 L 0.9744727771573647,1.3043049411128043 z"
     opacity="1"
     stroke-width="0"
     stroke="#555555"
     fill="#000000"
     fill-rule="evenodd" />
  <path
     style="fill:#005DFF"
     id="path30"
     d="M 0.945551290687753,1.4390127483107304 L 0.9455515022098391,1.439012674982016 L 1.032083714595934,1.4042078763411714 L 1.032084668873001,1.4042075474217992 L 1.03208565144673,1.4042073163773428 L 1.032086652306339,1.4042071855617582 L 1.032087661254743,1.4042071563078373 L 1.0320886680124461,1.404207228913629 L 1.0320896623222722,1.4042074026394014 L 1.0320906340538674,1.4042076757151798 L 1.032091573306913,1.4042080453587789 L 1.0320924705119918,1.4042085078041489 L 1.032093316528086,1.404209058339745 L 1.0320941027357062,1.4042096913565312 L 1.100719264483566,1.4654217478793656 L 1.100719444375503,1.4654218928002885 L 1.100719499331224,1.4654216684277164 L 1.1127416620809758,1.4029047532120162 L 1.11274169585027,1.4029045145501067 L 1.1127415317184823,1.4029043380263777 L 1.0468814786481848,1.3387426509986349 L 1.046881337799993,1.3387425198033582 L 1.0468813164385278,1.3387425017564618 L 1.0468810973995974,1.3387425726860949 L 1.0468810895754495,1.338742575021028 L 0.9588806479900319,1.3697187113857066 L 0.9588804340526966,1.3697187982853154 L 0.9588803797445687,1.3697190227209455 L 0.9455513222212972,1.4390125266706408 L 0.945551290687753,1.4390127483107304 z"
     opacity="1"
     stroke-width="0"
     stroke="#555555"
     fill="#000000"
     fill-rule="evenodd" />
  <path
     style="fill:#005DFF"
     id="path32"
     d="M 0.9280766378477752,1.5752837471049326 L 0.9280768426200245,1.5752836567132504 L 1.0114340133683475,1.5335266966527714 L 1.0114349375353082,1.533526290679959 L 1.0114358979209819,1.5335259799423624 L 1.0114368847400128,1.5335257676060818 L 1.011437887937717,1.533525655834609 L 1.0114388972925281,1.5335256457667816 L 1.0114399025201453,1.5335257375051805 L 1.0114408933783192,1.5335259301150845 L 1.011441859771211,1.5335262216339942 L 1.0114427918522577,1.533526609091628 L 1.0114436801245001,1.5335270885401857 L 1.0114445155373453,1.5335276550945731 L 1.0848822972671275,1.58894142279053 L 1.0848824884498998,1.5889415525186699 L 1.084882524756892,1.5889413243475818 L 1.0917401047843658,1.5254370052658481 L 1.0917401187951081,1.5254367641340947 L 1.09173993998559,1.5254366017518934 L 1.0206687983442833,1.467046402565665 L 1.020668648712102,1.4670462851276822 L 1.0206686247923615,1.4670462681599323 L 1.0206684131289478,1.467046357068393 L 1.0206684048955303,1.4670463603054256 L 0.9356299410627665,1.5053330881237497 L 0.9356297356165053,1.5053331925675204 L 0.9356297000723344,1.5053334202806754 L 0.9280766510155551,1.5752835236570861 L 0.9280766378477752,1.5752837471049326 z"
     opacity="1"
     stroke-width="0"
     stroke="#555555"
     fill="#000000"
     fill-rule="evenodd" />
  <path
     style="fill:#005DFF"
     id="path34"
     d="M 0.921445083182774,1.712084035349421 L 0.9214452803952469,1.7120839296227672 L 1.0013492548570175,1.664101219233409 L 1.001350145363554,1.664100743907031 L 1.0013510792526807,1.6641003607776061 L 1.0013520470086552,1.6641000737489817 L 1.001353038770653,1.6640998857457991 L 1.001354044433244,1.6640997986836923 L 1.0013550537493592,1.6640998134497693 L 1.0013560564347026,1.6640999298935732 L 1.0013570422725415,1.6641001468286147 L 1.0013580012178094,1.6641004620444626 L 1.001358923499457,1.6641008723292656 L 1.0013597997200152,1.6641013735024799 L 1.0788352757916053,1.7137659623957815 L 1.0788354763817822,1.7137660771917238 L 1.0788354949692258,1.713765846824551 L 1.0807747765789795,1.6496975518529018 L 1.080774771892133,1.6496973099062977 L 1.080774580440315,1.6496971618984384 L 1.0052712610870809,1.5970969289417387 L 1.0052711007011146,1.5970968224637458 L 1.0052710767016861,1.5970968081549342 L 1.005270872275208,1.5970969138100415 L 1.0052708648198292,1.597096917447205 L 0.9235648197174234,1.6419806536196744 L 0.9235646235263238,1.6419807737767071 L 0.9235646057331232,1.6419810031499014 L 0.921445079054045,1.7120838116222732 L 0.921445083182774,1.712084035349421 z"
     opacity="1"
     stroke-width="0"
     stroke="#555555"
     fill="#000000"
     fill-rule="evenodd" />
</svg>
