<?xml version="1.0" encoding="UTF-8" standalone="no"?>
<svg
   xmlns:dc="http://purl.org/dc/elements/1.1/"
   xmlns:cc="http://creativecommons.org/ns#"
   xmlns:rdf="http://www.w3.org/1999/02/22-rdf-syntax-ns#"
   xmlns:svg="http://www.w3.org/2000/svg"
   xmlns="http://www.w3.org/2000/svg"
   xmlns:sodipodi="http://sodipodi.sourceforge.net/DTD/sodipodi-0.dtd"
   xmlns:inkscape="http://www.inkscape.org/namespaces/inkscape"
   inkscape:version="1.0 (4035a4fb49, 2020-05-01)"
   sodipodi:docname="cable_1.svg"
   id="svg132"
   version="1.1"
   viewBox="0 0 1.9999999858411206 1.732051134109286"
   height="1.732051134109286"
   width="1.9999999858411206">
  <metadata
     id="metadata138">
    <rdf:RDF>
      <cc:Work
         rdf:about="">
        <dc:format>image/svg+xml</dc:format>
        <dc:type
           rdf:resource="http://purl.org/dc/dcmitype/StillImage" />
      </cc:Work>
    </rdf:RDF>
  </metadata>
  <defs
     id="defs136" />
  <sodipodi:namedview
     inkscape:current-layer="svg132"
     inkscape:window-maximized="1"
     inkscape:window-y="-8"
     inkscape:window-x="-8"
     inkscape:cy="0.84099069"
     inkscape:cx="1.6249988"
     inkscape:zoom="256"
     showgrid="false"
     id="namedview134"
     inkscape:window-height="1017"
     inkscape:window-width="1920"
     inkscape:pageshadow="2"
     inkscape:pageopacity="0"
     guidetolerance="10"
     gridtolerance="10"
     objecttolerance="10"
     borderopacity="1"
     bordercolor="#666666"
     pagecolor="#ffffff"
     inkscape:document-rotation="0" />
  <desc
     id="desc2">Outline to SVG export</desc>
  <g
     style="fill:#00AEFF"
     id="g112">
    <path
       style="fill:#00AEFF"
       id="path78"
       d="m 0.86000092,1.7320511 h 2.4e-7 0.0187562 v 0 l 0.0512435,-1e-7 0.07,-1e-7 h 0.07 v 0 l 0.051243,-1e-7 v 0 l 0.018756,-10e-8 2e-7,-1e-7 v -2e-7 l 1.766e-4,-0.023965 v -1e-7 l 5.267e-4,-0.02328 v -2e-7 l 1.346e-4,-0.00349 7.367e-4,-0.01909 v -10e-8 l 0.00121,-0.021871 v -2e-7 l 0.00154,-0.021157 v -2e-7 l 6.488e-4,-0.00711 0.00122,-0.013329 v -2e-7 l 0.00218,-0.019711 v -2e-7 l 0.00249,-0.018978 v -2e-7 l 0.00278,-0.018239 1e-7,-2e-7 0.00307,-0.017494 1e-7,-2e-7 0.00334,-0.016743 1e-7,-3e-7 0.0036,-0.015987 v -3e-7 l 0.00384,-0.015226 v -2e-7 l 0.00407,-0.014462 1e-7,-3e-7 0.00427,-0.013695 1e-7,-3e-7 0.00446,-0.012928 1e-7,-3e-7 0.00463,-0.012162 1e-7,-3e-7 0.00205,-0.00489 0.00273,-0.00651 2e-7,-3e-7 0.0049,-0.010646 1e-7,-3e-7 0.005,-0.0099 2e-7,-4e-7 0.00508,-0.00917 2e-7,-4e-7 0.00513,-0.00847 3e-7,-4e-7 0.00238,-0.00359 0.00279,-0.0042 2e-7,-3e-7 0.00519,-0.00713 3e-7,-3e-7 0.0052,-0.00651 3e-7,-4e-7 0.00326,-0.00372 0.00194,-0.00221 3e-7,-4e-7 0.0052,-0.00539 4e-7,-3e-7 0.00521,-0.00489 4e-7,-3e-7 0.00308,-0.00261 0.00216,-0.00183 4e-7,-4e-7 2.711e-4,-2.074e-4 0.00501,-0.00384 4e-7,-3e-7 0.00536,-0.00368 4e-7,-2e-7 0.00548,-0.00336 4e-7,-2e-7 0.00565,-0.00307 4e-7,-3e-7 7.962e-4,-3.802e-4 0.00507,-0.00242 5e-7,-3e-7 0.00442,-0.00184 0.00172,-7.151e-4 5e-7,-2e-7 0.00465,-0.00166 0.00182,-6.495e-4 4e-7,-2e-7 0.0028,-8.454e-4 0.00404,-0.00122 4e-7,-1e-7 0.00727,-0.00181 5e-7,-1e-7 0.00773,-0.00154 h 5e-7 l 0.00823,-0.00125 h 5e-7 l 0.00877,-9.299e-4 4e-7,-1e-7 0.00932,-5.85e-4 h 4e-7 l 0.0099,-2.111e-4 h 4e-7 l 0.010484,1.916e-4 h 3e-7 l 0.011076,6.234e-4 h 4e-7 l 0.011669,0.00108 h 4e-7 l 0.01226,0.00157 3e-7,1e-7 0.012847,0.00207 h 3e-7 l 0.00342,6.622e-4 0.010007,0.00194 3e-7,1e-7 0.013997,0.00315 3e-7,1e-7 0.014557,0.00371 h 3e-7 l 0.015106,0.00429 3e-7,10e-8 0.015644,0.00488 2e-7,1e-7 0.00302,0.00102 0.013146,0.00445 2e-7,1e-7 0.00992,0.00362 0.00676,0.00247 2e-7,1e-7 0.00756,0.00295 0.00963,0.00376 2e-7,10e-8 0.017679,0.00734 2e-7,1e-7 0.018161,0.00797 2e-7,1e-7 0.018632,0.0086 h 2e-7 l 0.012185,0.0059 0.00691,0.00334 2e-7,10e-8 0.00584,0.00296 0.013703,0.00693 h 1e-7 l 0.019989,0.010535 1e-7,1e-7 0.020425,0.011184 1e-7,1e-7 0.020842,0.011829 2e-7,10e-8 2e-7,-2e-7 0.00938,-0.016243 v 0 l 0.025622,-0.044378 v 0 l 0.025622,-0.044378 0.00938,-0.016244 v 0 l 0.014793,-0.025622 0.020207,-0.035 0.025622,-0.044378 v 0 l 0.00938,-0.016243 1e-7,-3e-7 -2e-7,-1e-7 -0.024497,-0.013903 -10e-8,-1e-7 -0.024257,-0.013281 h -1e-7 l -0.024032,-0.012664 h -1e-7 l -0.023813,-0.012045 h -1e-7 l -0.023601,-0.011425 v 0 l -0.023397,-0.010802 -10e-8,-1e-7 -0.0232,-0.010176 -0.023012,-0.00955 -0.022833,-0.00891 -0.022663,-0.00827 -0.022503,-0.00762 -0.022352,-0.00697 -0.022212,-0.0063 -0.022081,-0.00562 -0.021959,-0.00493 h -1e-7 l -0.021846,-0.00423 h -1e-7 l -0.02174,-0.0035 h -2e-7 l -0.021639,-0.00276 h -2e-7 l -0.021542,-0.00199 h -3e-7 l -0.021444,-0.0012 h -3e-7 l -0.021344,-3.835e-4 h -4e-7 l -0.021235,4.607e-4 h -4e-7 l -0.021113,0.00133 -5e-7,10e-8 -0.020972,0.00223 h -4e-7 l -0.020806,0.00316 -4e-7,1e-7 -0.020607,0.00411 -5e-7,1e-7 -0.02037,0.00508 -5e-7,10e-8 -0.020089,0.00607 v 0 l -5e-7,1e-7 v 0 l -0.019758,0.00706 v 0 l -5e-7,2e-7 v 0 l -0.019375,0.00806 v 0 l -4e-7,2e-7 v 0 l -0.018936,0.00905 v 0 l -5e-7,2e-7 v 1e-7 l -0.018442,0.010017 h -1e-7 l -4e-7,3e-7 v 0 l -0.017896,0.010963 v 0 l -4e-7,2e-7 v 0 l -0.017302,0.011875 v 0 l -4e-7,3e-7 v 0 l -0.016666,0.012749 v 0 l -4e-7,3e-7 v 0 l -0.015996,0.013579 v 0 l -4e-7,4e-7 v 0 l -0.0153,0.014363 -3e-7,3e-7 -0.014587,0.0151 -3e-7,3e-7 -0.013864,0.015791 -3e-7,3e-7 -0.0131394,0.016438 -2.7e-7,4e-7 -0.01242,0.017046 -2.3e-7,3e-7 -0.0117109,0.017618 -2.1e-7,3e-7 -0.0110165,0.01816 -1.8e-7,3e-7 -0.0103398,0.018676 -1.4e-7,2e-7 -0.009683,0.019172 -1.2e-7,3e-7 -0.009047,0.019651 -9e-8,2e-7 -0.008431,0.020119 -6e-8,1e-7 -0.007837,0.020578 -3e-8,1e-7 -0.007263,0.021032 h -1e-8 l -0.006707,0.021484 -0.00617,0.021935 -0.005648,0.022387 -0.005142,0.022841 -0.004649,0.0233 -0.004169,0.023762 -0.003699,0.02423 -0.003239,0.024702 -0.002787,0.02518 -10e-9,1e-7 -0.002344,0.025663 v 1e-7 l -0.001906,0.026151 v 1e-7 l -0.001475,0.026645 v 1e-7 l -0.001048,0.027144 v 10e-8 l -6.2645e-4,0.027648 v 10e-8 l -2.0808e-4,0.028167 z"
       opacity="1"
       stroke-width="0"
       stroke="#555555"
       fill="#000000"
       fill-rule="evenodd" />
    <path
       style="fill:#00AEFF"
       id="path80"
       d="M 0.87039554,1.5454514 Z"
       opacity="1"
       stroke-width="0"
       stroke="#555555"
       fill="#000000"
       fill-rule="evenodd" />
    <path
       style="fill:#00AEFF"
       id="path82"
       d="M 0.87363434,1.5207493 Z"
       opacity="1"
       stroke-width="0"
       stroke="#555555"
       fill="#000000"
       fill-rule="evenodd" />
    <path
       style="fill:#00AEFF"
       id="path84"
       d="M 0.87733334,1.4965198 Z"
       opacity="1"
       stroke-width="0"
       stroke="#555555"
       fill="#000000"
       fill-rule="evenodd" />
    <path
       style="fill:#00AEFF"
       id="path86"
       d="M 0.88150197,1.4727576 Z"
       opacity="1"
       stroke-width="0"
       stroke="#555555"
       fill="#000000"
       fill-rule="evenodd" />
    <path
       style="fill:#00AEFF"
       id="path88"
       d="M 0.88615119,1.4494581 Z"
       opacity="1"
       stroke-width="0"
       stroke="#555555"
       fill="#000000"
       fill-rule="evenodd" />
    <path
       style="fill:#00AEFF"
       id="path90"
       d="M 0.89129329,1.4266169 Z"
       opacity="1"
       stroke-width="0"
       stroke="#555555"
       fill="#000000"
       fill-rule="evenodd" />
    <path
       style="fill:#00AEFF"
       id="path92"
       d="M 0.89694172,1.4042301 Z"
       opacity="1"
       stroke-width="0"
       stroke="#555555"
       fill="#000000"
       fill-rule="evenodd" />
    <path
       style="fill:#00AEFF"
       id="path94"
       d="M 0.90311152,1.3822954 Z"
       opacity="1"
       stroke-width="0"
       stroke="#555555"
       fill="#000000"
       fill-rule="evenodd" />
    <path
       style="fill:#00AEFF"
       id="path96"
       d="M 1.4955475,1.0402516 Z"
       opacity="1"
       stroke-width="0"
       stroke="#555555"
       fill="#000000"
       fill-rule="evenodd" />
    <path
       style="fill:#00AEFF"
       id="path98"
       d="M 1.5176283,1.0458758 Z"
       opacity="1"
       stroke-width="0"
       stroke="#555555"
       fill="#000000"
       fill-rule="evenodd" />
    <path
       style="fill:#00AEFF"
       id="path100"
       d="M 1.5398401,1.0521773 Z"
       opacity="1"
       stroke-width="0"
       stroke="#555555"
       fill="#000000"
       fill-rule="evenodd" />
    <path
       style="fill:#00AEFF"
       id="path102"
       d="M 1.5621924,1.0591449 Z"
       opacity="1"
       stroke-width="0"
       stroke="#555555"
       fill="#000000"
       fill-rule="evenodd" />
    <path
       style="fill:#00AEFF"
       id="path104"
       d="M 1.5846951,1.0667683 Z"
       opacity="1"
       stroke-width="0"
       stroke="#555555"
       fill="#000000"
       fill-rule="evenodd" />
    <path
       style="fill:#00AEFF"
       id="path106"
       d="M 1.6073582,1.0750391 Z"
       opacity="1"
       stroke-width="0"
       stroke="#555555"
       fill="#000000"
       fill-rule="evenodd" />
    <path
       style="fill:#00AEFF"
       id="path108"
       d="M 1.630191,1.0839506 Z"
       opacity="1"
       stroke-width="0"
       stroke="#555555"
       fill="#000000"
       fill-rule="evenodd" />
    <path
       style="fill:#00AEFF"
       id="path110"
       d="M 1.653203,1.0934966 Z"
       opacity="1"
       stroke-width="0"
       stroke="#555555"
       fill="#000000"
       fill-rule="evenodd" />
  </g>
  <g
     style="fill:#005DFF"
     id="g40">
    <path
       style="fill:#005DFF"
       id="path6"
       d="M 0.8750009653572638,1.7320510033033016 L 0.8750012003139906,1.7320510149019632 L 0.8917477129428836,1.732051134109496 L 0.8917477130405995,1.7320511341071088 L 0.9375008940696721,1.7320510149002075 L 0.9375010728575499,1.7320510149002075 L 0.9375010728715076,1.7320510148998665 L 1.000001072883606,1.732050895690918 L 1.0625009536419026,1.732050895690918 L 1.0625009536546142,1.7320508956906073 L 1.1082541942596438,1.7320507764816284 L 1.12500070933991,1.7320507764816284 L 1.1250009423639882,1.7320507650876662 L 1.125000955474359,1.7320505321538548 L 1.1251791710002543,1.7078605460928036 L 1.1251791732875995,1.7078603935608734 L 1.125610517404545,1.6887963946660733 L 1.125711200817165,1.6843465171981578 L 1.1257112056975895,1.684346357749205 L 1.125839314777418,1.6810269472906085 L 1.1265920368460087,1.6615233062509482 L 1.1265920446670807,1.6615231396608587 L 1.1278158378046892,1.6393965162777575 L 1.1278158489750634,1.6393963419435917 L 1.129376643209425,1.617971630741374 L 1.1293766581719638,1.617971448390261 L 1.1312675388939577,1.597254133325574 L 1.1312675581495413,1.5972539425731258 L 1.1334807762113255,1.5772499846234438 L 1.1334808003536039,1.5772497848303055 L 1.136008248923617,1.5579649064030872 L 1.1360082785492085,1.5579646974861436 L 1.1388403010075634,1.5394043826021744 L 1.1388403368691644,1.5394041638616014 L 1.141966799651832,1.5215741350795686 L 1.141966842539795,1.52157390619132 L 1.1453764199505303,1.5044794089436857 L 1.1453764706990042,1.5044791697864546 L 1.1490562871920273,1.4881248536663712 L 1.1490563468691486,1.4881246035067208 L 1.1529929307582345,1.4725149987658939 L 1.1529930003496127,1.4725147377393624 L 1.1571710917337663,1.4576528247850244 L 1.1571711724962395,1.4576525524151427 L 1.1615746768593909,1.44354047723856 L 1.161574770049149,1.443540193555978 L 1.166186281540917,1.4301783136771549 L 1.1661863884875459,1.4301780188715805 L 1.170987070616583,1.4175651420830668 L 1.1709871928447533,1.4175648362028708 L 1.1759576129912612,1.405697266707341 L 1.1759577519731403,1.4056969503245003 L 1.1810776430094916,1.3945681310608988 L 1.1810778003728806,1.3945678047126167 L 1.1842259613471415,1.3883303950490353 L 1.1863267759469358,1.3841680788926245 L 1.1863269531714475,1.3841677437120965 L 1.1916846269476908,1.3744837587919843 L 1.1916848256502375,1.3744834158617922 L 1.194938353764474,1.3691164045423956 L 1.1971320034450732,1.3654977658667222 L 1.197132224958666,1.365497416934553 L 1.2026513816848938,1.3571881655574807 L 1.2026516273140473,1.3571878124740269 L 1.2056154240472634,1.353117082230994 L 1.208228099064418,1.3495286123847476 L 1.2082283698128582,1.3495282574448604 L 1.2138510692813407,1.3424887078018486 L 1.2138513658106131,1.3424883536443606 L 1.2195142129706167,1.3360338808372896 L 1.2195145352952215,1.3360335306289204 L 1.2252172917103972,1.33012598469176 L 1.225217639861778,1.3301256412553863 L 1.2309668624821344,1.3247252031385062 L 1.2309672355154613,1.3247248698994596 L 1.2367771116118336,1.3197904088636485 L 1.2367775077245222,1.319790089423043 L 1.2426694967577387,1.3152810710500338 L 1.2426699142022777,1.3152807683296843 L 1.2486729862946608,1.3111594002552984 L 1.2486734222751146,1.3111591173192396 L 1.254823224007568,1.3073915412733863 L 1.2548236753321071,1.3073912807020478 L 1.2611613373686166,1.303949241713065 L 1.2611618003287564,1.3039490056414789 L 1.2677323875192683,1.3008109250497475 L 1.267732858378959,1.300810714901305 L 1.2681397241538226,1.3006415674215095 L 1.2745835814779014,1.297962644066759 L 1.2745840562460036,1.2979624607157787 L 1.2817623643224383,1.2953982002816993 L 1.2817628394821894,1.295398043830551 L 1.2893146319799456,1.2931192627597319 L 1.289315103324486,1.2931191330120007 L 1.2972827030905758,1.2911340574011527 L 1.297283167766063,1.2911339533147321 L 1.3055429087949935,1.2894892773662854 L 1.3057043672232593,1.2894571278360867 L 1.3057048219332168,1.2894570481591052 L 1.311554246230962,1.2885707148214445 L 1.3146125254333842,1.2881073094203308 L 1.314612968317532,1.2881072523960724 L 1.32403411931736,1.287107490351439 L 1.3240345479190587,1.2871074541710659 L 1.3339901291773384,1.2864823470896523 L 1.3339905421106537,1.286482329719332 L 1.3444959327485448,1.2862577480724078 L 1.3444963291502516,1.2862577474567596 L 1.3555619013373479,1.2864599193276316 L 1.3555622801426699,1.2864599334343598 L 1.3671931603513972,1.2871140139888877 L 1.3671935216717066,1.2871140408824473 L 1.3793912597214302,1.2882444699068845 L 1.3793916032416578,1.28824450774019 L 1.392154530253429,1.2898738175714801 L 1.3921548561784132,1.2898738646450796 L 1.405478203442494,1.2920226801074461 L 1.4054785122358258,1.2920227348915176 L 1.4118350410128777,1.293253580329754 L 1.4193559610433333,1.2947098924830551 L 1.419356253466421,1.2947099536518898 L 1.4285553994870674,1.2967781154620095 L 1.4337795780208606,1.2979526208463776 L 1.4337798540232787,1.297952687025927 L 1.4469699987749103,1.3013140481901322 L 1.4487397552542356,1.3017650508752217 L 1.44874001636275,1.3017651211887453 L 1.4642265990680574,1.3061608917217806 L 1.4642268454235796,1.3061609650824153 L 1.4802299762799298,1.311151229700419 L 1.4802302087999162,1.3111513053385486 L 1.496739158024888,1.3167457206865396 L 1.4967393776809155,1.3167457979843715 L 1.504273309506433,1.3194960110854634 L 1.513743892485402,1.3229531861684023 L 1.513744099886662,1.3229532644950297 L 1.5263688245377176,1.327881671594338 L 1.5312339276601585,1.3297808978689878 L 1.5312341234186346,1.3297809766789392 L 1.549199130621379,1.337234696945729 L 1.5491993156213608,1.3372347758927048 L 1.5676299647554883,1.3453199478223665 L 1.5676301396227483,1.3453200265411833 L 1.5865172509310173,1.3540410611988432 L 1.58651741632225,1.3540411394108305 L 1.6058521676730833,1.3634017325333543 L 1.605852324219141,1.3634018100173815 L 1.6256264895763461,1.373405180461801 L 1.6256266378366269,1.3734052570239719 L 1.6458323488577833,1.384054027576063 L 1.6458324893313747,1.3840541030453384 L 1.6664624737490155,1.3953504196178173 L 1.66646260693785,1.39535049387329 L 1.6875002643435502,1.4072905764954133 L 1.6875004726248946,1.4072906816060673 L 1.6875005990040406,1.407290485499771 L 1.6958739757349144,1.3927874565451346 L 1.6958739757469214,1.3927874565231002 L 1.718750476822695,1.3531641960394551 L 1.7187504768318986,1.3531641960225658 L 1.7367925930272594,1.3219141960915877 L 1.7500004768247845,1.299037456533883 L 1.7500004768326587,1.2990374565194331 L 1.7632082413483814,1.2761608362974257 L 1.7812503576104397,1.2449109554592652 L 1.7812503576215302,1.2449109554389126 L 1.79445810161236,1.222034335112305 L 1.804126977919219,1.2052873373054362 L 1.8125002343069634,1.1907844295252314 L 1.8125003417427952,1.190784220246522 L 1.81250014312372,1.1907840941881807 L 1.7881984882751503,1.1769920169652344 L 1.7881984169627971,1.1769919794838348 L 1.764146946336404,1.163823086027431 L 1.7641468734922294,1.1638230491805142 L 1.7403316774520465,1.1512729703550197 L 1.7403316031403386,1.1512729342769221 L 1.7167473170905097,1.139343100371837 L 1.7167472414245537,1.1393430652206733 L 1.6933876664611742,1.1280349066130773 L 1.693387589565018,1.1280348725497362 L 1.6702462881150553,1.1173507731640795 L 1.6702462101636053,1.1173507403676826 L 1.6473159790039062,1.1072931289672852 L 1.6245896816253662,1.0978654623031616 L 1.602059245109558,1.0890719890594482 L 1.5797165632247925,1.0809179544448853 L 1.5575530529022217,1.0734093189239502 L 1.535560131072998,1.0665538311004639 L 1.5137289762496948,1.0603599548339844 L 1.4920512437820435,1.0548384189605713 L 1.4705187275514289,1.0500012679591226 L 1.4705186887911916,1.0500012598578934 L 1.4491239101194835,1.0458620884781367 L 1.4491238084230598,1.0458620704538613 L 1.427860459184455,1.0424367318224579 L 1.4278602988954179,1.0424367087044655 L 1.4067234868638367,1.0397430794412226 L 1.4067232729408565,1.0397430559301954 L 1.3857103706069889,1.0378008010060973 L 1.385710107900017,1.0378007815170585 L 1.3648211106280104,1.036631354339155 L 1.3648208035738554,1.0366313429883527 L 1.3440586864605926,1.0362582237783686 L 1.3440583408914106,1.036258224418275 L 1.3234304896417033,1.0367054898098498 L 1.3234301102686148,1.0367055058874617 L 1.3029482023943098,1.037998305773951 L 1.3029477945022832,1.0379983403431123 L 1.2826294677066783,1.0401615866285039 L 1.2826290365636064,1.0401616422890003 L 1.2624964585607896,1.0432191744593988 L 1.2624960092977306,1.0432192533399558 L 1.242578381307347,1.0471925271739173 L 1.242577918906155,1.0471926309145758 L 1.222909449101503,1.0520997648247457 L 1.2229089783459366,1.052099894570569 L 1.2035295966350492,1.0579542392541108 L 1.2035295961369543,1.0579542394321233 L 1.2035291234993715,1.0579543951969865 L 1.203529123062442,1.057954395329025 L 1.1844828093552142,1.064763462015867 L 1.184482804891969,1.0647634638673336 L 1.1844823486194913,1.0647636401884613 L 1.1844823441246763,1.0647636418002253 L 1.1658167758577112,1.0725276704037412 L 1.165816768566615,1.0725276738726137 L 1.1658163277553577,1.0725278706924135 L 1.165816320342275,1.072527873789934 L 1.1475806103715196,1.0812399503738601 L 1.1475806015821082,1.081239955125281 L 1.1475801749109729,1.0812401727382586 L 1.147580165922286,1.081240177054655 L 1.1298233079385107,1.090885162449745 L 1.129823298854006,1.090885167988108 L 1.1298228851880179,1.090885406818485 L 1.129822875845858,1.09088541191866 L 1.1125917178450127,1.1014407761723097 L 1.1125917095931857,1.101440781811789 L 1.1125913078352399,1.1014410424914414 L 1.11259129930927,1.1014410477377385 L 1.0959287554889001,1.1128775853548516 L 1.0959287491253327,1.1128775902066108 L 1.0959283582152506,1.112877873590057 L 1.0959283515944693,1.1128778781499729 L 1.0798717334452186,1.1251606617579677 L 1.079871729791753,1.1251606648533652 L 1.079871348979806,1.1251609718177176 L 1.0798713451317508,1.1251609747672513 L 1.0644514077851959,1.1382510240117736 L 1.0644514074547757,1.1382510243219008 L 1.0644510362378006,1.1382513557579415 L 1.0644510358346646,1.1382513561002352 L 1.0496912590847505,1.1521073100526509 L 1.0496909113476476,1.15210765286265 L 1.0356069065805804,1.1666875565008872 L 1.0356065854897887,1.1666879051362302 L 1.0222068145662864,1.1819506361692664 L 1.0222065216371081,1.18195098578836 L 1.0094925329931943,1.1978574485766897 L 1.0094922692944497,1.1978577940278623 L 0.9974595918001801,1.2143723501929278 L 0.9974593578482989,1.2143726862510784 L 0.9860989905913033,1.2314639895157515 L 0.9860987870719424,1.231464309880042 L 0.9753974380953944,1.2491048288031634 L 0.9753972646195156,1.249105127991809 L 0.9653394369969545,1.2672723380386648 L 0.9653392933756358,1.2672726094901394 L 0.9559074638134625,1.2859479205057889 L 0.9559073493147926,1.285948157810367 L 0.9470829817396259,1.3051170325799983 L 0.9470828951788416,1.3051172295088718 L 0.9388472751068628,1.3247689453428446 L 0.9388472149369501,1.3247690958322238 L 0.9311819856328232,1.3448965066993552 L 0.931181950402375,1.3448966037611736 L 0.9240692918984967,1.3654944708295482 L 0.9240692794511257,1.3654945087010828 L 0.9174922704696655,1.3865609169006348 L 0.9114351868629456,1.408095359802246 L 0.9058836698532104,1.4300984144210815 L 0.9008243680000305,1.4525724649429321 L 0.8962452411651611,1.4755207300186157 L 0.8921356201171875,1.4989471435546875 L 0.8884856700897217,1.5228557586669922 L 0.8852871656417847,1.5472513437271118 L 0.882532318420663,1.5721381301055235 L 0.8825323120030628,1.5721382144290978 L 0.8802144687097821,1.5975211302363312 L 0.8802144638999689,1.5975212141946247 L 0.8783277397332758,1.6234052862145143 L 0.8783277364513197,1.6234053695851902 L 0.8768671842779642,1.6497948896006538 L 0.8768671824384963,1.6497949721874405 L 0.8758283915789881,1.6766944703568125 L 0.8758283910927679,1.676694551984068 L 0.8752073085078537,1.7041085582169277 L 0.8752073092849066,1.704108638780813 L 0.875000955495706,1.732050768267928 L 0.8750009653572638,1.7320510033033016 z"
       opacity="1"
       stroke-width="0"
       stroke="#555555"
       fill="#000000"
       fill-rule="evenodd" />
    <path
       style="fill:#005DFF"
       id="path8"
       d="M 0.8852871656417847,1.5472513437271118 L 0.8852871623973018,1.5472513433017276 L 0.8852871623894003,1.5472513433670885 L 0.8852871656417847,1.5472513437271118 z"
       opacity="1"
       stroke-width="0"
       stroke="#555555"
       fill="#000000"
       fill-rule="evenodd" />
    <path
       style="fill:#005DFF"
       id="path10"
       d="M 0.8884856700897217,1.5228557586669922 L 0.8884856672394483,1.5228557582318623 L 0.8884856672308924,1.5228557582921711 L 0.8884856700897217,1.5228557586669922 z"
       opacity="1"
       stroke-width="0"
       stroke="#555555"
       fill="#000000"
       fill-rule="evenodd" />
    <path
       style="fill:#005DFF"
       id="path12"
       d="M 0.8921356201171875,1.4989471435546875 L 0.892135617668345,1.498947143125095 L 0.8921356176594248,1.4989471431794792 L 0.8921356201171875,1.4989471435546875 z"
       opacity="1"
       stroke-width="0"
       stroke="#555555"
       fill="#000000"
       fill-rule="evenodd" />
    <path
       style="fill:#005DFF"
       id="path14"
       d="M 0.8962452411651611,1.4755207300186157 L 0.8962452391434761,1.475520729615206 L 0.8962452391346282,1.4755207296624058 L 0.8962452411651611,1.4755207300186157 z"
       opacity="1"
       stroke-width="0"
       stroke="#555555"
       fill="#000000"
       fill-rule="evenodd" />
    <path
       style="fill:#005DFF"
       id="path16"
       d="M 0.9008243680000305,1.4525724649429321 L 0.9008243664150702,1.4525724645861298 L 0.9008243664068141,1.4525724646250195 L 0.9008243680000305,1.4525724649429321 z"
       opacity="1"
       stroke-width="0"
       stroke="#555555"
       fill="#000000"
       fill-rule="evenodd" />
    <path
       style="fill:#005DFF"
       id="path18"
       d="M 0.9058836698532104,1.4300984144210815 L 0.9058836687210147,1.430098414135421 L 0.9058836687140422,1.430098414164635 L 0.9058836698532104,1.4300984144210815 z"
       opacity="1"
       stroke-width="0"
       stroke="#555555"
       fill="#000000"
       fill-rule="evenodd" />
    <path
       style="fill:#005DFF"
       id="path20"
       d="M 0.9114351868629456,1.408095359802246 L 0.9114351861953702,1.4080953596144743 L 0.9114351861905373,1.4080953596325931 L 0.9114351868629456,1.408095359802246 z"
       opacity="1"
       stroke-width="0"
       stroke="#555555"
       fill="#000000"
       fill-rule="evenodd" />
    <path
       style="fill:#005DFF"
       id="path22"
       d="M 0.9174922704696655,1.3865609169006348 L 0.9174922702740135,1.3865609168395514 L 0.9174922702723565,1.3865609168451367 L 0.9174922704696655,1.3865609169006348 z"
       opacity="1"
       stroke-width="0"
       stroke="#555555"
       fill="#000000"
       fill-rule="evenodd" />
    <path
       style="fill:#005DFF"
       id="path24"
       d="M 1.4920512437820435,1.0548384189605713 L 1.4920512438321027,1.0548384187640372 L 1.4920512438264955,1.0548384187626934 L 1.4920512437820435,1.0548384189605713 z"
       opacity="1"
       stroke-width="0"
       stroke="#555555"
       fill="#000000"
       fill-rule="evenodd" />
    <path
       style="fill:#005DFF"
       id="path26"
       d="M 1.5137289762496948,1.0603599548339844 L 1.51372897643856,1.0603599541683033 L 1.5137289764204893,1.0603599541634394 L 1.5137289762496948,1.0603599548339844 z"
       opacity="1"
       stroke-width="0"
       stroke="#555555"
       fill="#000000"
       fill-rule="evenodd" />
    <path
       style="fill:#005DFF"
       id="path28"
       d="M 1.535560131072998,1.0665538311004639 L 1.5355601314211866,1.0665538299834487 L 1.53556013139235,1.0665538299748651 L 1.535560131072998,1.0665538311004639 z"
       opacity="1"
       stroke-width="0"
       stroke="#555555"
       fill="#000000"
       fill-rule="evenodd" />
    <path
       style="fill:#005DFF"
       id="path30"
       d="M 1.5575530529022217,1.0734093189239502 L 1.5575530534225817,1.0734093173879848 L 1.5575530533848294,1.073409317375708 L 1.5575530529022217,1.0734093189239502 z"
       opacity="1"
       stroke-width="0"
       stroke="#555555"
       fill="#000000"
       fill-rule="evenodd" />
    <path
       style="fill:#005DFF"
       id="path32"
       d="M 1.5797165632247925,1.0809179544448853 L 1.5797165639327018,1.0809179525051595 L 1.5797165638873458,1.0809179524892025 L 1.5797165632247925,1.0809179544448853 z"
       opacity="1"
       stroke-width="0"
       stroke="#555555"
       fill="#000000"
       fill-rule="evenodd" />
    <path
       style="fill:#005DFF"
       id="path34"
       d="M 1.602059245109558,1.0890719890594482 L 1.6020592460121377,1.0890719867468794 L 1.6020592459606346,1.0890719867274332 L 1.602059245109558,1.0890719890594482 z"
       opacity="1"
       stroke-width="0"
       stroke="#555555"
       fill="#000000"
       fill-rule="evenodd" />
    <path
       style="fill:#005DFF"
       id="path36"
       d="M 1.6245896816253662,1.0978654623031616 L 1.6245896827312585,1.097865459637302 L 1.6245896826747155,1.0978654596145427 L 1.6245896816253662,1.0978654623031616 z"
       opacity="1"
       stroke-width="0"
       stroke="#555555"
       fill="#000000"
       fill-rule="evenodd" />
    <path
       style="fill:#005DFF"
       id="path38"
       d="M 1.6473159790399559,1.1072931288803842 L 1.6473159803167583,1.107293125969417 L 1.6473159802579385,1.10729312594432 L 1.6473159790399559,1.1072931288803842 z"
       opacity="1"
       stroke-width="0"
       stroke="#555555"
       fill="#000000"
       fill-rule="evenodd" />
  </g>
  <g
     style="fill:#00AEFF"
     id="g76">
    <path
       style="fill:#00AEFF"
       id="path42"
       d="m 0.90000088,1.7320511 h 2.4e-7 0.0133973 10e-9 l 0.0366026,-2e-7 h 0.14999967 3e-7 v -2e-7 l 1.811e-4,-0.024565 v -2e-7 l 5.409e-4,-0.023904 v -1e-7 l 4.118e-4,-0.01067 4.847e-4,-0.012561 v -1e-7 l 0.00105,-0.019013 1.958e-4,-0.00354 v -10e-8 l 0.00159,-0.021871 v -2e-7 l 0.00193,-0.021184 1e-7,-2e-7 0.00227,-0.020492 v -2e-7 l 0.00183,-0.013999 7.598e-4,-0.0058 v -3e-7 l 0.00142,-0.00932 0.00149,-0.00978 1e-7,-2e-7 4.416e-4,-0.00252 0.00278,-0.015871 v -2e-7 l 0.00353,-0.01768 1e-7,-3e-7 0.00382,-0.016966 1e-7,-2e-7 0.0041,-0.016249 v -2e-7 l 0.00437,-0.015529 10e-8,-3e-7 0.00462,-0.014808 1e-7,-2e-7 0.00188,-0.00545 0.00298,-0.00864 v 0 l 1e-7,-3e-7 0.00478,-0.012564 3.045e-4,-7.999e-4 1e-7,-3e-7 0.00344,-0.00822 0.00185,-0.00443 2e-7,-3e-7 0.00549,-0.011933 10e-8,-3e-7 0.00567,-0.011227 2e-7,-4e-7 0.00583,-0.010532 2e-7,-3e-7 0.00597,-0.00985 2e-7,-4e-7 0.0061,-0.00919 3e-7,-4e-7 0.00157,-0.00216 0.00465,-0.00639 3e-7,-4e-7 0.00633,-0.00793 3e-7,-3e-7 0.00644,-0.00734 4e-7,-3e-7 0.00654,-0.00677 3e-7,-3e-7 0.00665,-0.00625 3e-7,-3e-7 0.00379,-0.00322 0.00298,-0.00253 4e-7,-4e-7 0.00691,-0.00529 4e-7,-3e-7 0.00707,-0.00485 4e-7,-3e-7 0.00726,-0.00445 4e-7,-3e-7 0.00523,-0.00284 0.00225,-0.00122 5e-7,-2e-7 0.00774,-0.0037 5e-7,-2e-7 0.00803,-0.00334 5e-7,-2e-7 0.00837,-0.00299 5e-7,-2e-7 0.00873,-0.00264 4e-7,-10e-8 0.00914,-0.00228 5e-7,-1e-7 0.00421,-8.385e-4 0.00536,-0.00107 5e-7,-1e-7 0.00634,-9.612e-4 0.00369,-5.591e-4 5e-7,-10e-8 0.010511,-0.00112 5e-7,-1e-7 0.011008,-6.918e-4 4e-7,-1e-7 0.011518,-2.467e-4 h 4e-7 l 0.00796,1.449e-4 0.00408,7.43e-5 h 4e-7 l 0.012557,7.056e-4 h 4e-7 l 0.00166,1.539e-4 0.011419,0.00106 3e-7,1e-7 0.0136,0.00174 3e-7,1e-7 0.014117,0.00228 h 3e-7 l 0.00593,0.00115 0.0087,0.00168 h 3e-7 l 0.015134,0.0034 h 2e-7 l 0.00807,0.00206 0.00756,0.00193 h 2e-7 l 0.016121,0.00458 h 2e-7 l 0.016602,0.00518 3e-7,10e-8 0.00738,0.0025 0.0097,0.00329 2e-7,10e-8 0.017538,0.0064 2e-7,10e-8 0.010042,0.00392 0.00795,0.0031 2e-7,1e-7 0.018441,0.00765 2e-7,1e-7 0.018881,0.00828 h 2e-7 l 0.019313,0.00892 1e-7,1e-7 0.019737,0.00956 2e-7,1e-7 0.020155,0.010196 h 2e-7 l 0.020567,0.010839 1e-7,1e-7 0.020972,0.011484 1e-7,1e-7 0.021364,0.012125 2e-7,1e-7 10e-8,-2e-7 0.0067,-0.011602 v 0 l 0.018301,-0.031699 v 0 l 0.025,-0.043301 v 0 l 0.025,-0.043301 0.018301,-0.031699 v 0 0 l 0.0067,-0.011602 10e-8,-2e-7 -2e-7,-1e-7 -0.023975,-0.013607 h -10e-8 l -0.023709,-0.012982 v -10e-8 l -0.023454,-0.01236 -1e-7,-10e-8 -0.023203,-0.011737 -10e-8,-1e-7 -0.022957,-0.011113 -10e-8,-1e-7 -0.022716,-0.010488 -10e-8,-10e-8 -0.02248,-0.00986 -0.02225,-0.00923 -0.022027,-0.0086 -0.021809,-0.00796 -0.021598,-0.00732 -0.021394,-0.00667 -0.021197,-0.00601 -0.021006,-0.00535 -0.020822,-0.00468 h -10e-8 l -0.020643,-0.00399 h -10e-8 l -0.020469,-0.0033 h -2e-7 l -0.020299,-0.00259 h -2e-7 l -0.020131,-0.00186 h -3e-7 l -0.019963,-0.00112 h -3e-7 l -0.019793,-3.562e-4 h -3e-7 l -0.019616,4.251e-4 h -3e-7 l -0.019429,0.00123 -4e-7,10e-8 -0.019229,0.00205 h -4e-7 l -0.01901,0.00289 -4e-7,10e-8 -0.018768,0.00374 -5e-7,1e-7 -0.018498,0.00461 -4e-7,2e-7 -0.018197,0.0055 v 0 l -4e-7,2e-7 v 0 l -0.01786,0.00638 v 0 l -5e-7,2e-7 v 0 l -0.017484,0.00727 h -1e-7 l -4e-7,2e-7 v 0 l -0.017069,0.00815 h -1e-7 l -4e-7,2e-7 v 0 l -0.016615,0.00902 h -10e-8 l -4e-7,3e-7 v 0 l -0.016123,0.00988 v 0 l -4e-7,2e-7 v 0 l -0.015597,0.010705 v 0 l -4e-7,3e-7 v 0 l -0.01504,0.011505 v 0 l -4e-7,3e-7 v 0 l -0.014459,0.012275 v 0 l -3e-7,3e-7 v 0 l -0.013859,0.01301 -4e-7,3e-7 -0.013246,0.013713 -3e-7,3e-7 -0.012626,0.014382 -3e-7,4e-7 -0.012005,0.01502 -2e-7,4e-7 -0.011387,0.015629 -2e-7,3e-7 -0.010776,0.016213 -3e-7,3e-7 -0.0101758,0.016775 -1.8e-7,3e-7 -0.009588,0.017319 -1.5e-7,3e-7 -0.009014,0.017848 -1.2e-7,2e-7 -0.008454,0.018365 -9e-8,2e-7 -0.007909,0.018873 -6e-8,1e-7 -0.007379,0.019376 -4e-8,10e-8 -0.006863,0.019874 h -2e-8 l -0.00636,0.020371 -0.005869,0.020867 -0.00539,0.021364 -0.004921,0.021862 -0.004462,0.022363 -0.004011,0.022867 -0.003568,0.023374 -0.003131,0.023884 -0.002701,0.024398 v 1e-7 l -0.002275,0.024917 v 1e-7 l -0.001854,0.025438 h -1e-8 l -0.001437,0.025963 v 1e-7 l -0.001023,0.026492 v 1e-7 l -6.1209e-4,0.027024 v 1e-7 l -2.0367e-4,0.027567 z"
       opacity="1"
       stroke-width="0"
       stroke="#555555"
       fill="#000000"
       fill-rule="evenodd" />
    <path
       style="fill:#00AEFF"
       id="path44"
       d="m 0.91010654,1.5502512 v 0 z"
       opacity="1"
       stroke-width="0"
       stroke="#555555"
       fill="#000000"
       fill-rule="evenodd" />
    <path
       style="fill:#00AEFF"
       id="path46"
       d="m 0.91323799,1.5263667 v 0 z"
       opacity="1"
       stroke-width="0"
       stroke="#555555"
       fill="#000000"
       fill-rule="evenodd" />
    <path
       style="fill:#00AEFF"
       id="path48"
       d="m 0.91680604,1.5029929 v 0 z"
       opacity="1"
       stroke-width="0"
       stroke="#555555"
       fill="#000000"
       fill-rule="evenodd" />
    <path
       style="fill:#00AEFF"
       id="path50"
       d="m 0.92081743,1.4801261 v 0 z"
       opacity="1"
       stroke-width="0"
       stroke="#555555"
       fill="#000000"
       fill-rule="evenodd" />
    <path
       style="fill:#00AEFF"
       id="path52"
       d="m 0.92527956,1.4577632 v 0 z"
       opacity="1"
       stroke-width="0"
       stroke="#555555"
       fill="#000000"
       fill-rule="evenodd" />
    <path
       style="fill:#00AEFF"
       id="path54"
       d="m 0.93020087,1.435901 v 0 z"
       opacity="1"
       stroke-width="0"
       stroke="#555555"
       fill="#000000"
       fill-rule="evenodd" />
    <path
       style="fill:#00AEFF"
       id="path56"
       d="m 0.93559098,1.4145372 v 0 z"
       opacity="1"
       stroke-width="0"
       stroke="#555555"
       fill="#000000"
       fill-rule="evenodd" />
    <path
       style="fill:#00AEFF"
       id="path58"
       d="m 0.94146013,1.3936701 v 0 z"
       opacity="1"
       stroke-width="0"
       stroke="#555555"
       fill="#000000"
       fill-rule="evenodd" />
    <path
       style="fill:#00AEFF"
       id="path60"
       d="m 1.4862241,1.0791498 v 0 z"
       opacity="1"
       stroke-width="0"
       stroke="#555555"
       fill="#000000"
       fill-rule="evenodd" />
    <path
       style="fill:#00AEFF"
       id="path62"
       d="m 1.50723,1.0845006 v 0 z"
       opacity="1"
       stroke-width="0"
       stroke="#555555"
       fill="#000000"
       fill-rule="evenodd" />
    <path
       style="fill:#00AEFF"
       id="path64"
       d="m 1.5284268,1.0905144 v 0 z"
       opacity="1"
       stroke-width="0"
       stroke="#555555"
       fill="#000000"
       fill-rule="evenodd" />
    <path
       style="fill:#00AEFF"
       id="path66"
       d="m 1.5498207,1.0971835 v 0 z"
       opacity="1"
       stroke-width="0"
       stroke="#555555"
       fill="#000000"
       fill-rule="evenodd" />
    <path
       style="fill:#00AEFF"
       id="path68"
       d="m 1.5714188,1.1045008 v 0 z"
       opacity="1"
       stroke-width="0"
       stroke="#555555"
       fill="#000000"
       fill-rule="evenodd" />
    <path
       style="fill:#00AEFF"
       id="path70"
       d="m 1.5932277,1.1124601 v 0 z"
       opacity="1"
       stroke-width="0"
       stroke="#555555"
       fill="#000000"
       fill-rule="evenodd" />
    <path
       style="fill:#00AEFF"
       id="path72"
       d="m 1.6152542,1.121057 v 0 z"
       opacity="1"
       stroke-width="0"
       stroke="#555555"
       fill="#000000"
       fill-rule="evenodd" />
    <path
       style="fill:#00AEFF"
       id="path74"
       d="m 1.6375043,1.1302873 v 0 z"
       opacity="1"
       stroke-width="0"
       stroke="#555555"
       fill="#000000"
       fill-rule="evenodd" />
  </g>
  <path
     style="fill:#005DFF"
     id="path114"
     d="M 1.2509880305181105,1.092985161770384 L 1.250988179274425,1.0929853351135672 L 1.316837698081033,1.1623555823972154 L 1.3168383539542499,1.1623563470416822 L 1.3168389295670442,1.1623571737948184 L 1.3168394190778048,1.1623580542663128 L 1.3168398175187275,1.1623589795206932 L 1.3168401208462315,1.1623599401680074 L 1.316840325981995,1.1623609264591186 L 1.3168404308441959,1.1623619283846427 L 1.3168404343686395,1.1623629357765304 L 1.3168403365195578,1.1623639384112567 L 1.3168401382899728,1.1623649261135747 L 1.3168398416916194,1.162365888859779 L 1.286242687451941,1.2463853458847705 L 1.2862426206727589,1.2463855612883332 L 1.2862428455853094,1.2463855447808594 L 1.337119091887508,1.2401538200208662 L 1.3371193334840568,1.2401537780405452 L 1.3371194711607808,1.2401535751209571 L 1.383871961244029,1.1632045482621476 L 1.383872019871782,1.1632044352356015 L 1.3838719640674089,1.1632043345543446 L 1.383871930725957,1.1632042744002902 L 1.333068854296567,1.0828066671712582 L 1.333068722984803,1.0828064795542183 L 1.3330684946462121,1.0828064970031661 L 1.2509882555087637,1.0929851223304892 L 1.2509880305181105,1.092985161770384 z"
     opacity="1"
     stroke-width="0"
     stroke="#555555"
     fill="#000000"
     fill-rule="evenodd" />
  <path
     style="fill:#005DFF"
     id="path116"
     d="M 1.1016172409687766,1.1674977511358 L 1.1016174454599685,1.1674978336625796 L 1.192365884034016,1.1991115722473484 L 1.192366816972135,1.1991119509283288 L 1.1923677071016832,1.199112421504791 L 1.1923685453987687,1.1991129792061583 L 1.192369323364964,1.1991136183786062 L 1.192370033113459,1.1991143325423779 L 1.1923706674490164,1.1991151144574752 L 1.1923712199409147,1.1991159561970557 L 1.1923716849881414,1.199116849227792 L 1.192372057876174,1.1991177844963812 L 1.192372334824775,1.1991187525213247 L 1.1923725130263148,1.1991197434890488 L 1.2036844184999895,1.2873175135055572 L 1.203684457715688,1.2873177342612072 L 1.203684650600086,1.2873176199522451 L 1.2430751708111452,1.261327875474768 L 1.2430753602835793,1.2613277369967844 L 1.2430754007129512,1.2613275058227762 L 1.2541501328344864,1.173354183538495 L 1.254150134200698,1.1733541548620683 L 1.254150141458249,1.1733540370475675 L 1.2541500705488955,1.1733539830872426 L 1.2541500253383868,1.173353948683125 L 1.1740140558893188,1.1198886793979408 L 1.174013853027172,1.119888557904905 L 1.1740136493616418,1.1198886780466362 L 1.1016174191422996,1.167497621206932 L 1.1016172409687766,1.1674977511358 z"
     opacity="1"
     stroke-width="0"
     stroke="#555555"
     fill="#000000"
     fill-rule="evenodd" />
  <path
     style="fill:#005DFF"
     id="path118"
     d="M 1.3892524451442023,1.242910615906429 L 1.3892526675147354,1.2429106682226287 L 1.446150784636682,1.2533587980639658 L 1.44615101456578,1.253358829091215 L 1.44615118893582,1.253358676038381 L 1.5117140775756779,1.190056461563892 L 1.5117141701699088,1.1900563684354704 L 1.5117142121350493,1.1900563219117362 L 1.5117141518953559,1.1900561128085936 L 1.511714146486209,1.1900560923867982 L 1.483236983380701,1.1003910263679746 L 1.4832368998404624,1.1003908021920314 L 1.4832366669163186,1.1003907476011343 L 1.4081828640453848,1.086653873104383 L 1.4081826398927728,1.0866538434304596 L 1.408182722213303,1.0866540540207414 L 1.4468707672086714,1.1728133616729925 L 1.4468711334836382,1.1728143015867687 L 1.4468714032010137,1.1728152736195847 L 1.4468715736161673,1.1728162678800806 L 1.4468716429949617,1.1728172742507086 L 1.4468716106314023,1.172818282490689 L 1.446871476854819,1.1728192823402195 L 1.4468712430265158,1.1728202636248788 L 1.4468709115259184,1.1728212163591607 L 1.4468704857263612,1.1728221308480864 L 1.4468699699607603,1.1728229977858597 L 1.446869369477522,1.1728238083505633 L 1.3892525813122052,1.2429104324836604 L 1.3892524451442023,1.242910615906429 z"
     opacity="1"
     stroke-width="0"
     stroke="#555555"
     fill="#000000"
     fill-rule="evenodd" />
  <path
     style="fill:#005DFF"
     id="path120"
     d="M 1.5009274709744915,1.2693269215573004 L 1.5009276819395223,1.269327013222102 L 1.5585309367516686,1.2910069559798099 L 1.5585311634451264,1.2910070288899835 L 1.5585313643002858,1.2910069009719627 L 1.633405865210522,1.2380176849116673 L 1.6334060072091752,1.2380175796837423 L 1.6334060360807863,1.2380175560372504 L 1.6334060067023866,1.2380173313815799 L 1.6334060054239365,1.2380173195161914 L 1.6188948526711964,1.145642875179672 L 1.61889480539198,1.1456426463934586 L 1.6188945909183783,1.145642553767714 L 1.5508869794955193,1.1200666097761987 L 1.5508867655087049,1.1200665410575776 L 1.5508868047842899,1.1200667623493201 L 1.5717698821063442,1.2114624099275508 L 1.5717700569741935,1.211463403857839 L 1.5717701307723029,1.211464410351764 L 1.5717701027490558,1.2114654191584253 L 1.5717699731898624,1.2114664200033674 L 1.5717697434142528,1.2114674026932224 L 1.571769415762436,1.2114683572195288 L 1.5717689935714683,1.2114692738606632 L 1.571768481141264,1.2114701432808537 L 1.5717678836908027,1.2114709566252633 L 1.571767207304975,1.2114717056101727 L 1.5717664588726095,1.2114723826073488 L 1.500927641645444,1.2693267673493132 L 1.5009274709744915,1.2693269215573004 z"
     opacity="1"
     stroke-width="0"
     stroke="#555555"
     fill="#000000"
     fill-rule="evenodd" />
  <path
     style="fill:#005DFF"
     id="path122"
     d="M 1.6128415103105371,1.3153825987596994 L 1.6128417104303596,1.3153827137970935 L 1.6693618478682244,1.3442033597983722 L 1.6693620678655947,1.3442034585981673 L 1.669362283099645,1.3442033498114716 L 1.7493565506589992,1.2986737413245777 L 1.749356718831513,1.2986736405250037 L 1.749356740277419,1.2986736262154392 L 1.749356732826924,1.298673395463602 L 1.7493567327588917,1.2986733879413406 L 1.744002713456966,1.2056274394246054 L 1.7440026893035339,1.2056272098746283 L 1.744002488861457,1.2056270954213515 L 1.6809422757989105,1.1734779988574933 L 1.6809420714899423,1.173477906953448 L 1.6809420836543119,1.173478130650871 L 1.690546827731665,1.266322639120015 L 1.6905468807931459,1.2663236470962558 L 1.69054683197169,1.2663246552867575 L 1.6905466817647055,1.2663256534197567 L 1.6905464317025487,1.266326631325959 L 1.690546084332932,1.2663275790421462 L 1.690545643194967,1.2663284869126867 L 1.6905451127831066,1.2663293456879081 L 1.6905444985013547,1.2663301466183368 L 1.6905438066082077,1.2663308815438403 L 1.6905430441528921,1.2663315429767652 L 1.690542218903544,1.266332124178224 L 1.612841699075622,1.315382465909082 L 1.6128415103105371,1.3153825987596994 z"
     opacity="1"
     stroke-width="0"
     stroke="#555555"
     fill="#000000"
     fill-rule="evenodd" />
  <path
     style="fill:#005DFF"
     id="path124"
     d="M 1.0034969066279689,1.294568168310549 L 1.0034971341092187,1.2945681650922407 L 1.0982661396080302,1.2884946256358458 L 1.0982671477356791,1.2884946119568303 L 1.0982681521168693,1.2884946998595985 L 1.098269142541981,1.2884948884506113 L 1.0982701089432592,1.2884951758128254 L 1.0982710414971524,1.2884955590251788 L 1.098271930724172,1.2884960341922862 L 1.0982727675852495,1.2884965964840334 L 1.0982735435736213,1.288497240184677 L 1.0982742508013,1.2884979587509457 L 1.098274882079256,1.2884987448785525 L 1.0982754309904958,1.2884995905764436 L 1.1434916219899038,1.3665124439872613 L 1.143491745329838,1.366512634591752 L 1.1434918745110922,1.3665124478967785 L 1.1715048425747026,1.3214560482695812 L 1.1715049609269292,1.3214558348519412 L 1.171504890623054,1.3214556011604677 L 1.141567518526024,1.237395903460815 L 1.1415675142106438,1.2373958938687661 L 1.141567462918679,1.2373957750148947 L 1.141567369062363,1.237395757898093 L 1.1415673044034491,1.2373957461060916 L 1.0464297491144374,1.2259012743703512 L 1.046429520411118,1.2259012576317598 L 1.0464293898076258,1.2259014461209516 L 1.003497017473971,1.294567969636846 L 1.0034969066279689,1.294568168310549 z"
     opacity="1"
     stroke-width="0"
     stroke="#555555"
     fill="#000000"
     fill-rule="evenodd" />
  <path
     style="fill:#005DFF"
     id="path126"
     d="M 0.9525473284185625,1.4344020913613371 L 0.9525475466956268,1.4344020346860065 L 1.0422816679893008,1.4063233780385562 L 1.0422826449945992,1.4063231256700397 L 1.0422836424592246,1.4063229730478184 L 1.0422846502267005,1.4063229217259363 L 1.0422856580356443,1.406322972226968 L 1.0422866556242505,1.406323124036697 L 1.0422876328347808,1.4063233756093525 L 1.0422885797169916,1.406323724383348 L 1.0422894866294519,1.406324166807365 L 1.0422903443377136,1.4063246983765125 L 1.0422911441083411,1.4063253136781986 L 1.0422918777978358,1.4063260064472414 L 1.105343646810851,1.4721880548158355 L 1.1053438133656306,1.4721882123280428 L 1.1053438899441883,1.4721879962578766 L 1.122258237563923,1.4156947022436634 L 1.1222582934200949,1.4156944774195055 L 1.1222581607803823,1.4156942874918297 L 1.0669083354597801,1.3439375203467456 L 1.0669083111229773,1.343937490068833 L 1.0669082398926957,1.3439374097896797 L 1.066908101639825,1.3439374293523123 L 1.0669080420193013,1.3439374377885525 L 0.9741667539542311,1.362370800661863 L 0.9741665217352791,1.3623708588284196 L 0.9741664417180922,1.3623710844526047 L 0.9525473825414914,1.434401872437428 L 0.9525473284185625,1.4344020913613371 z"
     opacity="1"
     stroke-width="0"
     stroke="#555555"
     fill="#000000"
     fill-rule="evenodd" />
  <path
     style="fill:#005DFF"
     id="path128"
     d="M 0.9288849966518452,1.5741871408768389 L 0.9288852036281604,1.5741870540215726 L 1.0132874304069177,1.5338097170452896 L 1.0132883617172288,1.5338093279781397 L 1.0132893275028596,1.5338090347712874 L 1.0132903179252342,1.5338088404116663 L 1.0132913228948002,1.5338087468792416 L 1.01329233217381,1.5338087551268393 L 1.0132933354806162,1.5338088650704405 L 1.0132943225944102,1.5338090755900362 L 1.0132952834593443,1.5338093845410374 L 1.0132962082869705,1.5338097887761233 L 1.0132970876559575,1.5338102841773014 L 1.0132979126080668,1.5338108656978602 L 1.085453909375121,1.590334022732588 L 1.0854540976037872,1.5903341555471557 L 1.085454139790297,1.5903339290741172 L 1.093757954395962,1.5288004908701704 L 1.0937579746930286,1.5288002536519234 L 1.0937578051110692,1.528800086539899 L 1.025531924800636,1.467831989458412 L 1.025531806140241,1.4678318878611718 L 1.0255317673519888,1.467831857785436 L 1.0255315586775922,1.4678319351324687 L 1.0255315435106045,1.4678319403744369 L 0.9385361513821348,1.5027101339307156 L 0.9385359389540605,1.5027102311662544 L 0.9385358966279004,1.502710460924677 L 0.9288850157794224,1.574186917231659 L 0.9288849966518452,1.5741871408768389 z"
     opacity="1"
     stroke-width="0"
     stroke="#555555"
     fill="#000000"
     fill-rule="evenodd" />
  <path
     style="fill:#005DFF"
     id="path130"
     d="M 0.921453189459,1.7120573324412003 L 0.9214533868035272,1.7120572267746959 L 1.0013986060224338,1.6641028855152826 L 1.0013994967500388,1.664102410629321 L 1.0014004308142386,1.66410202795921 L 1.0014013986977377,1.6641017414040233 L 1.0014023905386518,1.6641015538835067 L 1.0014033962309912,1.6641014673083299 L 1.0014044055276328,1.6641014825606182 L 1.0014054081447283,1.664101599484964 L 1.0014063938664886,1.6641018168900108 L 1.0014073526492726,1.6641021325605918 L 1.0014082747239248,1.6641025432803003 L 1.0014091506953122,1.6641030448642626 L 1.0788426669431133,1.7137926652474083 L 1.078842867399773,1.713792780100445 L 1.0788428863386532,1.7137925498496835 L 1.080872289417377,1.6500823584137383 L 1.0808722851790618,1.6500821173939955 L 1.080872095271022,1.650081968923742 L 1.005767168309575,1.5971279224904424 L 1.0057670155063656,1.5971278197367493 L 1.0057669873002861,1.597127802693371 L 1.00576678400158,1.597127906241623 L 1.0057667747066588,1.5971279107109022 L 0.9237013753986821,1.6416052643082844 L 0.9237011778354937,1.6416053838197995 L 0.9237011595509117,1.6416056139934083 L 0.9214531856968405,1.7120571086195742 L 0.921453189459,1.7120573324412003 z"
     opacity="1"
     stroke-width="0"
     stroke="#555555"
     fill="#000000"
     fill-rule="evenodd" />
</svg>
